<?xml version="1.0" encoding="utf-8"?>
<!-- Generator: Adobe Illustrator 18.1.1, SVG Export Plug-In . SVG Version: 6.00 Build 0)  -->
<svg version="1.1" id="Layer_1" xmlns="http://www.w3.org/2000/svg" xmlns:xlink="http://www.w3.org/1999/xlink" x="0px" y="0px"
	 viewBox="0 0 16.1 20.2" enable-background="new 0 0 16.1 20.2" xml:space="preserve">
<g>
	<path fill="#7F3011" d="M6.8,20.3c0,0-0.2-11.8,4.6-12.2c4.8-0.4,4.6,12.2,4.6,12.2H6.8z"/>
	<path fill="#DEA58F" d="M14.3,4.9c0,0.6-0.1,1.5-0.4,2c-0.7,1.4-1.1,1.8-2.3,1.8c-1.3,0-1.9-1.1-2.3-2.6C9.2,5.6,9,5,9,4.5
		c0-2.3,0.9-3.9,2.5-3.9S14.3,2.7,14.3,4.9z"/>
	<path fill="#6A5047" d="M6.1,2.4c0,0,3.8,3,0.8,10.4c-2,0-2.2,0-2.2,0L5,4.7"/>
	<path fill="#DEA58F" d="M13.2,8.1l-0.2,1.2c-0.7,1.6-2,1.5-2.5,0l-0.2-1.5"/>
	<path fill="#637E8C" d="M0,20.3c0,0-0.5-10.9,4.3-11.2c4.8-0.4,5,11.2,5,11.2H0z"/>
	<path fill="#FCBE7F" d="M7.5,6.5c0,0.6-0.3,1.3-0.6,1.7C6.2,9.4,6,9.9,4.8,9.9c-1.3,0-1.6-1-2.1-2.4C2.6,7.1,1.8,6.7,1.8,6.2
		c0-2,1.3-3.7,3-3.7S7.5,4.5,7.5,6.5z"/>
	<polyline fill="#FCBE7F" points="6,9.5 4.8,13.3 3.8,9.1 	"/>
	<path fill="#DEA86E" d="M4.9,9.9c0.5,0,1.2-0.5,1.2-0.5S5.5,10.3,5,10.3S3.9,9.6,3.9,9.6L4.9,9.9z"/>
	<path fill="#6A5047" d="M3,6.2l3.6-2.7c0,0,1-1.2-1.4-1.4S3,6.2,3,6.2z"/>
	<polygon fill="#FDCFA1" points="5,6.6 5.5,8 5.1,8.4 4.6,8 	"/>
	<path fill="#6A5047" d="M4.2,4.1L3.4,6.2c-0.7,3.2,0.4,2.6,0.2,4s-1,2.5-1.2,3.8c-0.7,0-1.5-3.9-1.5-3.9s-0.9-8,4.3-7.9"/>
	<path fill="#B68D7E" d="M11.9,8.8c0.8-0.2,1.3-0.7,1.3-0.7s-0.8,1-1.3,1s-1.5-0.9-1.5-0.9L11.9,8.8z"/>
	<polygon fill="#F3B49B" points="11.7,5.1 12.2,6.6 11.8,7.1 11.3,6.6 	"/>
	<path fill="#653614" d="M10,1.2c0,0.3,0.2,0.3,0.7,0.4c0.3,0.1,0.6,0.6,1.2,0.5c0.6-0.1,0.6-0.5,0.8-0.6c0.2-0.1,0.4,0,0.5-0.2
		c0-0.4,0-0.7-0.9-0.8C11.3,0.4,10.1,0.4,10,1.2z"/>
	<path fill="#653614" d="M9.8,1.7c0,0-0.2,0.3-0.3,0.8C9.5,2.8,9.3,3.1,9.2,2.7C9.1,2.3,10,0.5,10.7,0.6C10.9,0.9,10.4,1,10.4,1
		L9.8,1.7z"/>
	<path fill="#653614" d="M13.5,1.9c0,0,0.1,0.2,0.2,0.6c0.1,0.3,0.4,0.7,0.4,0.3C14,2,13.3,0.5,12.7,0.8C12.5,1.1,13,1.2,13,1.2
		L13.5,1.9z"/>
	<g>
		<g opacity="0.52">
			<path fill="#D5D7D8" d="M11,5.5H9.7c-0.1,0-0.2-0.1-0.2-0.2V4.9c0-0.1,0.1-0.2,0.2-0.2H11c0.1,0,0.2,0.1,0.2,0.2v0.4
				C11.2,5.4,11.1,5.5,11,5.5z"/>
			<path fill="#808285" d="M11,5.5c0,0-0.3,0-0.7,0c-0.1,0-0.2,0-0.3,0c-0.1,0-0.3,0.1-0.4-0.1c-0.1-0.1,0-0.3,0-0.4
				c0-0.1,0-0.1,0-0.2c0-0.1,0.1-0.1,0.2-0.1c0.3,0,0.6,0,0.8,0c0.1,0,0.3,0,0.4,0c0.1,0,0.3,0.1,0.3,0.2c0,0.2,0,0.4,0,0.5
				C11.1,5.5,11,5.5,11,5.5z M11,5.5c0,0,0.1,0,0.1-0.1c0-0.1,0-0.3,0-0.5c0-0.1-0.1-0.2-0.2-0.1c-0.1,0-0.3,0-0.4,0
				c-0.3,0-0.6,0-0.8,0C9.6,4.7,9.5,4.9,9.6,5c0,0.1,0,0.3,0,0.4c0.1,0.1,0.2,0,0.3,0.1c0.1,0,0.2,0,0.3,0C10.7,5.5,11,5.5,11,5.5z"
				/>
		</g>
		<g opacity="0.52">
			<path fill="#D5D7D8" d="M13.7,5.5h-1.3c-0.1,0-0.2-0.1-0.2-0.2V4.9c0-0.1,0.1-0.2,0.2-0.2h1.3c0.1,0,0.2,0.1,0.2,0.2v0.4
				C13.9,5.4,13.8,5.5,13.7,5.5z"/>
			<path fill="#808285" d="M13.7,5.5c0,0-0.3,0-0.7,0c-0.1,0-0.2,0-0.3,0c-0.1,0-0.3,0.1-0.4-0.1c-0.1-0.1,0-0.3,0-0.4
				c0-0.1,0-0.1,0-0.2c0-0.1,0.1-0.1,0.2-0.1c0.3,0,0.6,0,0.8,0c0.1,0,0.3,0,0.4,0c0.1,0,0.3,0.1,0.3,0.2c0,0.2,0,0.4,0,0.5
				C13.8,5.5,13.7,5.5,13.7,5.5z M13.7,5.5c0,0,0.1,0,0.1-0.1c0-0.1,0-0.3,0-0.5c0-0.1-0.1-0.2-0.2-0.1c-0.1,0-0.3,0-0.4,0
				c-0.3,0-0.6,0-0.8,0c-0.1,0-0.2,0.1-0.1,0.3c0,0.1,0,0.3,0,0.4c0.1,0.1,0.2,0,0.3,0.1c0.1,0,0.2,0,0.3,0
				C13.4,5.5,13.7,5.5,13.7,5.5z"/>
		</g>
		<g>
			<polygon fill="#808285" points="9.5,5.2 8.9,5.1 9.6,5.1 			"/>
		</g>
		<g>
			<polygon fill="#808285" points="13.9,5 14.6,5.1 13.9,5.1 			"/>
		</g>
		<line fill="none" stroke="#808285" stroke-width="0.1" stroke-miterlimit="10" x1="11.2" y1="5.1" x2="12.3" y2="5.1"/>
	</g>
</g>
</svg>
