<?xml version="1.0" encoding="utf-8"?>
<!-- Generator: Adobe Illustrator 18.1.1, SVG Export Plug-In . SVG Version: 6.00 Build 0)  -->
<svg version="1.1" xmlns="http://www.w3.org/2000/svg" xmlns:xlink="http://www.w3.org/1999/xlink" x="0px" y="0px"
	 viewBox="0 0 32.3 25" enable-background="new 0 0 32.3 25" xml:space="preserve">
<g id="bg__x2B__footer">
</g>
<g id="Layer_1">
	<path fill="none" stroke="#FFFFFF" stroke-miterlimit="10" d="M5,22.2c0,0,0-4.9,1.7-7.7c0.7-1.1,2.7-1.9,4.1-1.9
		c1.2,0,3.1,0.6,3.8,1.5c2.1,2.7,2,8.1,2,8.1H5z"/>
	<polyline fill="#FFFFFF" points="9.9,10.8 9.9,12.5 11.8,12.7 11.8,10.7 	"/>
	<g opacity="0.28">
		<path fill="#FFFFFF" d="M6.2,7.3c0,0,0.4,0.4,1.2,0.6C7.8,8,8.3,8,8.8,8C9,8,9.3,8,9.5,7.9c0.3,0,0.5-0.1,0.8-0.1
			c1.1-0.2,2.1-0.5,2.9-0.7c0.8-0.2,1.3-0.3,1.3-0.3s-0.5,0.3-1.3,0.6c-0.8,0.3-1.8,0.7-2.9,0.9c-0.3,0.1-0.6,0.1-0.8,0.1
			c-0.3,0-0.6,0-0.8,0c-0.5,0-1-0.1-1.4-0.3C6.9,8,6.7,7.7,6.5,7.6C6.3,7.4,6.2,7.3,6.2,7.3z"/>
	</g>
	<g opacity="0.28">
		<path fill="#FFFFFF" d="M11.5,3.7c0,0-0.2,0.5-0.4,1.2c-0.1,0.4-0.3,0.8-0.4,1.2c-0.1,0.4-0.2,0.9-0.3,1.4c0,0.5,0.1,0.9,0.2,1.4
			c0.1,0.4,0.2,0.9,0.4,1.2c0.3,0.7,0.5,1.2,0.5,1.2s-0.4-0.4-0.7-1.1c-0.2-0.3-0.4-0.7-0.6-1.2C10.1,8.8,10,8.6,10,8.3
			c0-0.3-0.1-0.6-0.1-0.8C10,7,10.1,6.5,10.3,6c0.2-0.5,0.4-0.9,0.5-1.2C11.2,4.1,11.5,3.7,11.5,3.7z"/>
	</g>
	<path opacity="0.28" fill="none" stroke="#FFFFFF" stroke-width="0.5" stroke-miterlimit="10" d="M19.6,9.6
		c-0.5,0.8-2.7,2.1-1.9,2.1c0.8,0,1.8-0.4,3.2-1.9C21.3,9.4,26.4,9,26.4,9c1.1,0,2-0.9,1.9-2L28,4.5c-0.1-0.9-0.9-1.6-2-1.6h-6.2
		c-3.2,0-3.5,1.2-3.3,2.9c0,0-0.1,2.8,1.1,3.1C18.8,9.2,20,9,19.6,9.6z"/>
	<ellipse fill="#FFFFFF" cx="19.8" cy="6.2" rx="0.6" ry="0.6"/>
	<ellipse fill="#FFFFFF" cx="22.7" cy="6.2" rx="0.6" ry="0.6"/>
	<ellipse fill="#FFFFFF" cx="25.5" cy="6.2" rx="0.6" ry="0.6"/>
	<path opacity="0.28" fill="none" stroke="#FFFFFF" stroke-width="0.75" stroke-miterlimit="10" d="M4.9,20.4c0,0,2.3,0.4,5.5,0.4
		s6.2-0.4,6.2-0.4"/>
	<path fill="none" stroke="#FFFFFF" stroke-width="0.75" stroke-miterlimit="10" d="M11.5,10.7H9.3c-1.7,0-3-1.4-3-3V6
		c0-1.7,1.4-3,3-3h2.3c1.7,0,3,1.4,3,3v1.7C14.6,9.4,13.2,10.7,11.5,10.7z"/>
</g>
<g id="notes">
</g>
</svg>
