<?xml version="1.0" encoding="utf-8"?>
<!-- Generator: Adobe Illustrator 18.1.1, SVG Export Plug-In . SVG Version: 6.00 Build 0)  -->
<svg version="1.1" xmlns="http://www.w3.org/2000/svg" xmlns:xlink="http://www.w3.org/1999/xlink" x="0px" y="0px"
	 viewBox="0 0 19.7 16.3" enable-background="new 0 0 19.7 16.3" xml:space="preserve">
<g id="bg__x2B__footer">
</g>
<g id="Layer_1">
	<path fill="#B0ADD6" d="M2,1.2c0,0,0.8,12.1,2,11.3c1.5-1,15.4-1,15.4-1L16.7,0c0,0,0,0-7.1,0.3C5,0.5,2,1.2,2,1.2z"/>
	<path fill="#FFFFFF" d="M19.5,11.5c0,0-13.8,0.2-15.2,0.7c-1.3,0.5-2.6,4.1,0.3,4.1c3.5-0.1,15-0.5,15-0.5l-0.1-1.2
		c2.5-0.2-13.8,1.1-14.7,0.3c-0.7-0.6,0.4-1.3,1.6-1.5c3.3-0.7,13.1-0.6,13.1-0.6V11.5"/>
	<line fill="none" stroke="#FFFFFF" stroke-width="0.25" stroke-miterlimit="10" x1="6.4" y1="14.1" x2="18.9" y2="13.6"/>
	<g opacity="0.71">
		<path fill="#FFFFFF" d="M16,5.7c0,0,0.4,0.6,0.8,1.7c0.1,0.3,0.2,0.6,0.3,0.9c0,0.3,0.2,0.7,0,1.2c0,0.1-0.2,0.3-0.3,0.4
			c-0.1,0-0.2,0.1-0.3,0.1c0,0-0.1,0-0.1,0l-0.1,0c-0.2,0-0.4,0-0.5,0.1c-0.4,0-0.7,0-1.1,0.1c-1.5,0-3-0.1-4.1-0.2
			C9.4,9.8,8.7,9.5,8.7,9.5s0.7-0.1,1.8-0.2c1.1-0.1,2.6-0.2,4-0.2c0.4,0,0.7,0,1.1,0c0.2,0,0.4,0,0.5,0c0.1,0,0,0.1,0,0
			c0.1-0.1,0.1-0.5,0.1-0.7c0-0.3,0-0.6-0.1-0.9C16.1,6.4,16,5.7,16,5.7z"/>
	</g>
	<path fill="#30C2DF" d="M2,1.2c0,0-1.2-0.6-1.9,0.9c0.3,3.8,1.9,13.8,2.7,13.6c0.3-0.1-0.1-1.6,0.3-2.2c0.5-0.7,1.2-1.3,1.2-1.3
		L2,1.2z"/>
</g>
<g id="notes">
</g>
</svg>
