<?xml version="1.0" encoding="utf-8"?>
<!-- Generator: Adobe Illustrator 18.1.1, SVG Export Plug-In . SVG Version: 6.00 Build 0)  -->
<svg version="1.1" xmlns="http://www.w3.org/2000/svg" xmlns:xlink="http://www.w3.org/1999/xlink" x="0px" y="0px"
	 viewBox="0 0 32.3 25" enable-background="new 0 0 32.3 25" xml:space="preserve">
<g id="bg__x2B__footer">
</g>
<g id="Layer_1">
	<polygon fill="none" stroke="#FFFFFF" stroke-miterlimit="10" points="7.4,11.6 7.4,18.8 17.1,21.3 22.4,18.9 22.4,10.6 17.3,10.3 
			"/>
	<path fill="none" stroke="#FFFFFF" stroke-miterlimit="10" d="M11.6,9.6"/>
	<ellipse fill="#FFFFFF" cx="16.5" cy="7" rx="2.7" ry="3.3"/>
	<polyline opacity="0.28" fill="none" stroke="#FFFFFF" stroke-miterlimit="10" points="17.3,10.3 17.1,21.3 7.4,18.8 	"/>
	<ellipse fill="#FFFFFF" cx="10.3" cy="7.6" rx="2.6" ry="3.2"/>
	<path opacity="0.28" fill="none" stroke="#FFFFFF" stroke-width="0.75" stroke-miterlimit="10" d="M16.7,10.3c0,0,1.3,0.2,2.5-0.3
		c1-0.4,1.8-1.2,1.8-3c-0.1-1.6-0.9-2.5-1.8-2.9c-1.2-0.6-2.7-0.4-2.7-0.4"/>
	<path opacity="0.28" fill="none" stroke="#FFFFFF" stroke-width="0.75" stroke-miterlimit="10" d="M9.6,10.9c0,0,1.3,0.2,2.5-0.3
		c1-0.4,1.8-1.2,1.8-2.9c-0.1-1.6-0.9-2.4-1.8-2.8c-1.2-0.6-2.7-0.4-2.7-0.4"/>
	<path fill="none" stroke="#FFFFFF" stroke-miterlimit="10" d="M26.4,17.2L26.4,17.2c-1.1,0-2.1-0.9-2.1-2.1v-0.7
		c0-1.1,0.9-2.1,2.1-2.1h0c1.1,0,2.1,0.9,2.1,2.1v0.7C28.5,16.3,27.6,17.2,26.4,17.2z"/>
	<polyline fill="none" stroke="#FFFFFF" stroke-width="0.75" stroke-miterlimit="10" points="26.2,12.4 19.8,14 20,15.8 25.6,17.2 	
		"/>
</g>
<g id="notes">
</g>
</svg>
