<?xml version="1.0" encoding="utf-8"?>
<!-- Generator: Adobe Illustrator 18.1.1, SVG Export Plug-In . SVG Version: 6.00 Build 0)  -->
<svg version="1.1" id="Layer_1" xmlns="http://www.w3.org/2000/svg" xmlns:xlink="http://www.w3.org/1999/xlink" x="0px" y="0px"
	 viewBox="0 0 15.4 19.6" enable-background="new 0 0 15.4 19.6" xml:space="preserve">
<g>
	<polygon fill="#5F6174" points="15.2,18.4 14,19.2 0.5,19.2 0.5,8 14.3,8 15.2,8.3 	"/>
	<polygon fill="#7A7B8A" points="14.1,1.4 13.8,1.4 0.5,8 0,6.4 13.4,0 13.8,0.1 	"/>
	<line fill="none" stroke="#7A7B8A" stroke-width="0.1" stroke-miterlimit="10" x1="0.7" y1="8" x2="14.1" y2="1.4"/>
	<path fill="#D5D7D8" d="M5.2,12.3v3.3c0,0.2,0.2,0.4,0.4,0.3l3.8-1.6c0.3-0.1,0.3-0.5,0-0.7l-3.8-1.7C5.4,11.9,5.2,12,5.2,12.3z"/>
	<polygon fill="#E6E7E8" points="1.3,5.7 1.3,7.6 2.1,7.2 2,5.4 	"/>
	<polygon fill="#E6E7E8" points="3.8,4.6 3.8,6.4 4.5,6 4.5,4.2 	"/>
	<polygon fill="#E6E7E8" points="6.4,3.3 6.4,5.1 7.1,4.7 7.1,3 	"/>
	<polygon fill="#E6E7E8" points="9.1,2 9.1,3.7 9.8,3.4 9.8,1.7 	"/>
	<polygon fill="#E6E7E8" points="11.9,0.7 11.9,2.4 12.6,2 12.5,0.4 	"/>
	<polygon fill="#6C6E7B" points="0.8,19.2 0.4,19.2 0.4,19.6 14.1,19.6 15.4,18.8 15.4,18.4 15.2,18.4 14,19.2 	"/>
</g>
</svg>
