<?xml version="1.0" encoding="utf-8"?>
<!-- Generator: Adobe Illustrator 18.1.1, SVG Export Plug-In . SVG Version: 6.00 Build 0)  -->
<svg version="1.1" xmlns="http://www.w3.org/2000/svg" xmlns:xlink="http://www.w3.org/1999/xlink" x="0px" y="0px"
	 viewBox="0 0 22.8 18.9" enable-background="new 0 0 22.8 18.9" xml:space="preserve">
<g id="bg__x2B__footer">
</g>
<g id="Layer_1">
	<polygon fill="none" stroke="#FFFFFF" stroke-miterlimit="10" points="0.9,8.3 0.9,15.5 10.6,18.1 15.9,15.7 15.9,7.3 10.8,7 	"/>
	<path fill="none" stroke="#FFFFFF" stroke-miterlimit="10" d="M5.1,6.4"/>
	<ellipse fill="#FFFFFF" cx="10" cy="3.8" rx="2.7" ry="3.3"/>
	<polyline opacity="0.28" fill="none" stroke="#FFFFFF" stroke-miterlimit="10" points="10.8,7 10.6,18.1 0.9,15.5 	"/>
	<ellipse fill="#FFFFFF" cx="3.8" cy="4.4" rx="2.6" ry="3.2"/>
	<path opacity="0.28" fill="none" stroke="#FFFFFF" stroke-width="0.75" stroke-miterlimit="10" d="M10.2,7c0,0,1.3,0.2,2.5-0.3
		c1-0.4,1.8-1.2,1.8-3c-0.1-1.6-0.9-2.5-1.8-2.9C11.4,0.3,10,0.5,10,0.5"/>
	<path opacity="0.28" fill="none" stroke="#FFFFFF" stroke-width="0.75" stroke-miterlimit="10" d="M3.1,7.7c0,0,1.3,0.2,2.5-0.3
		c1-0.4,1.8-1.2,1.8-2.9C7.3,2.9,6.5,2.1,5.6,1.6C4.3,1.1,2.9,1.3,2.9,1.3"/>
	<path fill="none" stroke="#FFFFFF" stroke-miterlimit="10" d="M19.9,14L19.9,14c-1.1,0-2.1-0.9-2.1-2.1v-0.7c0-1.1,0.9-2.1,2.1-2.1
		h0c1.1,0,2.1,0.9,2.1,2.1v0.7C22,13.1,21.1,14,19.9,14z"/>
	<polyline fill="none" stroke="#FFFFFF" stroke-width="0.75" stroke-miterlimit="10" points="19.7,9.1 13.3,10.7 13.5,12.5 19.1,14 
			"/>
</g>
<g id="notes">
</g>
</svg>
