<?xml version="1.0" encoding="utf-8"?>
<!-- Generator: Adobe Illustrator 18.1.1, SVG Export Plug-In . SVG Version: 6.00 Build 0)  -->
<svg version="1.1" id="Layer_1" xmlns="http://www.w3.org/2000/svg" xmlns:xlink="http://www.w3.org/1999/xlink" x="0px" y="0px"
	 viewBox="0 0 832 785.6" enable-background="new 0 0 832 785.6" xml:space="preserve">
<circle fill="#99CCCC" cx="419.2" cy="382.6" r="357.9"/>
<g>
	<path fill="#5A4F5B" d="M364.3,310.4c-0.3,0.1-0.7,0.3-1,0.4c-7.2,3.9-94.4,52.1-154.9,116.7c-4.5,4.9-1.8,14.5,4.5,16.2
		c35.5,9.5,127.4,28.7,208-0.6l122.9-44.7c5.3-2.8,1.1-0.6,8.1-4.4c46.5-29.8,56.9-54.6,32.7-89.7c-26.4-38.4-46.7-40.3-78.8-31.7"
		/>
	<path fill="#B49048" d="M529.3,335.1c0,0-89.8-134.3-236.1-64.2s-127.7,79.7-127.7,79.7L529.3,335.1z"/>
	<path fill="#FFF3D0" d="M529.3,335.1c0,0,6.2,143.1-85,205.7S258,538.4,258,538.4L529.3,335.1z"/>
	<g>
		<path fill="#5A4F5B" d="M525.4,185.7c0,0,2.3-0.5,6.5-0.5c2.1,0,4.6,0.2,7.5,0.7c2.9,0.5,6,1.4,9.3,2.9c3.3,1.5,6.6,3.5,9.7,6.2
			c3.1,2.7,5.8,6.1,8.2,9.9c0.6,1,1.1,2,1.7,2.9l0.4,0.7l0.4,0.8c0.2,0.5,0.5,1,0.7,1.6c1,2.1,1.8,4.3,2.6,6.5
			c0.4,1.1,0.7,2.3,1,3.4c0.3,1.1,0.6,2.3,0.9,3.4c0.4,2.3,1,4.7,1.4,7c0.3,2.4,0.7,4.7,0.9,7.1c0.2,2.4,0.4,4.7,0.5,7.1
			c0.1,2.3,0.1,4.7,0.1,7c0,2.3-0.1,4.6-0.2,6.8c0,1.1-0.1,2.2-0.1,3.3c-0.1,1.1-0.2,2.2-0.2,3.2c-0.2,2.1-0.3,4.2-0.5,6.3
			c-0.5,4.1-1,7.9-1.4,11.4c-0.6,3.5-1.1,6.8-1.6,9.6c-0.5,2.9-1,5.3-1.4,7.4c-0.8,4.1-1.3,6.4-1.3,6.4l-0.1,0c0,0,0.4-2.3,1.1-6.4
			c0.2-1,0.4-2.2,0.6-3.4c0.2-1.2,0.5-2.6,0.7-4c0.4-2.9,0.9-6.1,1.4-9.6c0.4-3.5,0.8-7.4,1.2-11.4c0.1-2,0.3-4.1,0.4-6.3
			c0.1-1.1,0.2-2.1,0.2-3.2c0-1.1,0.1-2.2,0.1-3.3c0-2.2,0.2-4.5,0.2-6.8c0-2.3-0.1-4.6-0.1-6.9c-0.2-2.3-0.3-4.7-0.5-7
			c-0.2-2.4-0.6-4.7-0.8-7c-0.4-2.3-0.9-4.7-1.3-7c-0.3-1.1-0.6-2.3-0.9-3.4c-0.3-1.1-0.6-2.3-1-3.4c-0.8-2.2-1.5-4.4-2.5-6.5
			c-0.2-0.5-0.5-1-0.7-1.6l-0.3-0.8l-0.4-0.7c-0.5-1-1.1-2-1.6-2.9c-2.3-3.8-5.1-7.1-8.1-9.9c-3-2.7-6.3-4.8-9.5-6.3
			c-3.2-1.5-6.4-2.4-9.2-2.9c-2.8-0.5-5.4-0.7-7.4-0.8C527.7,185.3,525.4,185.8,525.4,185.7L525.4,185.7z"/>
	</g>
	<g>
		<path fill="#5A4F5B" d="M588.5,325.9c0,0,0.1,0,0.4-0.1c0.2-0.1,0.6-0.2,1.2-0.3c1-0.2,2.5-0.3,4.4-0.2c3.7,0.2,9,1,15.2,2.6
			c6.2,1.6,13.2,3.9,20.6,6.8c7.4,2.9,15.1,6.6,22.4,10.8c3.7,2.1,7.3,4.4,10.6,6.8c3.4,2.4,6.6,5,9.5,7.7c2.9,2.7,5.5,5.5,7.7,8.5
			c2.2,2.9,3.9,5.9,5,8.9c1.2,3,1.8,5.8,2,8.4c0.2,2.6-0.1,4.8-0.4,6.6c-0.2,0.9-0.4,1.7-0.6,2.4c-0.2,0.7-0.4,1.3-0.6,1.7
			c-0.3,0.9-0.5,1.4-0.5,1.4s0.2-0.5,0.5-1.4c0.2-0.5,0.3-1,0.5-1.7c0.2-0.7,0.4-1.5,0.6-2.4c0.3-1.8,0.5-4.1,0.3-6.6
			c-0.2-2.6-0.8-5.4-2-8.4c-1.2-2.9-2.9-5.9-5.1-8.8c-2.2-2.9-4.8-5.7-7.7-8.4c-2.9-2.7-6.1-5.2-9.5-7.6c-3.4-2.4-7-4.6-10.7-6.7
			c-7.3-4.2-15-7.7-22.4-10.6c-7.4-2.9-14.4-5.1-20.6-6.6c-6.1-1.5-11.4-2.3-15-2.4c-1.8-0.1-3.3,0-4.2,0.2
			c-0.4,0.1-0.8,0.2-1.1,0.2c-0.2,0.1-0.4,0.1-0.4,0.1L588.5,325.9z"/>
	</g>
</g>
</svg>
