<?xml version="1.0" encoding="utf-8"?>
<!-- Generator: Adobe Illustrator 18.1.1, SVG Export Plug-In . SVG Version: 6.00 Build 0)  -->
<svg version="1.1" xmlns="http://www.w3.org/2000/svg" xmlns:xlink="http://www.w3.org/1999/xlink" x="0px" y="0px"
	 viewBox="0 0 20.1 17.9" enable-background="new 0 0 20.1 17.9" xml:space="preserve">
<g id="bg__x2B__footer">
</g>
<g id="Layer_1">
	<path fill="none" stroke="#FFFFFF" stroke-miterlimit="10" d="M1.9,2c0,0,0.8,12.1,2,11.3c1.5-1,15.4-1,15.4-1L16.6,0.9
		c0,0,0,0-7.1,0.3C4.8,1.4,1.9,2,1.9,2z"/>
	<path opacity="0.28" fill="none" stroke="#FFFFFF" stroke-width="0.75" stroke-miterlimit="10" d="M3.9,13.3c0,0-3.6,3.9,0.5,3.8
		c3.5-0.1,15-0.5,15-0.5l-0.1-1.3c2.5-0.2-13.8,1.1-14.7,0.3c-0.7-0.6,0.4-1.3,1.6-1.5c3.3-0.7,13.1-0.6,13.1-0.6l0.3-0.9"/>
	<line fill="none" stroke="#FFFFFF" stroke-width="0.25" stroke-miterlimit="10" x1="6.2" y1="15" x2="18.8" y2="14.5"/>
	<path opacity="0.28" fill="none" stroke="#FFFFFF" stroke-miterlimit="10" d="M15.8,6.6c0,0,1.5,3.8,0.3,3.9c-2.9,0.2-7.6,0-7.6,0"
		/>
	<path fill="#FFFFFF" d="M1.9,1.7c0,0-1.2-0.5-1.9,1c0.3,3.7,1.4,13.8,2.1,13.6c0.3-0.1,0.4-1,0.8-1.5c0.5-0.7,1.4-1.1,1.4-1.1
		L1.9,1.7z"/>
</g>
<g id="notes">
</g>
</svg>
