<?xml version="1.0" encoding="utf-8"?>
<!-- Generator: Adobe Illustrator 18.1.1, SVG Export Plug-In . SVG Version: 6.00 Build 0)  -->
<svg version="1.1" id="Layer_1" xmlns="http://www.w3.org/2000/svg" xmlns:xlink="http://www.w3.org/1999/xlink" x="0px" y="0px"
	 viewBox="0 0 25.2 15.9" enable-background="new 0 0 25.2 15.9" xml:space="preserve">
<g>
	<path fill="none" stroke="#D1D3D4" stroke-miterlimit="10" d="M11.8,10.5l3.4-5.1c3.5-0.4,7.4,0,7.4,0l-0.8,4.9L11.8,10.5z"/>
	<polyline fill="none" stroke="#D1D3D4" stroke-width="0.75" stroke-miterlimit="10" points="10.9,11.8 21.6,11.3 21.7,10.4 	"/>
	<path fill="none" stroke="#D1D3D4" stroke-miterlimit="10" d="M10.2,14.2c1.9,0.2,2.2-0.7,2.2-0.7l10.8-1.2l0.6-5.9h-1"/>
	<path fill="none" stroke="#D1D3D4" stroke-miterlimit="10" d="M10.7,10.4l3.6-5.2c-2.7-1.4-5.5-3-5.5-3L4.6,6.5L10.7,10.4z"/>
	<polyline fill="none" stroke="#D1D3D4" stroke-width="0.75" stroke-miterlimit="10" points="10.6,11.7 4.2,7.8 5.1,6.6 	"/>
	<path fill="none" stroke="#D1D3D4" stroke-miterlimit="10" d="M10.2,14.2c-1.3-0.1-1.3-1.4-1.3-1.4L1.8,8.2l4.9-5.4l0.9,0.4"/>
	<line fill="none" stroke="#D1D3D4" stroke-width="0.5" stroke-miterlimit="10" x1="15.9" y1="6.6" x2="20.8" y2="6.3"/>
	<line fill="none" stroke="#D1D3D4" stroke-width="0.5" stroke-miterlimit="10" x1="16.2" y1="7.8" x2="20.8" y2="7.6"/>
	<line fill="none" stroke="#D1D3D4" stroke-width="0.5" stroke-miterlimit="10" x1="9.2" y1="3.7" x2="12" y2="5.4"/>
	<line fill="none" stroke="#D1D3D4" stroke-width="0.5" stroke-miterlimit="10" x1="8.8" y1="5" x2="11.5" y2="6.6"/>
	<line fill="none" stroke="#D1D3D4" stroke-width="0.5" stroke-miterlimit="10" x1="8.1" y1="6.5" x2="10.2" y2="7.9"/>
</g>
</svg>
