<?xml version="1.0" encoding="utf-8"?>
<!-- Generator: Adobe Illustrator 18.1.1, SVG Export Plug-In . SVG Version: 6.00 Build 0)  -->
<svg version="1.1" xmlns="http://www.w3.org/2000/svg" xmlns:xlink="http://www.w3.org/1999/xlink" x="0px" y="0px"
	 viewBox="0 0 24.7 23.3" enable-background="new 0 0 24.7 23.3" xml:space="preserve">
<g id="Layer_1">
	<g>
		<circle fill="none" stroke="#A7A9AC" stroke-miterlimit="10" cx="17.4" cy="10.2" r="4.2"/>
		<g>
			<g>
				<path fill="#A7A9AC" d="M17.7,8.2c0,0,0.1,0,0.3,0c0.2,0,0.5,0.1,0.8,0.2c0.7,0.2,1.7,0.8,2.3,1.8c0.3,0.5,0.6,1.2,0.7,1.9
					c0,0.4,0,0.8,0,1.1c-0.1,0.4-0.2,0.8-0.4,1.2c-0.4,0.8-0.9,1.4-1.7,1.9c-0.8,0.5-1.7,0.7-2.6,0.6c-0.4,0-0.9-0.1-1.3-0.3
					c-0.4-0.2-0.8-0.4-1.2-0.7c-0.7-0.6-1.2-1.3-1.4-2.1c-0.5-1.6,0-3.2,0.8-4.2c0.8-1,1.9-1.4,2.6-1.5c0.4-0.1,0.6-0.1,0.8-0.1
					C17.6,8.2,17.7,8.2,17.7,8.2z M17.7,8.2c0,0-0.1,0-0.3,0c-0.2,0-0.5,0-0.8,0.1c-0.7,0.1-1.7,0.6-2.4,1.6
					c-0.3,0.5-0.6,1.1-0.7,1.8c-0.1,0.7,0,1.4,0.3,2.1c0.3,0.7,0.8,1.3,1.4,1.7c0.3,0.2,0.6,0.4,1,0.5c0.4,0.1,0.7,0.2,1.1,0.2
					c0.7,0.1,1.5-0.1,2.2-0.5c0.7-0.4,1.2-0.9,1.6-1.5c0.2-0.3,0.3-0.7,0.4-1c0.1-0.2,0.1-0.4,0.1-0.5c0-0.2,0-0.3,0-0.5
					c0-0.7-0.2-1.3-0.5-1.9c-0.6-1.1-1.5-1.7-2.2-1.9c-0.3-0.1-0.6-0.2-0.8-0.2C17.8,8.2,17.7,8.2,17.7,8.2z"/>
			</g>
		</g>
		<g>
			<g>
				<path fill="#A7A9AC" d="M17.7,13.2c0,0,0.1,0,0.3,0c0.2,0,0.5,0.1,0.8,0.2c0.7,0.2,1.7,0.8,2.3,1.8c0.3,0.5,0.6,1.2,0.7,1.9
					c0,0.4,0,0.8,0,1.1c-0.1,0.4-0.2,0.8-0.4,1.2c-0.4,0.8-0.9,1.4-1.7,1.9c-0.8,0.5-1.7,0.7-2.6,0.6c-0.9-0.1-1.8-0.4-2.5-1
					c-0.7-0.6-1.2-1.3-1.4-2.1c-0.5-1.6,0-3.2,0.8-4.2c0.8-1,1.9-1.4,2.6-1.5c0.4-0.1,0.6-0.1,0.8-0.1
					C17.6,13.2,17.7,13.2,17.7,13.2z M17.7,13.2c0,0-0.1,0-0.3,0c-0.2,0-0.5,0-0.8,0.1c-0.7,0.1-1.7,0.6-2.4,1.6
					c-0.3,0.5-0.6,1.1-0.7,1.8c-0.1,0.7,0,1.4,0.3,2.1c0.3,0.7,0.8,1.3,1.4,1.7c0.6,0.4,1.3,0.7,2.1,0.8c0.8,0.1,1.5-0.1,2.2-0.5
					c0.7-0.4,1.2-0.9,1.6-1.5c0.2-0.3,0.3-0.7,0.4-1c0.1-0.2,0.1-0.4,0.1-0.5c0-0.2,0-0.3,0-0.5c0-0.7-0.2-1.3-0.5-1.9
					c-0.6-1.1-1.5-1.7-2.2-1.9c-0.3-0.1-0.6-0.2-0.8-0.2C17.8,13.2,17.7,13.2,17.7,13.2z"/>
			</g>
		</g>
		<g>
			<g>
				<path fill="#A7A9AC" d="M17.7,1.7c0,0,0.1,0,0.3,0c0.2,0,0.5,0.1,0.8,0.2c0.7,0.2,1.7,0.8,2.3,1.8c0.3,0.5,0.6,1.2,0.7,1.9
					c0,0.4,0,0.8,0,1.1c-0.1,0.4-0.2,0.8-0.4,1.2c-0.4,0.8-0.9,1.4-1.7,1.9c-0.8,0.5-1.7,0.7-2.6,0.6c-0.4,0-0.9-0.1-1.3-0.3
					c-0.4-0.2-0.8-0.4-1.2-0.7c-0.7-0.6-1.2-1.3-1.4-2.1c-0.5-1.6,0-3.2,0.8-4.2c0.8-1,1.9-1.4,2.6-1.5c0.4-0.1,0.6-0.1,0.8-0.1
					C17.6,1.7,17.7,1.7,17.7,1.7z M17.7,1.7c0,0-0.1,0-0.3,0c-0.2,0-0.5,0-0.8,0.1c-0.7,0.1-1.7,0.6-2.4,1.6
					c-0.3,0.5-0.6,1.1-0.7,1.8c-0.1,0.7,0,1.4,0.3,2.1C13.9,8,14.4,8.6,15,9c0.3,0.2,0.6,0.4,1,0.5c0.4,0.1,0.7,0.2,1.1,0.2
					c0.7,0.1,1.5-0.1,2.2-0.5c0.7-0.4,1.2-0.9,1.6-1.5c0.2-0.3,0.3-0.7,0.4-1c0.1-0.2,0.1-0.4,0.1-0.5c0-0.2,0-0.3,0-0.5
					c0-0.7-0.2-1.3-0.5-1.9c-0.6-1.1-1.5-1.7-2.2-1.9c-0.3-0.1-0.6-0.2-0.8-0.2C17.8,1.7,17.7,1.7,17.7,1.7z"/>
			</g>
		</g>
		<line fill="none" stroke="#A7A9AC" stroke-width="0.25" stroke-miterlimit="10" x1="3.7" y1="3.7" x2="6.6" y2="3.7"/>
		<line fill="none" stroke="#A7A9AC" stroke-width="0.25" stroke-miterlimit="10" x1="5.2" y1="3.7" x2="5.2" y2="20.7"/>
		<line fill="none" stroke="#A7A9AC" stroke-width="0.25" stroke-miterlimit="10" x1="3.7" y1="20.7" x2="6.6" y2="20.7"/>
		<line fill="none" stroke="#A7A9AC" stroke-width="0.25" stroke-miterlimit="10" x1="4.1" y1="8.5" x2="6" y2="8.5"/>
		<line fill="none" stroke="#A7A9AC" stroke-width="0.25" stroke-miterlimit="10" x1="4.1" y1="12.7" x2="6" y2="12.7"/>
	</g>
</g>
<g id="notes" display="none">
</g>
</svg>
