<?xml version="1.0" encoding="utf-8"?>
<!-- Generator: Adobe Illustrator 18.1.1, SVG Export Plug-In . SVG Version: 6.00 Build 0)  -->
<svg version="1.1" id="Layer_1" xmlns="http://www.w3.org/2000/svg" xmlns:xlink="http://www.w3.org/1999/xlink" x="0px" y="0px"
	 viewBox="0 0 21.2 22.3" enable-background="new 0 0 21.2 22.3" xml:space="preserve">
<circle fill="none" stroke="#D1D3D4" stroke-miterlimit="10" cx="15.4" cy="9.7" r="4.2"/>
<g>
	<path fill="#D1D3D4" d="M15.7,7.7c0,0,0.1,0,0.3,0c0.2,0,0.5,0.1,0.8,0.2c0.7,0.2,1.7,0.8,2.3,1.8c0.3,0.5,0.6,1.2,0.7,1.9
		c0,0.4,0,0.8,0,1.1c-0.1,0.4-0.2,0.8-0.4,1.2c-0.4,0.8-0.9,1.4-1.7,1.9c-0.8,0.5-1.7,0.7-2.6,0.6c-0.9-0.1-1.8-0.4-2.5-1
		c-0.7-0.6-1.2-1.3-1.4-2.1c-0.5-1.6,0-3.2,0.8-4.2c0.8-1,1.9-1.4,2.6-1.5c0.4-0.1,0.6-0.1,0.8-0.1C15.6,7.7,15.7,7.7,15.7,7.7z
		 M15.7,7.7c0,0-0.1,0-0.3,0c-0.2,0-0.5,0-0.8,0.1c-0.7,0.1-1.7,0.6-2.4,1.6c-0.3,0.5-0.6,1.1-0.7,1.8c-0.1,0.7,0,1.4,0.3,2.1
		c0.3,0.7,0.8,1.3,1.4,1.7c0.6,0.4,1.3,0.7,2.1,0.8c0.8,0.1,1.5-0.1,2.2-0.5c0.7-0.4,1.2-0.9,1.6-1.5c0.2-0.3,0.3-0.7,0.4-1
		c0.1-0.2,0.1-0.4,0.1-0.5c0-0.2,0-0.3,0-0.5c0-0.7-0.2-1.3-0.5-1.9c-0.6-1.1-1.5-1.7-2.2-1.9c-0.3-0.1-0.6-0.2-0.8-0.2
		C15.8,7.7,15.7,7.7,15.7,7.7z"/>
</g>
<g>
	<path fill="#D1D3D4" d="M15.7,12.7c0,0,0.1,0,0.3,0c0.2,0,0.5,0.1,0.8,0.2c0.7,0.2,1.6,0.8,2.3,1.9c0.3,0.5,0.6,1.2,0.6,1.9
		c0.1,0.7-0.1,1.5-0.4,2.3c-0.4,0.7-0.9,1.4-1.7,1.8c-0.8,0.4-1.6,0.7-2.5,0.6c-0.8-0.1-1.7-0.4-2.4-0.9c-0.7-0.5-1.2-1.3-1.4-2
		c-0.5-1.6-0.1-3.2,0.7-4.1c0.8-1,1.8-1.4,2.5-1.5c0.4-0.1,0.6-0.1,0.8-0.1C15.6,12.7,15.7,12.7,15.7,12.7z M15.7,12.7
		c0,0-0.1,0-0.3,0c-0.2,0-0.5,0-0.8,0.1c-0.7,0.1-1.7,0.6-2.5,1.6c-0.4,0.5-0.6,1.1-0.7,1.8c-0.1,0.7,0,1.4,0.2,2.1
		c0.3,0.7,0.8,1.3,1.4,1.8c0.6,0.5,1.4,0.7,2.2,0.8c0.8,0.1,1.6-0.1,2.2-0.5c0.7-0.4,1.2-0.9,1.6-1.6c0.4-0.6,0.5-1.4,0.5-2.1
		c0-0.7-0.2-1.4-0.5-1.9c-0.6-1.1-1.6-1.7-2.2-1.9c-0.3-0.1-0.6-0.2-0.8-0.2C15.8,12.7,15.7,12.7,15.7,12.7z"/>
</g>
<g>
	<path fill="#D1D3D4" d="M15.7,1.2c0,0,0.1,0,0.3,0c0.2,0,0.5,0.1,0.8,0.2c0.7,0.2,1.7,0.8,2.3,1.8c0.3,0.5,0.6,1.2,0.7,1.9
		c0,0.4,0,0.8,0,1.1c-0.1,0.4-0.2,0.8-0.4,1.2c-0.4,0.8-0.9,1.4-1.7,1.9c-0.8,0.5-1.7,0.7-2.6,0.6c-0.4,0-0.9-0.1-1.3-0.3
		c-0.4-0.2-0.8-0.4-1.2-0.7c-0.7-0.6-1.2-1.3-1.4-2.1c-0.5-1.6,0-3.2,0.8-4.2c0.8-1,1.9-1.4,2.6-1.5c0.4-0.1,0.6-0.1,0.8-0.1
		C15.6,1.2,15.7,1.2,15.7,1.2z M15.7,1.2c0,0-0.1,0-0.3,0c-0.2,0-0.5,0-0.8,0.1c-0.7,0.1-1.7,0.6-2.4,1.6c-0.3,0.5-0.6,1.1-0.7,1.8
		c-0.1,0.7,0,1.4,0.3,2.1c0.3,0.7,0.8,1.3,1.4,1.7c0.3,0.2,0.6,0.4,1,0.5c0.4,0.1,0.7,0.2,1.1,0.2c0.7,0.1,1.5-0.1,2.2-0.5
		c0.7-0.4,1.2-0.9,1.6-1.5c0.2-0.3,0.3-0.7,0.4-1c0.1-0.2,0.1-0.4,0.1-0.5c0-0.2,0-0.3,0-0.5c0-0.7-0.2-1.3-0.5-1.9
		c-0.6-1.1-1.5-1.7-2.2-1.9c-0.3-0.1-0.6-0.2-0.8-0.2C15.8,1.2,15.7,1.2,15.7,1.2z"/>
</g>
<line fill="none" stroke="#D1D3D4" stroke-width="0.25" stroke-miterlimit="10" x1="1.7" y1="4.2" x2="4.6" y2="4.2"/>
<line fill="none" stroke="#D1D3D4" stroke-width="0.25" stroke-miterlimit="10" x1="3.2" y1="4.2" x2="3.2" y2="21.1"/>
<line fill="none" stroke="#D1D3D4" stroke-width="0.25" stroke-miterlimit="10" x1="1.7" y1="21.1" x2="4.6" y2="21.1"/>
<line fill="none" stroke="#D1D3D4" stroke-width="0.25" stroke-miterlimit="10" x1="2.1" y1="8.9" x2="4" y2="8.9"/>
<line fill="none" stroke="#D1D3D4" stroke-width="0.25" stroke-miterlimit="10" x1="2.1" y1="13.2" x2="4" y2="13.2"/>
</svg>
