<?xml version="1.0" encoding="utf-8"?>
<!-- Generator: Adobe Illustrator 18.1.1, SVG Export Plug-In . SVG Version: 6.00 Build 0)  -->
<svg version="1.1" id="Layer_1" xmlns="http://www.w3.org/2000/svg" xmlns:xlink="http://www.w3.org/1999/xlink" x="0px" y="0px"
	 viewBox="0 0 10.7 22.3" enable-background="new 0 0 10.7 22.3" xml:space="preserve">
<circle fill="none" stroke="#D1D3D4" stroke-miterlimit="10" cx="3.7" cy="10" r="2.4"/>
<line fill="none" stroke="#D1D3D4" stroke-width="0.5" stroke-miterlimit="10" x1="2.9" y1="7.7" x2="4.3" y2="12.2"/>
<line fill="none" stroke="#D1D3D4" stroke-width="0.5" stroke-miterlimit="10" x1="1.5" y1="10.9" x2="6" y2="9.4"/>
<path fill="none" stroke="#D1D3D4" stroke-width="0.5" stroke-miterlimit="10" d="M2.8,13.4L5,12.8c0.6-0.2,1.2,0.1,1.4,0.7l3,7.5
	L2.8,13.4z"/>
<line fill="none" stroke="#D1D3D4" stroke-width="0.25" stroke-miterlimit="10" x1="5" y1="12.8" x2="9.1" y2="20.7"/>
<path fill="none" stroke="#D1D3D4" stroke-width="0.5" stroke-miterlimit="10" d="M3.5,6.2L8,1.8L5.3,6c-0.2,0.3-0.6,0.5-1,0.4
	L3.5,6.2z"/>
<g>
	<path fill="#D1D3D4" d="M9.1,2.7c0,0,0.1,0.9,0.2,2.3c0.1,1.4,0.2,3.2,0.2,5c0,1.8,0,3.6,0,5c0,1.4-0.1,2.3-0.1,2.3
		s-0.1-0.9-0.2-2.3C9.1,13.6,9,11.8,9,10c0-1.8,0-3.6,0-5C9.1,3.6,9.1,2.7,9.1,2.7z"/>
</g>
</svg>
