<?xml version="1.0" encoding="utf-8"?>
<!-- Generator: Adobe Illustrator 18.1.1, SVG Export Plug-In . SVG Version: 6.00 Build 0)  -->
<svg version="1.1" xmlns="http://www.w3.org/2000/svg" xmlns:xlink="http://www.w3.org/1999/xlink" x="0px" y="0px"
	 viewBox="0 0 14.7 21.3" enable-background="new 0 0 14.7 21.3" xml:space="preserve">
<g id="Layer_1">
	<g>
		<path fill="none" stroke="#A7A9AC" stroke-miterlimit="10" d="M7.4,19.6L7.4,19.6c-1.9,0-3.4-1.5-3.4-3.4v-2.9
			c0-1.9,1.5-3.4,3.4-3.4h0c1.9,0,3.4,1.5,3.4,3.4v2.9C10.8,18.1,9.3,19.6,7.4,19.6z"/>
		<g>
			<path fill="#A7A9AC" d="M8.4,10.9c0,0-0.2-0.1-0.5-0.3c-0.1-0.1-0.4-0.3-0.5-0.4c-0.1-0.1-0.2-0.2-0.3-0.3C7,9.8,7,9.6,6.9,9.5
				C6.8,8.8,6.9,7.9,7.3,7.2c0.2-0.4,0.5-0.7,0.8-1c0.3-0.3,0.8-0.5,1-0.6C9.4,5.5,9.6,5.3,9.7,5c0.1-0.2,0.2-0.6,0.2-0.9l0-0.1
				c0,0,0-0.1,0-0.1c0-0.1,0-0.2,0-0.2c0-0.1-0.1-0.2-0.1-0.4C9.6,3.1,9.5,2.9,9.3,2.7C9.3,2.5,9.1,2.5,9.1,2.4C9.1,2.2,9,2.1,9,2
				C8.8,1.8,8.8,1.6,8.7,1.5C8.5,1.2,8.4,1,8.4,1s0.2,0.1,0.5,0.2c0.2,0.1,0.4,0.2,0.6,0.3c0.1,0.1,0.2,0.1,0.3,0.2
				C10,1.8,10,2,10.1,2.1c0.2,0.3,0.4,0.5,0.5,0.9c0.1,0.2,0.1,0.4,0.2,0.6c0,0.1,0,0.2,0,0.3c0,0.1,0,0,0,0.2l0,0.1
				c0,0.4-0.1,0.8-0.2,1.3c-0.2,0.4-0.6,0.8-0.9,1C9.3,6.7,9,6.8,8.8,7C8.5,7.2,8.3,7.5,8.2,7.7C7.9,8.2,7.8,8.8,7.9,9.2
				C7.9,9.4,8,9.4,8,9.6c0,0.1,0,0.2,0,0.3c0.1,0.2,0.1,0.4,0.2,0.6C8.3,10.8,8.4,10.9,8.4,10.9z"/>
		</g>
		<line fill="none" stroke="#A7A9AC" stroke-miterlimit="10" x1="4" y1="13.3" x2="10.8" y2="13.3"/>
		<line fill="none" stroke="#A7A9AC" stroke-miterlimit="10" x1="7.9" y1="9.9" x2="7.9" y2="13.3"/>
	</g>
</g>
<g id="notes" display="none">
</g>
</svg>
