<?xml version="1.0" encoding="utf-8"?>
<!-- Generator: Adobe Illustrator 18.1.1, SVG Export Plug-In . SVG Version: 6.00 Build 0)  -->
<svg version="1.1" id="Layer_1" xmlns="http://www.w3.org/2000/svg" xmlns:xlink="http://www.w3.org/1999/xlink" x="0px" y="0px"
	 viewBox="0 0 9.2 20.1" enable-background="new 0 0 9.2 20.1" xml:space="preserve">
<g>
	<path fill="none" stroke="#D1D3D4" stroke-miterlimit="10" d="M4.3,18.6L4.3,18.6c-1.9,0-3.4-1.5-3.4-3.4l0-2.9
		c0-1.9,1.5-3.4,3.4-3.4h0c1.9,0,3.4,1.5,3.4,3.4v2.9C7.6,17.1,6.1,18.6,4.3,18.6z"/>
	<g>
		<path fill="#D1D3D4" d="M5.3,9.9c0,0-0.2-0.1-0.5-0.3C4.6,9.6,4.5,9.4,4.3,9.2C4.2,9.1,4.1,9,4,8.9C4,8.7,3.9,8.6,3.9,8.4
			C3.8,7.8,3.9,7,4.3,6.3c0.2-0.3,0.5-0.7,0.8-0.9c0.3-0.3,0.8-0.5,1-0.6c0.3-0.2,0.5-0.4,0.6-0.7c0.1-0.3,0.2-0.6,0.2-0.9l0-0.1
			c0,0,0-0.1,0-0.1c0-0.1,0-0.2,0-0.2c0-0.1-0.1-0.3-0.1-0.4C6.6,2,6.4,1.8,6.3,1.6C6.1,1.4,6,1.2,5.9,1C5.8,0.8,5.6,0.6,5.6,0.4
			C5.4,0.2,5.3,0,5.3,0s0.2,0.1,0.5,0.2c0.2,0.1,0.3,0.2,0.5,0.3c0.2,0.1,0.4,0.3,0.6,0.6C7.1,1.4,7.2,1.7,7.4,2
			c0.1,0.2,0.1,0.3,0.2,0.6c0,0.1,0,0.2,0,0.3c0,0.1,0,0.1,0,0.2l0,0.1c0,0.4-0.1,0.8-0.2,1.2c-0.2,0.4-0.5,0.8-0.9,1
			C6.1,5.6,5.8,5.7,5.5,5.9C5.3,6.1,5.1,6.4,4.9,6.7C4.6,7.2,4.5,7.8,4.6,8.3c0,0.1,0.1,0.2,0.1,0.3c0,0.1,0,0.2,0.1,0.3
			C4.9,9.1,4.9,9.3,5,9.5C5.1,9.8,5.3,9.9,5.3,9.9z"/>
	</g>
	<line fill="none" stroke="#D1D3D4" stroke-miterlimit="10" x1="0.9" y1="12.3" x2="7.6" y2="12.3"/>
	<line fill="none" stroke="#D1D3D4" stroke-miterlimit="10" x1="4.7" y1="8.9" x2="4.7" y2="12.3"/>
</g>
</svg>
