<?xml version="1.0" encoding="utf-8"?>
<!-- Generator: Adobe Illustrator 18.1.1, SVG Export Plug-In . SVG Version: 6.00 Build 0)  -->
<svg version="1.1" id="Layer_1" xmlns="http://www.w3.org/2000/svg" xmlns:xlink="http://www.w3.org/1999/xlink" x="0px" y="0px"
	 viewBox="0 0 15.2 20.8" enable-background="new 0 0 15.2 20.8" xml:space="preserve">
<path fill="none" stroke="#D1D3D4" stroke-width="0.75" stroke-miterlimit="10" d="M14.5,8c0-3.8-3.1-6.9-6.9-6.9S0.7,4.2,0.7,8
	c0,2.4,1.2,4.5,3,5.8c0.5,0.4,1.1,1.4,1.7,2.4c-0.2,0.1-0.3,0.2-0.3,0.3c0,0.2,0.3,0.7,0.9,0.8c0.1,0.1,0.2-0.1,0.3,0
	c-0.7,0.1-1.1,0.3-1.1,0.6c0,0.4,1.2,0.7,2.6,0.7s2.6-0.3,2.6-0.7c0-0.2-0.5-0.5-1.2-0.6c0.1-0.1,0.1,0.1,0.1,0
	c0.6-0.1,1.1-0.6,1.1-0.8c0-0.1-0.1-0.2-0.3-0.3c0.8-1.1,1.5-2.4,2.1-2.9C13.6,12,14.5,10.1,14.5,8z"/>
<line fill="none" stroke="#D1D3D4" stroke-width="0.75" stroke-miterlimit="10" x1="6.3" y1="17.3" x2="9.2" y2="17.3"/>
<line fill="none" stroke="#D1D3D4" stroke-width="0.75" stroke-miterlimit="10" x1="5.5" y1="16.2" x2="10.1" y2="16.2"/>
<path fill="none" stroke="#D1D3D4" stroke-width="0.75" stroke-miterlimit="10" d="M8.8,18.6v0.2c0,0.6-0.5,1.1-1.1,1.1h0
	c-0.6,0-1.1-0.5-1.1-1.1v-0.2"/>
<path fill="none" stroke="#D1D3D4" stroke-width="0.5" stroke-miterlimit="10" d="M7.2,16.2c-1.2-2-0.2-3,0.7-3s1.3,0.7,0.6,1.2
	c-0.7,0.5-2.1-1.3-0.9-2.6"/>
</svg>
