<?xml version="1.0" encoding="utf-8"?>
<!-- Generator: Adobe Illustrator 18.1.1, SVG Export Plug-In . SVG Version: 6.00 Build 0)  -->
<svg version="1.1" xmlns="http://www.w3.org/2000/svg" xmlns:xlink="http://www.w3.org/1999/xlink" x="0px" y="0px"
	 viewBox="0 0 19.3 21.7" enable-background="new 0 0 19.3 21.7" xml:space="preserve">
<g id="Layer_1">
	<path fill="none" stroke="#A7A9AC" stroke-miterlimit="10" d="M16.4,7.9c0-3.8-3.1-6.9-6.9-6.9S2.6,4.1,2.6,7.9
		c0,2.4,1.2,4.5,3,5.8c0.5,0.4,1.1,1.4,1.7,2.4C7.2,16.2,7,16.3,7,16.4c0,0.2,0.3,0.7,0.9,0.8c0.1,0.1,0.2-0.1,0.3,0
		C7.5,17.3,7,17.5,7,17.8c0,0.4,1.2,0.7,2.6,0.7s2.6-0.3,2.6-0.7c0-0.2-0.5-0.5-1.2-0.6c0.1-0.1,0.1,0.1,0.1,0
		c0.6-0.1,1.1-0.6,1.1-0.8c0-0.1-0.1-0.2-0.3-0.3c0.8-1.1,1.5-2.4,2.1-2.9C15.5,11.9,16.4,10,16.4,7.9z"/>
	<line fill="none" stroke="#A7A9AC" stroke-miterlimit="10" x1="8.2" y1="17.2" x2="11.1" y2="17.2"/>
	<line fill="none" stroke="#A7A9AC" stroke-miterlimit="10" x1="7.4" y1="16.1" x2="12" y2="16.1"/>
	<path fill="none" stroke="#A7A9AC" stroke-miterlimit="10" d="M10.7,18.5v0.2c0,0.6-0.5,1.1-1.1,1.1h0c-0.6,0-1.1-0.5-1.1-1.1v-0.2
		"/>
	<path fill="none" stroke="#A7A9AC" stroke-width="0.75" stroke-miterlimit="10" d="M9.1,16.1c-1.2-2-0.2-3,0.7-3
		c0.9,0,1.3,0.7,0.6,1.2s-2.1-1.3-0.9-2.6"/>
</g>
<g id="notes" display="none">
</g>
</svg>
