<?xml version="1.0" encoding="utf-8"?>
<!-- Generator: Adobe Illustrator 18.1.1, SVG Export Plug-In . SVG Version: 6.00 Build 0)  -->
<svg version="1.1" id="Layer_1" xmlns="http://www.w3.org/2000/svg" xmlns:xlink="http://www.w3.org/1999/xlink" x="0px" y="0px"
	 viewBox="0 0 21.3 20.7" enable-background="new 0 0 21.3 20.7" xml:space="preserve">
<path fill="none" stroke="#D1D3D4" stroke-miterlimit="10" d="M4.2,16.6l0.3,2.1c0.4,0.7,1.4,0.9,2,0.4l6.9-3.4c0,0,4.2-1.4,4.5-6
	C18.1,5.1,15,1.7,9.3,3C3.7,1.6-1,9.2,3.5,15C3.9,15.5,4.1,16,4.2,16.6z"/>
<path fill="none" stroke="#D1D3D4" stroke-width="0.75" stroke-miterlimit="10" d="M14.7,3.4l4-2.4c0.4-0.3,1,0.1,0.9,0.6l-1.8,7.1"
	/>
<path fill="none" stroke="#D1D3D4" stroke-width="0.75" stroke-miterlimit="10" d="M5.5,3.4L2.8,1.2c-0.4-0.3-1,0-0.9,0.5l0.6,4.9"
	/>
<path fill="none" stroke="#D1D3D4" stroke-width="0.75" stroke-miterlimit="10" d="M3.6,4.9l1.2,6.5c0.5,1.4,2.2,1.8,3.3,0.7
	l8.5-7.5"/>
</svg>
