<?xml version="1.0" encoding="utf-8"?>
<!-- Generator: Adobe Illustrator 18.1.1, SVG Export Plug-In . SVG Version: 6.00 Build 0)  -->
<svg version="1.1" id="Layer_1" xmlns="http://www.w3.org/2000/svg" xmlns:xlink="http://www.w3.org/1999/xlink" x="0px" y="0px"
	 viewBox="0 0 19.7 14.2" enable-background="new 0 0 19.7 14.2" xml:space="preserve">
<path fill="none" stroke="#D1D3D4" stroke-miterlimit="10" d="M17,13.2H2.5c-0.8,0-1.5-0.7-1.5-1.5V2.5c0-0.8,0.7-1.5,1.5-1.5H17
	c0.8,0,1.5,0.7,1.5,1.5v9.1C18.5,12.5,17.8,13.2,17,13.2z"/>
<rect x="3" y="2.8" fill="none" stroke="#D1D3D4" stroke-width="0.5" stroke-miterlimit="10" width="13.5" height="8.5"/>
<g>
	<path fill="#D1D3D4" d="M3,8.6c0.3-0.3,0.7-0.6,1.1-0.8c0.4-0.2,0.8-0.4,1.3-0.5c0.1,0,0.3,0,0.4,0c0.1,0,0.2,0,0.4,0
		c0.2,0,0.5,0.1,0.7,0.2c0.5,0.1,0.9,0.3,1.3,0.6l-0.4,0c1.2-1.3,2.4-2.6,3.6-3.9L11.6,4l0.2,0.2c0.8,0.7,1.6,1.3,2.4,2
		c0.8,0.7,1.6,1.4,2.3,2.1c-0.9-0.6-1.7-1.1-2.6-1.8c-0.8-0.6-1.7-1.2-2.5-1.8l0.5,0C10.7,6,9.5,7.4,8.2,8.6L8,8.8L7.8,8.7
		C7.5,8.4,7.1,8.2,6.7,8C6.5,8,6.3,7.9,6.1,7.9c-0.1,0-0.2,0-0.3-0.1c-0.1,0-0.2,0-0.3,0C4.6,7.8,3.8,8.2,3,8.6z"/>
</g>
<circle fill="none" stroke="#D1D3D4" stroke-width="0.25" stroke-miterlimit="10" cx="5" cy="4.8" r="0.7"/>
</svg>
