<?xml version="1.0" encoding="utf-8"?>
<!-- Generator: Adobe Illustrator 18.1.1, SVG Export Plug-In . SVG Version: 6.00 Build 0)  -->
<svg version="1.1" xmlns="http://www.w3.org/2000/svg" xmlns:xlink="http://www.w3.org/1999/xlink" x="0px" y="0px"
	 viewBox="0 0 26.1 14.3" enable-background="new 0 0 26.1 14.3" xml:space="preserve">
<g id="Layer_1">
	<path fill="none" stroke="#A7A9AC" stroke-miterlimit="10" d="M20.3,13.3H5.8c-0.8,0-1.5-0.7-1.5-1.5V2.6c0-0.8,0.7-1.5,1.5-1.5
		h14.4c0.8,0,1.5,0.7,1.5,1.5v9.1C21.8,12.6,21.1,13.3,20.3,13.3z"/>
	<rect x="6.3" y="2.9" fill="none" stroke="#A7A9AC" stroke-width="0.75" stroke-miterlimit="10" width="13.5" height="8.5"/>
	<g>
		<path fill="#A7A9AC" d="M6.3,8.8C6.6,8.4,7,8.2,7.4,7.9c0.4-0.2,0.8-0.4,1.3-0.5c0.1,0,0.3,0,0.4,0c0.1,0,0.2,0,0.4,0
			c0.2,0,0.5,0.1,0.7,0.2c0.2,0.1,0.5,0.2,0.7,0.3c0.2,0.1,0.4,0.2,0.7,0.4L11,8.2c1.2-1.4,2.4-2.7,3.6-3.9L14.9,4l0.3,0.3
			c0.8,0.7,1.6,1.3,2.4,2.1C18,6.7,18.4,7,18.7,7.4c0.4,0.4,0.8,0.7,1.1,1.1c-0.5-0.3-0.9-0.5-1.3-0.8c-0.4-0.3-0.9-0.6-1.3-0.9
			c-0.9-0.6-1.7-1.2-2.5-1.8l0.6,0c-1.2,1.3-2.4,2.6-3.6,3.9l-0.3,0.3l-0.3-0.2c-0.1-0.1-0.3-0.2-0.5-0.3c-0.2-0.1-0.4-0.2-0.6-0.3
			C9.8,8.2,9.6,8.1,9.4,8.1C9.3,8.1,9.2,8,9.1,8C9,8,8.9,8,8.8,8C8,8,7.1,8.4,6.3,8.8z"/>
	</g>
	<circle fill="none" stroke="#A7A9AC" stroke-width="0.5" stroke-miterlimit="10" cx="8.4" cy="4.9" r="0.7"/>
</g>
<g id="notes" display="none">
</g>
</svg>
