<?xml version="1.0" encoding="utf-8"?>
<!-- Generator: Adobe Illustrator 18.1.1, SVG Export Plug-In . SVG Version: 6.00 Build 0)  -->
<svg version="1.1" id="Layer_1" xmlns="http://www.w3.org/2000/svg" xmlns:xlink="http://www.w3.org/1999/xlink" x="0px" y="0px"
	 viewBox="0 0 27.2 20.7" enable-background="new 0 0 27.2 20.7" xml:space="preserve">
<path fill="none" stroke="#D1D3D4" stroke-miterlimit="10" d="M2.3,16.5l-1.5,3.3c-0.1,0.1,0,0.3,0.2,0.3l3.8-0.5l19.2-14l1-0.7
	l1-0.8c0.1-0.3,0.1-0.6-0.1-0.8l-1.6-2c-0.2-0.2-0.4-0.2-0.7-0.1l-1.2,0.8l-1.5,1.1L2.3,16.5z"/>
<polyline fill="none" stroke="#D1D3D4" stroke-width="0.75" stroke-miterlimit="10" points="2.3,16.5 3.7,16.5 3.7,17.6 5.1,17.6 
	4.7,19.6 "/>
<line fill="none" stroke="#D1D3D4" stroke-width="0.5" stroke-miterlimit="10" x1="21.4" y1="2.9" x2="23.9" y2="5.6"/>
<line fill="none" stroke="#D1D3D4" stroke-width="0.5" stroke-miterlimit="10" x1="20.9" y1="3.2" x2="23.4" y2="6"/>
<line fill="none" stroke="#D1D3D4" stroke-width="0.5" stroke-miterlimit="10" x1="1.8" y1="18.3" x2="2.6" y2="19.9"/>
<g>
	<path fill="#D1D3D4" d="M5.1,16.1c0,0,0.9-0.7,2.3-1.8c0.7-0.5,1.5-1.2,2.4-1.8c0.9-0.6,1.8-1.3,2.8-2c1-0.7,1.9-1.3,2.8-2
		c0.9-0.6,1.8-1.2,2.5-1.7c1.5-1,2.5-1.6,2.5-1.6S19.5,5.9,18.1,7c-0.7,0.5-1.5,1.2-2.4,1.8c-0.9,0.6-1.8,1.3-2.8,2
		c-1,0.7-1.9,1.3-2.8,2c-0.9,0.6-1.8,1.2-2.5,1.7C6.1,15.4,5.1,16.1,5.1,16.1z"/>
</g>
<g>
	<path fill="#D1D3D4" d="M6.1,16.5c0,0,0.9-0.7,2.3-1.8c0.7-0.5,1.5-1.2,2.4-1.8c0.9-0.6,1.8-1.3,2.8-2c1-0.7,1.9-1.3,2.8-2
		c0.9-0.6,1.8-1.2,2.5-1.7c1.5-1,2.5-1.6,2.5-1.6s-0.9,0.7-2.3,1.8c-0.7,0.5-1.5,1.2-2.4,1.8c-0.9,0.6-1.8,1.3-2.8,2
		c-1,0.7-1.9,1.3-2.8,2c-0.9,0.6-1.8,1.2-2.5,1.7C7.1,15.9,6.1,16.5,6.1,16.5z"/>
</g>
</svg>
