<?xml version="1.0" encoding="utf-8"?>
<!-- Generator: Adobe Illustrator 18.1.1, SVG Export Plug-In . SVG Version: 6.00 Build 0)  -->
<svg version="1.1" id="Layer_1" xmlns="http://www.w3.org/2000/svg" xmlns:xlink="http://www.w3.org/1999/xlink" x="0px" y="0px"
	 viewBox="0 0 13.4 22.9" enable-background="new 0 0 13.4 22.9" xml:space="preserve">
<rect x="3" y="9.4" fill="none" stroke="#D1D3D4" stroke-miterlimit="10" width="7.2" height="10.2"/>
<polygon fill="none" stroke="#D1D3D4" stroke-miterlimit="10" points="11.6,21.8 1.3,21.8 2.2,19.7 11,19.7 "/>
<path fill="none" stroke="#D1D3D4" stroke-miterlimit="10" d="M10.6,7.8c0-2.3-1.8-4.2-4-4.2s-4,1.9-4,4.2"/>
<path fill="none" stroke="#D1D3D4" stroke-miterlimit="10" d="M2.2,7.2"/>
<rect x="2.1" y="7.8" fill="none" stroke="#D1D3D4" stroke-miterlimit="10" width="9.1" height="1.4"/>
<ellipse fill="none" stroke="#D1D3D4" stroke-width="0.75" stroke-miterlimit="10" cx="5.7" cy="13.4" rx="1.8" ry="1.7"/>
<line fill="none" stroke="#D1D3D4" stroke-width="0.5" stroke-miterlimit="10" x1="6.7" y1="10.7" x2="6.7" y2="12.2"/>
<line fill="none" stroke="#D1D3D4" stroke-width="0.5" stroke-miterlimit="10" x1="8.7" y1="10.8" x2="8.7" y2="18.3"/>
<line fill="none" stroke="#D1D3D4" stroke-width="0.5" stroke-miterlimit="10" x1="4.6" y1="10.8" x2="4.6" y2="12.3"/>
<line fill="none" stroke="#D1D3D4" stroke-width="0.5" stroke-miterlimit="10" x1="6.6" y1="15.1" x2="6.6" y2="18.2"/>
<line fill="none" stroke="#D1D3D4" stroke-width="0.5" stroke-miterlimit="10" x1="4.6" y1="14.9" x2="4.6" y2="18.2"/>
<ellipse fill="none" stroke="#D1D3D4" stroke-width="0.5" stroke-miterlimit="10" cx="5.7" cy="13.4" rx="0.8" ry="0.7"/>
<path fill="none" stroke="#D1D3D4" stroke-width="0.5" stroke-miterlimit="10" d="M1,14.6L1,14.6c-0.2,0-0.3-0.1-0.3-0.3v-1.8
	c0-0.2,0.1-0.3,0.3-0.3h0c0.2,0,0.3,0.1,0.3,0.3v1.8C1.3,14.5,1.2,14.6,1,14.6z"/>
<polygon fill="none" stroke="#D1D3D4" stroke-width="0.5" stroke-miterlimit="10" points="3,14.6 1.3,14.2 1.3,12.7 3,12 "/>
<path fill="none" stroke="#D1D3D4" stroke-width="0.5" stroke-miterlimit="10" d="M12.4,14.7h0.1c0.1,0,0.2-0.1,0.2-0.2v-2
	c0-0.1-0.1-0.2-0.2-0.2h-0.1c-0.1,0-0.2,0.1-0.2,0.2v2C12.2,14.6,12.3,14.7,12.4,14.7z"/>
<polyline fill="none" stroke="#D1D3D4" stroke-width="0.5" stroke-miterlimit="10" points="10.4,14.7 12.2,14.2 12.2,12.7 
	10.4,12.1 "/>
<polygon fill="none" stroke="#D1D3D4" stroke-width="0.75" stroke-miterlimit="10" points="8.4,3.6 4.8,3.6 5.3,2.2 8.1,2.2 "/>
<rect x="6" y="1" fill="none" stroke="#D1D3D4" stroke-width="0.5" stroke-miterlimit="10" width="1.2" height="1.2"/>
<line fill="none" stroke="#D1D3D4" stroke-width="0.25" stroke-miterlimit="10" x1="1.8" y1="21" x2="11.2" y2="21"/>
</svg>
