<?xml version="1.0" encoding="utf-8"?>
<!-- Generator: Adobe Illustrator 18.1.1, SVG Export Plug-In . SVG Version: 6.00 Build 0)  -->
<svg version="1.1" xmlns="http://www.w3.org/2000/svg" xmlns:xlink="http://www.w3.org/1999/xlink" x="0px" y="0px"
	 viewBox="0 0 23.8 28.5" enable-background="new 0 0 23.8 28.5" xml:space="preserve">
<g id="Layer_1">
	<g>
		<g>
			<path fill="none" stroke="#A7A9AC" stroke-width="0.75" stroke-miterlimit="10" d="M19,19.8l-0.6-0.9c0,0-0.1-0.1-0.1-0.1
				c-1.4-0.2-2.7-0.9-3.5-2c-0.9-1.1-1-2.4-0.7-3.6c0-0.1,0-0.1,0-0.1c-1.1-1-2.5-1.5-4-1.4c0,0-0.1,0-0.1,0L6.1,7.2
				c0,0-0.1-0.1-0.2,0L4.8,7.6c-0.1,0-0.1,0.1-0.1,0.2l2.5,4.8c0,0.1,0,0.1,0,0.2c-1.2,1.1-1.5,2.7-0.9,4.2c0,0,0.1,0.1,0.1,0.1
				c1.4,0.2,2.5,1,3.4,2.1c0.9,1.2,1.3,2.6,0.8,3.8c0,0,0,0.1,0,0.1l0.7,0.9c1.5,2,3.9,2,6,0.9C19.5,23.7,20.5,21.7,19,19.8z"/>
			<path fill="none" stroke="#A7A9AC" stroke-width="0.75" stroke-miterlimit="10" d="M7.3,12.8c0,0,1.1,2.1,1.4,2.5
				c0,0.1,0.1,0.1,0.2,0c1.6-1.1,2.3-1.2,2.8-1.2c0.4,0-1.8-2.5-1.8-2.5"/>
		</g>
		<path fill="#A7A9AC" d="M17.5,21L17.5,21c0.1-0.6,0.5-1,0.9-0.9l0.6,0.1c0.4,0.1,0.7,0.6,0.7,1.1L19.6,22c0,0.2-0.2,0.3-0.3,0.3
			l-1.1-0.2C17.7,22,17.4,21.6,17.5,21z"/>
		<line fill="none" stroke="#A7A9AC" stroke-width="0.25" stroke-miterlimit="10" x1="5.3" y1="7.4" x2="13.3" y2="19.5"/>
		<line fill="none" stroke="#A7A9AC" stroke-width="0.25" stroke-miterlimit="10" x1="5.5" y1="7.5" x2="13.9" y2="19.1"/>
		<line fill="none" stroke="#A7A9AC" stroke-width="0.25" stroke-miterlimit="10" x1="5.6" y1="7.2" x2="14.6" y2="18.7"/>
		<line fill="none" stroke="#A7A9AC" stroke-width="0.25" stroke-miterlimit="10" x1="5.2" y1="7.5" x2="12.4" y2="19.7"/>
		<path fill="none" stroke="#A7A9AC" stroke-width="0.5" stroke-miterlimit="10" d="M12.1,19.6c0,0,1.4,0.2,2.6-1.2"/>
		<path fill="#A7A9AC" d="M18.1,24.3l-2.6-4.4c-0.1-0.2-0.3-0.3-0.5-0.2c-0.3,0.2-1.3,0.7-1.6,0.8c-0.4,0.1,0.7,1.4,1,1.2
			c0.3-0.2,3.5,2.7,3.5,2.7C18.1,24.5,18.2,24.4,18.1,24.3z"/>
		<g>
			<path fill="#A7A9AC" d="M9.4,16.9c0,0,0.2,0,0.5,0.2c0.3,0.1,0.7,0.5,0.8,1c0,0.2,0,0.5,0,0.7c0,0.2,0.1,0.4,0.2,0.5
				c0.2,0.3,0.4,0.4,0.4,0.4s-0.2,0-0.5-0.3c-0.1-0.1-0.3-0.3-0.3-0.5c-0.1-0.2,0-0.5-0.1-0.6c-0.1-0.4-0.4-0.7-0.7-0.9
				C9.6,17,9.4,16.9,9.4,16.9z"/>
		</g>
		<g>
			<path fill="#A7A9AC" d="M14.4,17.6c0,0-0.1-0.2-0.2-0.4c-0.1-0.2-0.3-0.5-0.6-0.7c-0.1-0.1-0.3-0.1-0.4-0.2
				c-0.2-0.1-0.3-0.2-0.3-0.3c-0.1-0.3-0.1-0.4-0.1-0.4s0,0.2,0.2,0.4c0.1,0.1,0.2,0.2,0.3,0.2c0.1,0.1,0.3,0.1,0.5,0.2
				c0.3,0.2,0.5,0.6,0.6,0.9C14.4,17.4,14.4,17.6,14.4,17.6z"/>
		</g>
		<g>
			<polyline fill="none" stroke="#A7A9AC" stroke-width="0.5" stroke-miterlimit="10" points="3.3,5.1 4.5,7.5 5.9,6.9 4.4,5 			"/>
			<path fill="none" stroke="#A7A9AC" stroke-width="0.5" stroke-miterlimit="10" d="M4.4,4.9C4.2,5.3,3.8,5.4,3.5,5.3
				S3,4.7,3.2,4.4C3.3,4,3.7,3.8,4,4C4.4,4.1,4.5,4.5,4.4,4.9z"/>
			<line fill="none" stroke="#A7A9AC" stroke-width="0.5" stroke-miterlimit="10" x1="3.9" y1="5.4" x2="4.9" y2="7.3"/>
			<line fill="none" stroke="#A7A9AC" stroke-width="0.5" stroke-miterlimit="10" x1="4.3" y1="5.3" x2="5.6" y2="7"/>
			
				<rect x="5.2" y="4.8" transform="matrix(0.4373 0.8993 -0.8993 0.4373 7.6556 -1.7567)" fill="none" stroke="#A7A9AC" stroke-width="0.5" stroke-miterlimit="10" width="0.1" height="0.9"/>
			
				<rect x="5.7" y="5.5" transform="matrix(0.4373 0.8993 -0.8993 0.4373 8.5504 -1.8733)" fill="none" stroke="#A7A9AC" stroke-width="0.5" stroke-miterlimit="10" width="0.1" height="0.9"/>
			
				<rect x="4" y="6.6" transform="matrix(0.4373 0.8993 -0.8993 0.4373 8.5987 0.235)" fill="none" stroke="#A7A9AC" stroke-width="0.5" stroke-miterlimit="10" width="0.1" height="0.9"/>
			
				<rect x="3.7" y="5.9" transform="matrix(0.4373 0.8993 -0.8993 0.4373 7.7683 0.1964)" fill="none" stroke="#A7A9AC" stroke-width="0.5" stroke-miterlimit="10" width="0.1" height="0.9"/>
			<path fill="none" stroke="#A7A9AC" stroke-width="0.5" stroke-miterlimit="10" d="M3,6.7L3,6.7C3,6.5,3,6.5,3,6.4l0,0
				c0.1,0,0.1,0,0.2,0l0.1,0.1c0,0.1,0,0.1,0,0.2l0,0C3.2,6.7,3.1,6.7,3,6.7z"/>
			<path fill="none" stroke="#A7A9AC" stroke-width="0.5" stroke-miterlimit="10" d="M3.4,7.4L3.4,7.4c-0.1-0.1-0.1-0.2,0-0.3l0,0
				c0.1,0,0.1,0,0.2,0l0.1,0.1c0,0.1,0,0.1,0,0.2l0,0C3.6,7.4,3.5,7.4,3.4,7.4z"/>
			<path fill="none" stroke="#A7A9AC" stroke-width="0.5" stroke-miterlimit="10" d="M6.2,5.8L6.2,5.8c-0.1-0.1-0.1-0.2,0-0.3l0,0
				c0.1,0,0.1,0,0.2,0l0.1,0.1c0,0.1,0,0.1,0,0.2l0,0C6.3,5.8,6.3,5.8,6.2,5.8z"/>
			<path fill="none" stroke="#A7A9AC" stroke-width="0.5" stroke-miterlimit="10" d="M5.7,5.1L5.7,5.1C5.6,5,5.6,4.9,5.7,4.8l0,0
				c0.1,0,0.1,0,0.2,0l0.1,0.1c0,0.1,0,0.1,0,0.2l0,0C5.8,5.2,5.7,5.2,5.7,5.1z"/>
		</g>
	</g>
</g>
<g id="notes" display="none">
</g>
</svg>
