<?xml version="1.0" encoding="utf-8"?>
<!-- Generator: Adobe Illustrator 18.1.1, SVG Export Plug-In . SVG Version: 6.00 Build 0)  -->
<svg version="1.1" xmlns="http://www.w3.org/2000/svg" xmlns:xlink="http://www.w3.org/1999/xlink" x="0px" y="0px"
	 viewBox="0 0 18.4 27.3" enable-background="new 0 0 18.4 27.3" xml:space="preserve">
<g id="Layer_1">
	<g>
		<rect x="5.6" y="11.7" fill="none" stroke="#A7A9AC" stroke-miterlimit="10" width="7.2" height="10.2"/>
		<polygon fill="none" stroke="#A7A9AC" stroke-width="0.75" stroke-miterlimit="10" points="14.2,24 3.9,24 4.8,21.9 13.6,21.9 		
			"/>
		<path fill="none" stroke="#A7A9AC" stroke-miterlimit="10" d="M13.1,10c0-2.3-1.8-4.2-4-4.2s-4,1.9-4,4.2"/>
		<path fill="none" stroke="#A7A9AC" stroke-miterlimit="10" d="M4.8,9.4"/>
		<rect x="4.6" y="10" fill="none" stroke="#A7A9AC" stroke-width="0.75" stroke-miterlimit="10" width="9.1" height="1.4"/>
		<ellipse fill="none" stroke="#A7A9AC" stroke-width="0.75" stroke-miterlimit="10" cx="8.2" cy="15.6" rx="1.8" ry="1.7"/>
		<line fill="none" stroke="#A7A9AC" stroke-width="0.5" stroke-miterlimit="10" x1="9.3" y1="13" x2="9.3" y2="14.5"/>
		<line fill="none" stroke="#A7A9AC" stroke-width="0.5" stroke-miterlimit="10" x1="11.3" y1="13" x2="11.3" y2="20.6"/>
		<line fill="none" stroke="#A7A9AC" stroke-width="0.5" stroke-miterlimit="10" x1="7.2" y1="13" x2="7.2" y2="14.5"/>
		<line fill="none" stroke="#A7A9AC" stroke-width="0.5" stroke-miterlimit="10" x1="9.2" y1="17.3" x2="9.2" y2="20.5"/>
		<line fill="none" stroke="#A7A9AC" stroke-width="0.5" stroke-miterlimit="10" x1="7.2" y1="17.1" x2="7.2" y2="20.5"/>
		<ellipse fill="none" stroke="#A7A9AC" stroke-width="0.5" stroke-miterlimit="10" cx="8.2" cy="15.7" rx="0.8" ry="0.7"/>
		<path fill="none" stroke="#A7A9AC" stroke-width="0.5" stroke-miterlimit="10" d="M3.6,16.9L3.6,16.9c-0.2,0-0.3-0.1-0.3-0.3v-1.8
			c0-0.2,0.1-0.3,0.3-0.3h0c0.2,0,0.3,0.1,0.3,0.3v1.8C3.9,16.8,3.8,16.9,3.6,16.9z"/>
		<polygon fill="none" stroke="#A7A9AC" stroke-width="0.5" stroke-miterlimit="10" points="5.6,16.9 3.9,16.4 3.9,15 5.6,14.3 		
			"/>
		<path fill="none" stroke="#A7A9AC" stroke-width="0.5" stroke-miterlimit="10" d="M15,16.9h0.1c0.1,0,0.2-0.1,0.2-0.2v-2
			c0-0.1-0.1-0.2-0.2-0.2H15c-0.1,0-0.2,0.1-0.2,0.2v2C14.7,16.8,14.9,16.9,15,16.9z"/>
		<polyline fill="none" stroke="#A7A9AC" stroke-width="0.5" stroke-miterlimit="10" points="13,16.9 14.7,16.5 14.7,15 13,14.3 		
			"/>
		<polygon fill="none" stroke="#A7A9AC" stroke-width="0.75" stroke-miterlimit="10" points="11,5.8 7.4,5.8 7.8,4.5 10.6,4.5 		"/>
		<rect x="8.5" y="3.3" fill="none" stroke="#A7A9AC" stroke-width="0.5" stroke-miterlimit="10" width="1.2" height="1.2"/>
		<line fill="none" stroke="#A7A9AC" stroke-width="0.5" stroke-miterlimit="10" x1="4.3" y1="23.3" x2="13.7" y2="23.3"/>
	</g>
</g>
<g id="notes" display="none">
</g>
</svg>
