<?xml version="1.0" encoding="utf-8"?>
<!-- Generator: Adobe Illustrator 18.1.1, SVG Export Plug-In . SVG Version: 6.00 Build 0)  -->
<svg version="1.1" xmlns="http://www.w3.org/2000/svg" xmlns:xlink="http://www.w3.org/1999/xlink" x="0px" y="0px"
	 viewBox="0 0 23.8 20" enable-background="new 0 0 23.8 20" xml:space="preserve">
<g id="Layer_1">
	<g>
		<circle fill="none" stroke="#A7A9AC" stroke-miterlimit="10" cx="11.9" cy="10" r="8.7"/>
		<path fill="none" stroke="#A7A9AC" stroke-miterlimit="10" d="M19.6,6.5c0,0-2.1-1.1-3.5,0c-1.4,1.1-4,2.1-2.6,2.4s1.5-1.1,2.9-1
			s0.1,2.9,1.4,2.1c1.3-0.8,1.5-2.7,2.2-3.2"/>
		<path fill="none" stroke="#A7A9AC" stroke-miterlimit="10" d="M7.3,14.4c0,0-2-0.9-1.2-1.6s0.8-0.9-0.2-1.6s1.7-1.6,2.3-0.8
			s0.8,1.1,0,1.8c-0.7,0.7-0.7,0.9,0.5,1.7s0.9,2.3,0,1.8C7.8,15.1,7.3,14.4,7.3,14.4z"/>
		<path fill="none" stroke="#A7A9AC" stroke-miterlimit="10" d="M9.7,3.3C9.1,4.2,9,4.5,8.6,4.3C8.1,4.1,8,4,7.5,4.5
			c-0.9,0.8,1.7,2.1,2,2.2c1.1,0.3,1-2.4,2.2-3.2s0.5-1.2,1.3-0.8s2.1,0.9,2.3,0.2s-1.2-1.3-1.2-1.3S9.7,1.2,9.8,2
			C9.8,2.8,9.7,3.3,9.7,3.3z"/>
		<path fill="none" stroke="#A7A9AC" stroke-miterlimit="10" d="M13.6,18.3c0,0,0.6-1.1,0-1.7c-0.7-0.6-0.4-1.1-0.4-1.1l1.9,0.8
			c0,0,0.7,1.8-0.6,2.2"/>
	</g>
</g>
<g id="notes" display="none">
</g>
</svg>
