<?xml version="1.0" encoding="utf-8"?>
<!-- Generator: Adobe Illustrator 18.1.1, SVG Export Plug-In . SVG Version: 6.00 Build 0)  -->
<svg version="1.1" xmlns="http://www.w3.org/2000/svg" xmlns:xlink="http://www.w3.org/1999/xlink" x="0px" y="0px"
	 viewBox="0 0 177.3 125" enable-background="new 0 0 177.3 125" xml:space="preserve">
<g id="bg__x2B__footer">
</g>
<g id="Layer_1">
	<path fill="none" stroke="#A99595" stroke-miterlimit="10" d="M158.7,73.5c0,0-13.8-10.8-25.4-6.9c-11.3,3.7-11-5.3-15.9-6.3
		c-7.9-1.5-13.2,1.9-13.2,1.9"/>
	<path fill="#A99595" d="M3.2,109.1c0,0,9.1,7.4,27.1-0.8c7.4-3.3-9.2-7.3-13.9-4.5"/>
	<path fill="#A99595" d="M127.5,72c0,0,6.5,2.5,9.9,4.4c11.5,6.4,21.6,15.4,21.8,16c0.3,1.5-7.8,4.2-8.6,5
		c-0.8,0.9-57,23.4-70.1,24.7"/>
	<path fill="#A99595" d="M159.7,71.9c4.1-1.3,11.1-1.1,15.5,2.3c2,1.6,1.5,7.5-10.6,4.8"/>
	<path fill="#A99595" d="M102.4,44.3c10-2.7,28.4,2.3,47.6,11.8c8.9,4.4-91.3,24.7-106.7,26.4"/>
	<path fill="none" stroke="#FEEDE6" stroke-width="2" stroke-miterlimit="10" d="M16.1,94.1c0,0,3.1,0.8,3,3.3s-3.8,5.5-3.8,5.5"/>
	<path fill="none" stroke="#EAE5E3" stroke-width="0.75" stroke-miterlimit="10" d="M156.8,73.5c0,0-13.8-10.8-25.4-6.9
		c-11.3,3.7-11-5.3-15.9-6.3c-7.9-1.5-13.2,1.9-13.2,1.9"/>
	<path fill="#CFB0AF" d="M102.2,69.5L42,82.8V8l60.3-8c0,0,1.6,17,2,31.1C104.7,45.1,102.2,69.5,102.2,69.5z"/>
	<polygon fill="#8C8796" points="97.5,55.1 49.2,64.4 49.2,18.9 97.5,11.9 	"/>
	<polygon fill="#CFB0AF" points="42,10.5 19.5,35.5 18.7,61.1 42,82.8 	"/>
	<polygon opacity="0.29" fill="#5B5461" points="97.5,11.9 94.7,14.4 49.2,20.8 49.2,18.9 	"/>
	<path fill="#7E7991" d="M93.7,14.4c0,0,1.9,8.3,2,19.8c0.1,9.8-1.4,21.3-1.4,21.3l3.3-0.4c0,0,1-15.2,1-22.7s-1-20.5-1-20.5
		L93.7,14.4z"/>
	<path opacity="0.68" fill="#E1DFE2" d="M92.5,41.6c-0.2-3.2-3.9-3.3-4.4-0.1c-0.3,2-0.9,3.8-1.8,5.3c-0.4,0.6-0.8,1.1-1.2,1.6
		c-1.9,2.2,0.6,5.4,3.3,4.2c2.2-1.1,2.8-2.5,3.3-4.4C92.3,45.6,92.6,43.6,92.5,41.6z"/>
	<path opacity="0.68" fill="#E1DFE2" d="M88.5,19.1c0,0,2.3,7.2,1.2,11.9s1.1,6,1.4,5.2s1.1-3.9,0-8.6"/>
	<path opacity="0.37" fill="none" stroke="#8C8B8C" stroke-width="0.25" stroke-miterlimit="10" d="M156.8,73.6
		c0,0-13.8-10.8-25.4-6.9c-11.3,3.7-11-5.3-15.9-6.3c-7.9-1.5-13.2,1.9-13.2,1.9"/>
	<polyline fill="#D8BEBC" points="42,82.8 34.7,79.3 36,11.9 42,8 	"/>
	<g>
		<path fill="#F3E9E8" d="M49,91.1l76.2-19.5c0.7-0.2,1.5-0.1,2.2,0.4l7.5,4.9c0.1,0.1,0.3,0.2,0.4,0.3l15.9,14.8
			c1.5,1.4,1,3.9-0.9,4.6l-73.4,26.8c-1,0.4-2.2,0.1-2.9-0.7L47,100.9C45.5,99.4,47,91.7,49,91.1z"/>
		<line fill="none" stroke="#EADAD8" stroke-miterlimit="10" x1="61.3" y1="94.9" x2="66" y2="93.6"/>
		<line fill="none" stroke="#EADAD8" stroke-miterlimit="10" x1="71.1" y1="92.3" x2="75.7" y2="90.9"/>
		<line fill="none" stroke="#EADAD8" stroke-miterlimit="10" x1="79.3" y1="89.4" x2="84.1" y2="88.3"/>
		<line fill="none" stroke="#EADAD8" stroke-miterlimit="10" x1="90.5" y1="85.7" x2="95.2" y2="84.7"/>
		<line fill="none" stroke="#EADAD8" stroke-miterlimit="10" x1="99.5" y1="83.3" x2="104.2" y2="82.3"/>
		<line fill="none" stroke="#EADAD8" stroke-miterlimit="10" x1="109.3" y1="80.6" x2="114.1" y2="79.6"/>
		<line fill="none" stroke="#EADAD8" stroke-miterlimit="10" x1="118.3" y1="78.6" x2="123.1" y2="77.6"/>
		<line fill="none" stroke="#EADAD8" stroke-miterlimit="10" x1="66.2" y1="97.5" x2="70.9" y2="96.2"/>
		<line fill="none" stroke="#EADAD8" stroke-miterlimit="10" x1="75.9" y1="94.9" x2="80.6" y2="93.5"/>
		<line fill="none" stroke="#EADAD8" stroke-miterlimit="10" x1="84.2" y1="92" x2="88.9" y2="90.9"/>
		<line fill="none" stroke="#EADAD8" stroke-miterlimit="10" x1="93.3" y1="89.3" x2="98.1" y2="88.3"/>
		<line fill="none" stroke="#EADAD8" stroke-miterlimit="10" x1="102.4" y1="86.9" x2="107.1" y2="85.9"/>
		<line fill="none" stroke="#EADAD8" stroke-miterlimit="10" x1="113.2" y1="84.2" x2="118" y2="83.2"/>
		<line fill="none" stroke="#EADAD8" stroke-miterlimit="10" x1="123.2" y1="81.2" x2="128" y2="80.2"/>
		<line fill="none" stroke="#EADAD8" stroke-miterlimit="10" x1="71" y1="102.1" x2="77.7" y2="99.7"/>
		<line fill="none" stroke="#EADAD8" stroke-miterlimit="10" x1="126" y1="85.5" x2="132.7" y2="83.1"/>
		<line fill="none" stroke="#EADAD8" stroke-miterlimit="10" x1="82.2" y1="98.2" x2="86.9" y2="96.7"/>
		<line fill="none" stroke="#EADAD8" stroke-miterlimit="10" x1="90.5" y1="95.2" x2="95.2" y2="94.1"/>
		<line fill="none" stroke="#EADAD8" stroke-miterlimit="10" x1="99.6" y1="92.5" x2="104.4" y2="91.5"/>
		<line fill="none" stroke="#EADAD8" stroke-miterlimit="10" x1="108.7" y1="90.2" x2="113.4" y2="89.2"/>
		<line fill="none" stroke="#EADAD8" stroke-miterlimit="10" x1="119.5" y1="87.5" x2="124.3" y2="86.5"/>
		<line fill="none" stroke="#EADAD8" stroke-miterlimit="10" x1="73.1" y1="107.2" x2="83.2" y2="103"/>
		<line fill="none" stroke="#EADAD8" stroke-miterlimit="10" x1="77.2" y1="110.4" x2="88.9" y2="105.1"/>
		<line fill="none" stroke="#EADAD8" stroke-miterlimit="10" x1="79.7" y1="114.7" x2="84.2" y2="112.8"/>
		<line fill="none" stroke="#EADAD8" stroke-miterlimit="10" x1="89" y1="110.8" x2="93.4" y2="108.8"/>
		<line fill="none" stroke="#EADAD8" stroke-miterlimit="10" x1="97.5" y1="107.2" x2="128" y2="97.5"/>
		<line fill="none" stroke="#EADAD8" stroke-miterlimit="10" x1="131.2" y1="96.6" x2="135.7" y2="94.6"/>
		<line fill="none" stroke="#EADAD8" stroke-miterlimit="10" x1="140.5" y1="92.7" x2="144.9" y2="90.6"/>
		<line fill="none" stroke="#EADAD8" stroke-miterlimit="10" x1="139.2" y1="91.5" x2="140.5" y2="90.9"/>
		<line fill="none" stroke="#EADAD8" stroke-miterlimit="10" x1="142.7" y1="90.2" x2="143.7" y2="89.4"/>
		<line fill="none" stroke="#EADAD8" stroke-miterlimit="10" x1="140.5" y1="89.7" x2="141.6" y2="89.3"/>
		<line fill="none" stroke="#EADAD8" stroke-miterlimit="10" x1="135.7" y1="88.8" x2="141.6" y2="87"/>
		<line fill="none" stroke="#EADAD8" stroke-miterlimit="10" x1="133.4" y1="86.5" x2="136.9" y2="85.5"/>
		<line fill="none" stroke="#EADAD8" stroke-miterlimit="10" x1="88.9" y1="100.9" x2="91.2" y2="99.7"/>
		<line fill="none" stroke="#EADAD8" stroke-miterlimit="10" x1="97.5" y1="98.2" x2="101.9" y2="97.5"/>
		<line fill="none" stroke="#EADAD8" stroke-miterlimit="10" x1="108.7" y1="95.2" x2="111" y2="94.6"/>
		<line fill="none" stroke="#EADAD8" stroke-miterlimit="10" x1="118" y1="92.3" x2="121.9" y2="91.2"/>
		<line fill="none" stroke="#EADAD8" stroke-miterlimit="10" x1="125.6" y1="89.4" x2="129.3" y2="88.8"/>
		<line fill="none" stroke="#EADAD8" stroke-miterlimit="10" x1="95.2" y1="103.9" x2="98.5" y2="102.4"/>
		<line fill="none" stroke="#EADAD8" stroke-miterlimit="10" x1="101.9" y1="100.9" x2="106.2" y2="100.3"/>
		<line fill="none" stroke="#EADAD8" stroke-miterlimit="10" x1="109.9" y1="98.2" x2="114.8" y2="96.6"/>
		<line fill="none" stroke="#EADAD8" stroke-miterlimit="10" x1="119.5" y1="94.7" x2="123.1" y2="93.5"/>
		<line fill="none" stroke="#EADAD8" stroke-miterlimit="10" x1="128" y1="92.7" x2="132.7" y2="90.6"/>
		<path fill="#FCF9F8" d="M47.6,92.7l28,27.6l1.1,3.1c0,0-1.8,0.7-2.9,0c-2.3-1.5-26.9-22.5-26.9-22.5s-1.9-3.7-0.6-5.9
			C47.6,92.7,47.6,92.7,47.6,92.7z"/>
		<line fill="none" stroke="#F9F4F3" stroke-miterlimit="10" x1="60.1" y1="93.7" x2="64.7" y2="92.4"/>
		<line fill="none" stroke="#F9F4F3" stroke-miterlimit="10" x1="69.8" y1="91.1" x2="74.4" y2="89.6"/>
		<line fill="none" stroke="#F9F4F3" stroke-miterlimit="10" x1="78.1" y1="88.1" x2="82.8" y2="87"/>
		<line fill="none" stroke="#F9F4F3" stroke-miterlimit="10" x1="89.2" y1="84.4" x2="94" y2="83.5"/>
		<line fill="none" stroke="#F9F4F3" stroke-miterlimit="10" x1="98.2" y1="82.1" x2="103" y2="81.1"/>
		<line fill="none" stroke="#F9F4F3" stroke-miterlimit="10" x1="108.1" y1="79.4" x2="112.8" y2="78.4"/>
		<line fill="none" stroke="#F9F4F3" stroke-miterlimit="10" x1="117.1" y1="77.3" x2="121.8" y2="76.4"/>
		<line fill="none" stroke="#F9F4F3" stroke-miterlimit="10" x1="65" y1="96.3" x2="69.6" y2="95"/>
		<line fill="none" stroke="#F9F4F3" stroke-miterlimit="10" x1="74.7" y1="93.7" x2="79.3" y2="92.3"/>
		<line fill="none" stroke="#F9F4F3" stroke-miterlimit="10" x1="83" y1="90.8" x2="87.7" y2="89.6"/>
		<line fill="none" stroke="#F9F4F3" stroke-miterlimit="10" x1="92.1" y1="88.1" x2="96.8" y2="87.1"/>
		<line fill="none" stroke="#F9F4F3" stroke-miterlimit="10" x1="101.1" y1="85.7" x2="105.9" y2="84.7"/>
		<line fill="none" stroke="#F9F4F3" stroke-miterlimit="10" x1="112" y1="83" x2="116.7" y2="82"/>
		<line fill="none" stroke="#F9F4F3" stroke-miterlimit="10" x1="122" y1="80" x2="126.7" y2="79"/>
		<line fill="none" stroke="#F9F4F3" stroke-miterlimit="10" x1="69.7" y1="100.9" x2="76.5" y2="98.4"/>
		<line fill="none" stroke="#F9F4F3" stroke-miterlimit="10" x1="124.7" y1="84.3" x2="131.5" y2="81.8"/>
		<line fill="none" stroke="#F9F4F3" stroke-miterlimit="10" x1="81" y1="97" x2="85.6" y2="95.5"/>
		<line fill="none" stroke="#F9F4F3" stroke-miterlimit="10" x1="89.3" y1="94" x2="94" y2="92.9"/>
		<line fill="none" stroke="#F9F4F3" stroke-miterlimit="10" x1="98.4" y1="91.3" x2="103.1" y2="90.3"/>
		<line fill="none" stroke="#F9F4F3" stroke-miterlimit="10" x1="107.4" y1="88.9" x2="112.2" y2="87.9"/>
		<line fill="none" stroke="#F9F4F3" stroke-miterlimit="10" x1="118.3" y1="86.2" x2="123" y2="85.2"/>
		<line fill="none" stroke="#F9F4F3" stroke-miterlimit="10" x1="71.9" y1="106" x2="82" y2="101.8"/>
		<line fill="none" stroke="#F9F4F3" stroke-miterlimit="10" x1="75.9" y1="109.2" x2="87.7" y2="103.9"/>
		<line fill="none" stroke="#F9F4F3" stroke-miterlimit="10" x1="78.5" y1="113.5" x2="82.9" y2="111.5"/>
		<line fill="none" stroke="#F9F4F3" stroke-miterlimit="10" x1="87.8" y1="109.6" x2="92.2" y2="107.5"/>
		<line fill="none" stroke="#F9F4F3" stroke-miterlimit="10" x1="96.2" y1="106" x2="126.7" y2="96.3"/>
		<line fill="none" stroke="#F9F4F3" stroke-miterlimit="10" x1="130" y1="95.3" x2="134.4" y2="93.4"/>
		<line fill="none" stroke="#F9F4F3" stroke-miterlimit="10" x1="139.3" y1="91.5" x2="143.7" y2="89.4"/>
		<line fill="none" stroke="#F9F4F3" stroke-miterlimit="10" x1="138" y1="90.3" x2="139.3" y2="89.6"/>
		<line fill="none" stroke="#F9F4F3" stroke-miterlimit="10" x1="141.5" y1="88.9" x2="142.5" y2="88.1"/>
		<line fill="none" stroke="#F9F4F3" stroke-miterlimit="10" x1="139.3" y1="88.4" x2="140.4" y2="88.1"/>
		<line fill="none" stroke="#F9F4F3" stroke-miterlimit="10" x1="134.4" y1="87.6" x2="140.4" y2="85.7"/>
		<line fill="none" stroke="#F9F4F3" stroke-miterlimit="10" x1="132.2" y1="85.2" x2="135.6" y2="84.3"/>
		<line fill="none" stroke="#F9F4F3" stroke-miterlimit="10" x1="87.7" y1="99.7" x2="90" y2="98.4"/>
		<line fill="none" stroke="#F9F4F3" stroke-miterlimit="10" x1="96.2" y1="97" x2="100.6" y2="96.2"/>
		<line fill="none" stroke="#F9F4F3" stroke-miterlimit="10" x1="107.4" y1="94" x2="109.8" y2="93.4"/>
		<line fill="none" stroke="#F9F4F3" stroke-miterlimit="10" x1="116.7" y1="91.1" x2="120.6" y2="90"/>
		<line fill="none" stroke="#F9F4F3" stroke-miterlimit="10" x1="124.3" y1="88.1" x2="128.1" y2="87.6"/>
		<line fill="none" stroke="#F9F4F3" stroke-miterlimit="10" x1="94" y1="102.7" x2="97.2" y2="101.2"/>
		<line fill="none" stroke="#F9F4F3" stroke-miterlimit="10" x1="100.6" y1="99.7" x2="104.9" y2="99.1"/>
		<line fill="none" stroke="#F9F4F3" stroke-miterlimit="10" x1="108.6" y1="97" x2="113.6" y2="95.3"/>
		<line fill="none" stroke="#F9F4F3" stroke-miterlimit="10" x1="118.3" y1="93.5" x2="121.8" y2="92.3"/>
		<line fill="none" stroke="#F9F4F3" stroke-miterlimit="10" x1="126.7" y1="91.5" x2="131.5" y2="89.4"/>
	</g>
	<path fill="#F9F4F3" d="M155.7,74.8c-0.3-2.6,2.5-3.6,7.8-3.2c4.9,0.4,9.2,2.8,9.2,6c0,3.3-5.9,2.2-10,1
		C158.5,77.4,156,76.7,155.7,74.8z"/>
	<path opacity="0.41" fill="#FCDCD8" d="M157.8,76.1c-1-0.3-1.5-1.4-0.5-1.4c0.2,0,2.1,0.6,2.4,0.6c1.9-0.8,7.7-0.7,9.4-0.2
		c1.7,0.5,2.2,0.4,2.5,2.2c0.3,1.8-1.3,1.7-2.9,1.3C166.5,78.2,160.6,77,157.8,76.1z"/>
	<line fill="none" stroke="#BEBBBB" stroke-width="0.5" stroke-miterlimit="10" x1="160.6" y1="74.7" x2="160.6" y2="71.4"/>
	<path fill="#F3E9E8" d="M1.2,92.3v15c0,0,1.3,3.5,7,4.3s8-4.3,8-4.3l1-16.6c0,0-0.7-3.3-8-3.2C0.1,87.6,1.2,92.3,1.2,92.3z"/>
	<path fill="#996666" d="M4.1,92.9c0,0,1.5-2.1,5.2-2s5.7,1.1,5.7,1.1s-2.8,2.2-5.7,2.1C6.4,94.1,4.1,92.9,4.1,92.9z"/>
	<path fill="none" stroke="#F9F4F3" stroke-width="0.5" stroke-miterlimit="10" d="M2.7,90c0,0,3.5-1.7,6.2-1.7
		c3.2,0,6.2,1.1,6.2,1.1s-2.2-1.3-6.4-1.4C6.2,87.9,2.7,90,2.7,90z"/>
	<ellipse fill="#7E7991" cx="49.5" cy="74.3" rx="1.8" ry="2.1"/>
	<ellipse fill="#7E7991" cx="56.7" cy="72.9" rx="1.2" ry="1.4"/>
	<path opacity="0.42" fill="#D8BEBC" d="M66,5.8l3.8,10.1l-2.5,2.3c0,0,6.8,5.9,7.3,21.9S66.8,61,66.8,61l1.4-0.3l20.2,8.4l13.8,0.4
		L42,82.8l-7.3-3.4V76l-16-14.9l0.8-25.6l16.4-16.9l0.1-5.7L42,8L66,5.8z"/>
	<path opacity="0.8" fill="#E0C5C3" d="M100.8,1.9c0,0,2.9,19.8,2.2,35.2s-2.2,29.7-2.2,29.7"/>
	<g>
		<path fill="#FEF4F2" d="M94.5,112.8c0,0,0.8-0.4,2.2-1.1c1.4-0.7,3.4-1.7,5.9-2.7c4.9-2.2,11.6-4.7,18.3-6.9
			c6.8-2.2,13.6-4.2,18.8-5.3c2.6-0.6,4.8-1,6.4-1.3c1.5-0.3,2.4-0.4,2.4-0.4s-0.8,0.4-2.2,1.1c-1.4,0.7-3.4,1.7-5.9,2.7
			c-4.9,2.2-11.6,4.7-18.3,6.9c-6.8,2.2-13.6,4.2-18.8,5.3c-2.6,0.6-4.8,1-6.4,1.3C95.4,112.6,94.5,112.8,94.5,112.8z"/>
	</g>
	<path opacity="0.42" fill="#FCDCD8" d="M54.2,92.5c0,0,62-17.9,62.8-16.9c1,1.2-45.6,11.4-43.7,13.3c2.5,2.4,17.1,1.5,20.6,4
		c2.9,2,1,11.3,4.3,12.5c4.2,1.5-11.1,8.3-6.7,7.1c18.1-4.8,28.8-8.3,28.3-6.5s-43.9,17.7-43.9,17.7s-0.6,0.6-2.8-0.1
		c-2.3-2.6-27.2-23.3-27.2-23.3s-0.9-2,0-4.1c0.9-2.1,1.8-4.6,1.8-4.6L54.2,92.5z"/>
	<polyline opacity="0.32" fill="#FCDCD8" points="58,96.6 129.1,77.3 58.7,97.5 	"/>
	<polyline opacity="0.32" fill="#FCDCD8" points="53.7,91 124.8,71.7 54.4,91.9 	"/>
	<polyline opacity="0.32" fill="#FCDCD8" points="61.7,99.9 132.8,80.7 62.4,100.9 	"/>
	<polyline opacity="0.32" fill="#FCDCD8" points="67.4,104.1 138.6,84.8 68.1,105 	"/>
	<polyline opacity="0.32" fill="#FCDCD8" points="72.5,108.8 143.6,89.5 73.2,109.7 	"/>
	<path opacity="0.32" fill="#FCDCD8" d="M1.9,92.3c0,0,0.5,1.6,3.9,2.2c1.7,0.3,6.7,5.4,6.7,9.4c0,3.8-4.9,6.5-4.9,6.5
		s-2.9,1.3-5.6-3.2C1.9,101.9,1.9,92.3,1.9,92.3z"/>
	<path opacity="0.94" fill="#D8BEBC" d="M16.9,95.5c0,0,1.5,0.5,1.3,2c-0.2,1.5-1.6,2.8-1.6,2.8l-0.1,1.3c0,0,2-2.4,2.1-3.6
		C18.7,95.5,16.9,95.5,16.9,95.5z"/>
	<g>
		<path fill="#F9F4F3" d="M15.1,94.6c0,0,0.1,0.2,0.2,0.4c0.1,0.3,0.2,0.7,0.2,1.1c0,0.2,0,0.5,0,0.8c0,0.3-0.1,0.6-0.2,0.8
			c-0.1,0.3-0.1,0.6-0.1,0.9c0,0.3,0.1,0.6,0.1,0.9c0.1,0.3,0.1,0.6,0.2,0.9c0,0.3,0.1,0.6,0.1,0.9c0,0.6,0,1.1-0.1,1.6
			c-0.1,0.9-0.4,1.6-0.4,1.6l-0.1,0c0,0-0.3-0.6-0.4-1.6c-0.1-0.5-0.1-1-0.1-1.6c0-0.3,0-0.6,0.1-0.9c0-0.3,0.1-0.6,0.2-0.9
			c0.1-0.3,0.1-0.6,0.1-0.9c0-0.3,0-0.6-0.1-0.9c-0.1-0.3-0.2-0.6-0.2-0.8c0-0.3,0-0.5,0-0.8c0-0.5,0.1-0.9,0.2-1.1
			C14.9,94.8,15,94.6,15.1,94.6L15.1,94.6z"/>
	</g>
	<path fill="none" stroke="#EADAD8" stroke-width="0.25" stroke-miterlimit="10" d="M1.9,107.2c0,0,3,3.6,6.6,3.6
		c3.6,0,5.4-1.6,6.6-3.1"/>
</g>
<g id="notes">
</g>
</svg>
