<?xml version="1.0" encoding="utf-8"?>
<!-- Generator: Adobe Illustrator 18.1.1, SVG Export Plug-In . SVG Version: 6.00 Build 0)  -->
<svg version="1.1" xmlns="http://www.w3.org/2000/svg" xmlns:xlink="http://www.w3.org/1999/xlink" x="0px" y="0px"
	 viewBox="0 0 510 428.1" enable-background="new 0 0 510 428.1" xml:space="preserve">
<g id="Layer_1">
	<linearGradient id="SVGID_1_" gradientUnits="userSpaceOnUse" x1="294.5365" y1="18.1156" x2="294.5365" y2="420.9816">
		<stop  offset="0.1717" style="stop-color:#EACBB1;stop-opacity:0.5"/>
		<stop  offset="0.2028" style="stop-color:#EBC8AF;stop-opacity:0.5"/>
		<stop  offset="0.401" style="stop-color:#F0B59F;stop-opacity:0.5"/>
		<stop  offset="0.6003" style="stop-color:#F3A795;stop-opacity:0.5"/>
		<stop  offset="0.7997" style="stop-color:#F69F8F;stop-opacity:0.5"/>
		<stop  offset="1" style="stop-color:#F79D8D;stop-opacity:0.5"/>
	</linearGradient>
	<circle fill="url(#SVGID_1_)" cx="294.5" cy="219.5" r="201.4"/>
	<g>
		<path fill="none" stroke="#000000" stroke-width="2" stroke-miterlimit="10" d="M36.8,153.4l-5.3,8.1L29.3,175l7.4,10.9
			c0,0,1.8,15.7,1.4,20.7c1.9,2.1,4.1,6.6,4.1,6.6s-2,7.9-8.4,11.8c-1.3,0.8-2.3,1.9-2.8,3.2c-2,4.9-1.6,6.2-1.6,6.2l-0.8,0.4
			c-1.9,0.9-3.1,2.8-3.1,4.8v5.5c0,2.7,2.2,4.9,4.9,4.9h2.1c0,0-1.3,6.3,10.9,5.9l3.1,3.4h7.5c2.3,0,4.4-1,5.9-2.6
			c1.4-1.4,3.3-3.1,5.7-4.2c1.8-0.8,3.9-1.8,5.9-2.7c3.2-1.5,6.6-2.7,10.1-3.6l0.9-0.2c2.9-0.7,5.8-1.1,8.8-1.1l1.9,0
			c0,0,2.9,1,6.3,2c4.6,1.3,9,3,13.2,5.1c8,3.9,18,8.5,18,8.5l7.9,25.1c0,0-1.3,35.5-6.6,45.6c-5.2,10.1-17.7,32.8-17.7,32.8
			s-1.3,10.1,4.6,13.3l20.3,0.6l17-16.4v-3.2l3.3-5.9v-11.8c0,0,12.4-25.9,14.4-39.2s0-25.3,0-25.3l24.3,1.1l10.4-6.8l18.3-4.8
			l-15.1,19.9c0,0-11,7.1-13.7,46.3c7.8,9.5,11.1,11.4,11.1,11.4l13.1-1.9l13.8-27.2c0,0-0.7-10.7,0-17.1c0.7-6.3,9.2-17.1,9.2-17.1
			s4.6,16.4,9.2,21.5v12l-7.2,5.7l0.7,13.9h3.3l14.4,0.6c0,0,3.9,10.1,11.8,12c10.5,0,13.8-2.5,13.8-2.5s7.9-22.1,3.3-33.5
			c12.4-8.2,22.3-21.5,22.3-21.5s2.6-26.5,5.9-36c3.3-9.5,15.1-28.4,14.4-58.8c6.6,1.9,17.7-1.9,17.7-1.9l24.2-11.4l7.9-17.1
			l-3.3-37.9c0,0-14.4-10.1-21.6-10.7c-13.1,10.1-21,14.5-21,14.5l-10.5,1.9c0,0-13.1-6.9-17.7-6.9c-4.6,0-18.3,8.2-18.3,8.2
			s-16.4-10.7-21-12.6c-11.1,0-20.3-1.9-35.4,0.6c-17.7,5.7-39.9,13.3-39.9,13.3s-24.3,5.7-51.8,3.8c-2.6-15.8-8.3-18.4-8.3-18.4
			l-1.3-13.3c0,0-26.2-28.8-34.1-28.3L83,107.5c0,0-11.1-5.7-27.5-7.6l-36-12.6C19.5,87.2,7.7,93.8,36.8,153.4z"/>
		<path fill="none" stroke="#000000" stroke-width="2" stroke-miterlimit="10" d="M265.6,333.7c-1.3-10.7,9.2-31.6,9.2-31.6
			l11.1-10.1l0,0l4.6-16.4c-7.9-14.5-12.4-52.7-12.4-52.7h-5.2l-2.1-1.9h-3.8l0.3,11.1l4.6,3.7c-0.7,7.5-6.3,13.1-6.3,13.1l2.7,21.8
			l1.6,22.1l4.9,9.5"/>
		<path fill="none" stroke="#000000" stroke-width="2" stroke-miterlimit="10" d="M294.4,132.2c0,0,39.6,19.9,42.6,61.3"/>
		<path fill="none" stroke="#000000" stroke-width="2" stroke-miterlimit="10" d="M278.1,222.9c0,0,0.1-0.5,0.2-1.3
			c0.5-6.7-3.6-12.8-9.8-15.2c-5.6-2.1-10.9-3.4-19.2-1.9c-1.6,0.3-3.1,0.9-4.3,1.8c-4.8,3.8-3.5,10,2.4,14.7
			c7.9,6.2,20,11.1,20,11.1"/>
		<path fill="none" stroke="#000000" stroke-width="2" stroke-miterlimit="10" d="M130.7,260.4c0,0,18.9,12,43.2,15.8"/>
		<path fill="none" stroke="#000000" stroke-width="2" stroke-miterlimit="10" d="M83,107.5c0,0-5.4,6.4-12,18.4
			c-19,13.9-34.3,27.6-34.3,27.6"/>
		<path fill="none" stroke="#000000" stroke-width="2" stroke-miterlimit="10" d="M66.5,129.2c-5.5-3.9-46.3-40.7-47-42l23.5,42"/>
		<path fill="none" stroke="#000000" stroke-width="2" stroke-miterlimit="10" d="M144.4,167.2c0,0,0.7,11.8-0.6,19.1
			c-1.3,7.3,10.7,25.7,10.7,25.7l-30.8,24.1l-30.6,8.7"/>
		<polyline fill="none" stroke="#000000" stroke-width="2" stroke-miterlimit="10" points="112.1,159.6 131.1,186.3 126.6,217.4 
			89.2,244.8 		"/>
		<path fill="none" stroke="#000000" stroke-width="2" stroke-miterlimit="10" d="M32.4,250l6.8-2.9l1-5.3c0.3-1.6-0.2-3.2-1.4-4.3
			l-1.2-1.2c-1.2-1.2-2.9-1.8-4.6-1.8h-3.7"/>
		<path fill="none" stroke="#000000" stroke-width="2" stroke-miterlimit="10" d="M265.5,248.7c0,0-11.4,16.6-20.2,31.3"/>
		<polyline fill="none" stroke="#000000" stroke-width="2" stroke-miterlimit="10" points="129.3,336.2 149,338.7 159.5,345.7 		"/>
		<polyline fill="none" stroke="#000000" stroke-width="2" stroke-miterlimit="10" points="206,294.1 225.7,294.1 236.1,297 		"/>
		<polyline fill="none" stroke="#000000" stroke-width="2" stroke-miterlimit="10" points="254.5,313.5 265.5,313.5 269.9,313.5 		
			"/>
		<polyline fill="none" stroke="#000000" stroke-width="2" stroke-miterlimit="10" points="272.3,307.5 287.2,307.5 294.4,309.7 		
			"/>
		<path fill="none" stroke="#000000" stroke-width="2" stroke-miterlimit="10" d="M273.9,210l16.6-47.2l25.2-4.1l15.4,11.8
			c8.9,0.1,19,8.4,27.5,13.8c9.2,2.5,20.3-4.1,20.3-4.1l-3.3-44.2l-22.9-10.1l-11.8,3.2"/>
		<polyline fill="none" stroke="#000000" stroke-width="2" stroke-miterlimit="10" points="78.8,129.2 84.2,120.8 114.9,120.8 
			129,132.2 		"/>
		<path fill="none" stroke="#000000" stroke-width="2" stroke-miterlimit="10" d="M71,206.6c-1-0.6,13.1-8.1,13.1-8.1
			c1.7-1.1,5.7-0.9,7.5-0.1l-0.2,0.7c-0.2,0.7-0.7,1.3-1.4,1.5C86,202.1,71.9,207.1,71,206.6z"/>
		<path fill="none" stroke="#000000" stroke-width="2" stroke-miterlimit="10" d="M37.9,198.5c0,0,4,4.4,4,5c0,0.5-0.7,0.2-0.7,0.2
			l-3.1-1"/>
		<polyline fill="none" stroke="#000000" stroke-width="2" stroke-miterlimit="10" points="35.7,234.4 42.8,221.1 50.1,208.6 
			53.4,195.3 53.4,179.5 53.4,158.7 71,125.8 104.5,138.7 112.1,159.6 		"/>
		<line fill="none" stroke="#000000" stroke-width="2" stroke-miterlimit="10" x1="247.3" y1="220.9" x2="266.9" y2="220.9"/>
		<polyline fill="none" stroke="#000000" stroke-width="2" stroke-miterlimit="10" points="247.3,220.9 228.9,206.6 215.4,234 
			232.4,261.7 227,265.7 		"/>
		<polyline fill="none" stroke="#000000" stroke-width="2" stroke-miterlimit="10" points="137.8,225 173.9,253.4 208.6,270.5 		"/>
		<polyline fill="none" stroke="#000000" stroke-width="2" stroke-miterlimit="10" points="227.9,208.6 262.2,238.3 245.3,260 
			228.9,294.1 223.8,313.5 222.4,341.3 		"/>
		<path fill="none" stroke="#000000" stroke-width="2" stroke-miterlimit="10" d="M287.1,344.7l3.4-35l18.8-32.4c0,0,7-35,10-49.7
			s-3.6-68.9-3.6-68.9l-21.3-17.8l-28.9-17.2l-15.4-4.8"/>
		<polyline fill="none" stroke="#000000" stroke-width="2" stroke-miterlimit="10" points="304.7,138.7 375.7,135.9 383.5,125.2 		
			"/>
		<polyline fill="none" stroke="#000000" stroke-width="2" stroke-miterlimit="10" points="158.6,272.7 149,338.7 130.7,377.9 		"/>
		<polyline fill="none" stroke="#000000" stroke-width="2" stroke-miterlimit="10" points="255.4,264.3 262.2,294.1 265.5,313.5 
			258.1,321.7 258.1,333.2 		"/>
		<polyline fill="none" stroke="#000000" stroke-width="2" stroke-miterlimit="10" points="228.9,206.6 227.9,170.4 201.9,132.2 		
			"/>
		<polyline fill="none" stroke="#000000" stroke-width="2" stroke-miterlimit="10" points="215.4,234 193.5,203.7 177.2,198.5 
			144.3,181.5 		"/>
		<polyline fill="none" stroke="#000000" stroke-width="2" stroke-miterlimit="10" points="193.5,203.7 227.9,170.4 290.5,162.8 		
			"/>
		<polyline fill="none" stroke="#000000" stroke-width="2" stroke-miterlimit="10" points="193.5,203.7 173.9,253.4 158.6,264.3 
			137.8,264.3 		"/>
		<polyline fill="none" stroke="#000000" stroke-width="2" stroke-miterlimit="10" points="154.5,212 126.6,217.4 111.4,186.3 
			92.9,169.4 73.9,162.8 53.4,158.7 29.3,175 		"/>
		<path fill="none" stroke="#000000" stroke-width="2" stroke-miterlimit="10" d="M84.2,120.8l18.5-43.5c0,0,52.1,47.6,10.2,82.3
			c33.4,8.2,31.5,7.6,31.5,7.6s6.9-9.1,2-30"/>
		<polyline fill="none" stroke="#000000" stroke-width="2" stroke-miterlimit="10" points="92.9,169.4 104.5,138.7 114.9,120.8 
			102.7,77.2 		"/>
		<polyline fill="none" stroke="#000000" stroke-width="2" stroke-miterlimit="10" points="35.7,170.7 43.6,147.6 43,129.2 
			59.9,123.7 		"/>
		<polyline fill="none" stroke="#000000" stroke-width="2" stroke-miterlimit="10" points="38.8,237.4 53.9,236.1 75.5,220.9 
			111.4,186.3 112.1,159.6 		"/>
		<polyline fill="none" stroke="#000000" stroke-width="2" stroke-miterlimit="10" points="78.8,241.9 78.8,232 75.5,219.5 
			48.1,212 42.2,213.2 		"/>
		<path fill="none" stroke="#000000" stroke-width="2" stroke-miterlimit="10" d="M123.7,236.1l-26.1,1.3c0,0-5.8,1.5-13.5,2.8
			s-29.5,14.4-29.5,14.4l-11.4,1.3"/>
		<line fill="none" stroke="#000000" stroke-width="2" stroke-miterlimit="10" x1="131.1" y1="186.3" x2="143.8" y2="188.9"/>
		<polyline fill="none" stroke="#000000" stroke-width="2" stroke-miterlimit="10" points="156.2,358.3 144.3,348.7 123.3,347.4 		
			"/>
		<polyline fill="none" stroke="#000000" stroke-width="2" stroke-miterlimit="10" points="235.8,304.4 226.6,302.8 202.8,302.8 		
			"/>
		<polyline fill="none" stroke="#000000" stroke-width="2" stroke-miterlimit="10" points="269.1,316.9 263.6,316.9 250.2,316.9 		
			"/>
		<polyline fill="none" stroke="#000000" stroke-width="2" stroke-miterlimit="10" points="295.8,317 290.5,314.5 269.9,314.5 		"/>
	</g>
</g>
<g id="notes" display="none">
</g>
</svg>
