<?xml version="1.0" encoding="utf-8"?>
<!-- Generator: Adobe Illustrator 18.1.1, SVG Export Plug-In . SVG Version: 6.00 Build 0)  -->
<svg version="1.1" xmlns="http://www.w3.org/2000/svg" xmlns:xlink="http://www.w3.org/1999/xlink" x="0px" y="0px"
	 viewBox="0 0 18.6 29.7" enable-background="new 0 0 18.6 29.7" xml:space="preserve">
<g id="Layer_1">
	<g>
		<path fill="none" stroke="#A7A9AC" stroke-width="0.75" stroke-miterlimit="10" d="M12.4,5.7c0,0.5-0.1,0.9-0.3,1.3
			c-0.3,0.7-0.2,1.1-1.5,1.1C9.9,8.1,9.3,7.7,9,6.9C8.9,6.6,8.8,6.2,8.8,5.7c0-1.3,0.8-2.3,1.8-2.4C12.4,3.2,12.4,4.4,12.4,5.7z"/>
		<path fill="none" stroke="#A7A9AC" stroke-miterlimit="10" d="M9.7,7.9c0,0-3.5,6.9-4.6,10.3c6.4,2.6,7.2,2.2,7.2,2.2L10.8,8.1"/>
		<path fill="none" stroke="#A7A9AC" stroke-width="0.75" stroke-miterlimit="10" d="M9.8,9.6c1.1,1-3.6,6.1,0.8,8.4"/>
		<path fill="none" stroke="#A7A9AC" stroke-width="0.75" stroke-miterlimit="10" d="M8.9,19.6c0,0,1.6,2.7,1.7,3.3
			c0.1,0.6-3.3,3.1-3.3,3.1h1.9"/>
		<path fill="none" stroke="#A7A9AC" stroke-width="0.75" stroke-miterlimit="10" d="M8.1,19.2c0,0,0.4,3-0.5,3.4s-1.8-2.1-1.8-2.1
			l-0.9,1.2"/>
		<path fill="none" stroke="#A7A9AC" stroke-width="0.75" stroke-miterlimit="10" d="M11.2,10.7c0,0,0.5,3.4,1.3,3.5
			c0.7,0.1,1.7-3.5,1.7-3.5"/>
	</g>
</g>
<g id="notes" display="none">
</g>
</svg>
