<?xml version="1.0" encoding="utf-8"?>
<!-- Generator: Adobe Illustrator 18.1.1, SVG Export Plug-In . SVG Version: 6.00 Build 0)  -->
<svg version="1.1" xmlns="http://www.w3.org/2000/svg" xmlns:xlink="http://www.w3.org/1999/xlink" x="0px" y="0px"
	 viewBox="0 0 23.8 25.3" enable-background="new 0 0 23.8 25.3" xml:space="preserve">
<g id="Layer_1">
	<g>
		<polygon fill="none" stroke="#A7A9AC" stroke-width="0.75" stroke-miterlimit="10" points="15.7,15.9 5.2,22.1 15.7,18.3 		"/>
		<circle fill="none" stroke="#A7A9AC" stroke-width="0.75" stroke-miterlimit="10" cx="4" cy="22.4" r="1.2"/>
		<circle fill="none" stroke="#A7A9AC" stroke-miterlimit="10" cx="18.4" cy="16.8" r="2.7"/>
		<polyline fill="none" stroke="#A7A9AC" stroke-width="0.5" stroke-miterlimit="10" points="16.8,14.7 14.9,5.1 18.4,14.1 		"/>
		<circle fill="none" stroke="#A7A9AC" stroke-width="0.75" stroke-miterlimit="10" cx="13.9" cy="3.3" r="1.8"/>
		<polyline fill="none" stroke="#A7A9AC" stroke-width="0.5" stroke-miterlimit="10" points="19.1,14.1 17.7,4.1 20.3,15 		"/>
		<circle fill="none" stroke="#A7A9AC" stroke-width="0.5" stroke-miterlimit="10" cx="17.5" cy="3.3" r="1.1"/>
		<polyline fill="none" stroke="#A7A9AC" stroke-width="0.5" stroke-miterlimit="10" points="14.9,5.1 17.7,14.2 19,19.4 		"/>
		<line fill="none" stroke="#A7A9AC" stroke-width="0.75" stroke-miterlimit="10" x1="12.2" y1="3.9" x2="15.7" y2="3.3"/>
		<line fill="none" stroke="#A7A9AC" stroke-width="0.75" stroke-miterlimit="10" x1="13.4" y1="1.5" x2="14.3" y2="5.1"/>
		<polyline fill="none" stroke="#A7A9AC" stroke-width="0.5" stroke-miterlimit="10" points="17.5,2.2 17.7,4.1 19.8,14.5 		"/>
		<line fill="none" stroke="#A7A9AC" stroke-width="0.5" stroke-miterlimit="10" x1="16.4" y1="3.3" x2="18.6" y2="3.3"/>
		<line fill="none" stroke="#A7A9AC" stroke-width="0.5" stroke-miterlimit="10" x1="3.8" y1="21.2" x2="4" y2="23.7"/>
		<polyline fill="none" stroke="#A7A9AC" stroke-width="0.5" stroke-miterlimit="10" points="2.8,22.4 5.2,22.1 15.8,17.2 
			20.9,15.9 		"/>
	</g>
</g>
<g id="notes" display="none">
</g>
</svg>
