<?xml version="1.0" encoding="utf-8"?>
<!-- Generator: Adobe Illustrator 18.1.1, SVG Export Plug-In . SVG Version: 6.00 Build 0)  -->
<svg version="1.1" xmlns="http://www.w3.org/2000/svg" xmlns:xlink="http://www.w3.org/1999/xlink" x="0px" y="0px"
	 viewBox="0 0 37.3 34" enable-background="new 0 0 37.3 34" xml:space="preserve">
<g id="Layer_1">
	<g>
		<polygon fill="none" stroke="#A7A9AC" stroke-width="0.5" stroke-miterlimit="10" points="17.4,11.6 2.6,25.5 12.1,25.5 		"/>
		<polygon fill="none" stroke="#A7A9AC" stroke-width="0.75" stroke-miterlimit="10" points="17.9,12.4 16,18.1 13,26.1 14.4,26.9 
			18.7,26.9 		"/>
		<path fill="none" stroke="#A7A9AC" stroke-width="0.5" stroke-miterlimit="10" d="M17.9,9.5l4.6-8.1c0,0,4.2,4.4,5.3,4.3
			c-1.3,1.7-9.1,9.6-9.1,9.6S19,10.5,17.9,9.5z"/>
		<path fill="none" stroke="#A7A9AC" stroke-width="0.75" stroke-miterlimit="10" d="M19.8,27.3l16.1-1.1c0,0-6.6-12.3-7.4-19.2
			c-1.1,0.9-8.9,8.9-8.9,8.9L19.8,27.3z"/>
		<path fill="none" stroke="#A7A9AC" stroke-width="0.75" stroke-miterlimit="10" d="M1.9,26.2v0.7l9.2,3.9c0,0,0.2,0.2,0.7,0
			c0.4-0.2,1.6,0.1,1.6,0.1s11.6,3.9,18.3,0c0.9-0.5,3.3-1.5,3.3-1.5l0.3-0.8c0,0-12.6,0.9-23.7-1.3c0-0.3,0-0.5,0-0.5l-0.7,0
			l-0.1-0.3L1.9,26.2z"/>
		<g>
			<path fill="#A7A9AC" d="M15.2,29.1c0,0,0.9,0,2.3,0.1c1.4,0.1,3.3,0.2,5.1,0.4c1.9,0.2,3.7,0.4,5.1,0.6c1.4,0.2,2.3,0.4,2.3,0.4
				s-0.9,0-2.3-0.1c-1.4-0.1-3.3-0.2-5.1-0.4c-1.9-0.2-3.7-0.4-5.1-0.6C16.1,29.3,15.2,29.1,15.2,29.1z"/>
		</g>
		<g>
			<path fill="#A7A9AC" d="M14,29.5c0,0,0.7,0.1,1.8,0.1c1.1,0.1,2.6,0.3,4,0.4c1.5,0.2,2.9,0.4,4,0.5c1.1,0.2,1.8,0.3,1.8,0.3
				s-0.7-0.1-1.8-0.1c-1.1-0.1-2.6-0.3-4-0.4c-1.5-0.2-2.9-0.4-4-0.5C14.7,29.6,14,29.5,14,29.5z"/>
		</g>
		<g>
			<path fill="#A7A9AC" d="M17.4,30.9c0,0,0.4,0,0.9,0c0.5,0,1.2,0.1,1.9,0.2c0.7,0.1,1.4,0.2,1.9,0.3c0.5,0.1,0.9,0.2,0.9,0.2
				s-0.4,0-0.9,0c-0.5,0-1.2-0.1-1.9-0.2c-0.7-0.1-1.4-0.2-1.9-0.3C17.7,31,17.4,30.9,17.4,30.9z"/>
		</g>
		<line fill="none" stroke="#A7A9AC" stroke-width="0.25" stroke-miterlimit="10" x1="2.3" y1="26.9" x2="10.3" y2="27.4"/>
	</g>
</g>
<g id="notes" display="none">
</g>
</svg>
