<?xml version="1.0" encoding="utf-8"?>
<!-- Generator: Adobe Illustrator 18.1.1, SVG Export Plug-In . SVG Version: 6.00 Build 0)  -->
<svg version="1.1" xmlns="http://www.w3.org/2000/svg" xmlns:xlink="http://www.w3.org/1999/xlink" x="0px" y="0px"
	 viewBox="0 0 21.1 17.6" enable-background="new 0 0 21.1 17.6" xml:space="preserve">
<g id="bg__x2B__footer">
</g>
<g id="Layer_1">
	<path fill="#706062" d="M9.3,6.5c0,0,1.3,0.2,2.5-0.3c1-0.4,1.8-1.2,1.8-3c-0.1-1.6-0.9-2.5-1.8-2.9C10.5-0.2,9.1,0,9.1,0"/>
	<polygon fill="#897477" points="0,7.9 0,15 9.7,17.6 15,15.2 15,6.9 9.9,6.5 	"/>
	<path fill="none" stroke="#FFFFFF" stroke-miterlimit="10" d="M4.2,5.9"/>
	<path fill="#706062" d="M2.2,6.6c0,0,1.3,0.8,2.5,0.4c1-0.4,1.8-1.2,1.8-2.9C6.4,2.4,5.6,1.6,4.7,1.2C3.4,0.6,2.3,0.9,2.3,0.9"/>
	<ellipse fill="#FED274" cx="9.1" cy="3.3" rx="2.7" ry="3.3"/>
	<line opacity="0.28" fill="none" stroke="#FFFFFF" stroke-miterlimit="10" x1="9.9" y1="6.5" x2="9.7" y2="17.6"/>
	<ellipse fill="#FED274" cx="2.9" cy="3.9" rx="2.6" ry="3.2"/>
	<polyline fill="#706062" points="18.8,8.7 12.4,10.2 12.6,12.1 19,13.5 	"/>
	<path fill="#FFCB62" d="M19,13.5L19,13.5c-1.1,0-2.1-0.9-2.1-2.1v-0.7c0-1.1,0.9-2.1,2.1-2.1h0c1.1,0,2.1,0.9,2.1,2.1v0.7
		C21.1,12.6,20.2,13.5,19,13.5z"/>
</g>
<g id="notes">
</g>
</svg>
