<?xml version="1.0" encoding="utf-8"?>
<!-- Generator: Adobe Illustrator 18.1.1, SVG Export Plug-In . SVG Version: 6.00 Build 0)  -->
<svg version="1.1" xmlns="http://www.w3.org/2000/svg" xmlns:xlink="http://www.w3.org/1999/xlink" x="0px" y="0px"
	 viewBox="0 0 23.3 19.4" enable-background="new 0 0 23.3 19.4" xml:space="preserve">
<g id="bg__x2B__footer">
</g>
<g id="Layer_1">
	<g>
		<defs>
			<path id="SVGID_20_" d="M0,19.4c0,0,0-4.9,1.7-7.7c0.7-1.1,2.7-1.9,4.1-1.9c1.2,0,3.1,0.6,3.8,1.5c2.1,2.7,2,8.1,2,8.1H0z"/>
		</defs>
		<clipPath id="SVGID_1_">
			<use xlink:href="#SVGID_20_"  overflow="visible"/>
		</clipPath>
		<path clip-path="url(#SVGID_1_)" fill="#C56183" d="M0,19.4c0,0,0-4.9,1.7-7.7c0.7-1.1,2.7-1.9,4.1-1.9c1.2,0,3.1,0.6,3.8,1.5
			c2.1,2.7,2,8.1,2,8.1H0z"/>
		<path clip-path="url(#SVGID_1_)" fill="none" stroke="#FFFFFF" stroke-width="0.75" stroke-miterlimit="10" d="M0,18
			c0,0,2.3,0.4,5.5,0.4s6.2-0.4,6.2-0.4"/>
	</g>
	<path fill="#60ABDE" d="M14.6,6.8c-0.5,0.8-2.7,2.1-1.9,2.1s1.8-0.4,3.2-1.9c0.5-0.5,5.5-0.9,5.5-0.9c1.1,0,2-0.9,1.9-2L23,1.6
		c-0.1-0.9-0.9-1.6-2-1.6h-6.2c-3.2,0-3.5,1.2-3.3,2.9c0,0-0.1,2.8,1.1,3.1C13.8,6.4,15,6.2,14.6,6.8z"/>
	<ellipse fill="#FFFFFF" cx="14.8" cy="3.4" rx="0.6" ry="0.6"/>
	<ellipse fill="#FFFFFF" cx="17.7" cy="3.4" rx="0.6" ry="0.6"/>
	<ellipse fill="#FFFFFF" cx="20.5" cy="3.4" rx="0.6" ry="0.6"/>
	<path fill="#F6A4AF" d="M6.6,7.9H4.3c-1.7,0-3-1.4-3-3V3.2c0-1.7,1.4-3,3-3h2.3c1.7,0,3,1.4,3,3v1.7C9.6,6.6,8.2,7.9,6.6,7.9z"/>
	<path fill="none" stroke="#FFFFFF" stroke-miterlimit="10" d="M20.9,10.5"/>
	<g>
		<defs>
			<polyline id="SVGID_34_" points="4.9,7.6 5,9.9 5.8,10.2 6.7,9.9 6.8,7.4 			"/>
		</defs>
		<clipPath id="SVGID_2_">
			<use xlink:href="#SVGID_34_"  overflow="visible"/>
		</clipPath>
		<polyline clip-path="url(#SVGID_2_)" fill="#F6A4AF" points="4.9,7.6 5,9.9 5.8,10.2 6.7,9.9 6.8,7.4 		"/>
		<polygon clip-path="url(#SVGID_2_)" fill="#C0808A" points="4.9,8.3 6.8,8.3 6.8,7.9 4.9,7.9 		"/>
	</g>
</g>
<g id="notes">
</g>
</svg>
