<?xml version="1.0" encoding="utf-8"?>
<!-- Generator: Adobe Illustrator 18.1.1, SVG Export Plug-In . SVG Version: 6.00 Build 0)  -->
<svg version="1.1" id="Layer_1" xmlns="http://www.w3.org/2000/svg" xmlns:xlink="http://www.w3.org/1999/xlink" x="0px" y="0px"
	 viewBox="0 0 72.9 55.8" enable-background="new 0 0 72.9 55.8" xml:space="preserve">
<rect x="473.2" y="390.6" fill="#E5BAB3" stroke="#FFFFFF" stroke-width="0.25" stroke-miterlimit="10" width="178.8" height="178.8"/>
<rect x="286.6" y="152.3" fill="#E5BAB3" stroke="#FFFFFF" stroke-width="0.25" stroke-miterlimit="10" width="178.8" height="178.8"/>
<rect x="480" y="223.5" fill="#E5BAB3" stroke="#FFFFFF" stroke-width="0.25" stroke-miterlimit="10" width="163.3" height="163.3"/>
<rect x="479.9" y="111.1" fill="#E5BAB3" stroke="#FFFFFF" stroke-width="0.25" stroke-miterlimit="10" width="107.6" height="107.6"/>
<g>
	<g>
		<polygon fill="#FFFFFF" points="331.7,34.8 347,43.5 357.3,37.8 332,24.6 305,37.6 315.3,43.3 		"/>
		<g>
			<path d="M331.4,35.4c2.1,1.2,4.3,2.4,6.4,3.6c2.5,1.4,5.8,4.2,8.6,4.8c3.1,0.7,8.4-3.9,11.3-5.4c0.4-0.2,0.4-0.9,0-1.1
				c-4.6-2.4-9.3-4.9-13.9-7.3c-2.9-1.5-5.8-3.1-8.7-4.6c-0.9-0.4-2.1-1.4-3.1-1.4c-1,0-2.7,1.3-3.6,1.7c-3.2,1.5-6.4,3.1-9.6,4.6
				c-4.6,2.2-9.3,4.5-13.9,6.7c-0.4,0.2-0.4,0.9,0,1.1c3,1.7,8.1,6.1,11.4,5.5c2.8-0.5,6.1-3.2,8.6-4.4c2.4-1.3,4.9-2.5,7.3-3.8
				c0.7-0.4,0.1-1.4-0.6-1.1c-3.6,1.9-7.2,3.7-10.8,5.6c-1.5,0.8-3.4,2.3-5.1,2.6c-1.1,0.2,0.6,0.2-0.2,0.1c-1-0.1-2.2-1.3-3.1-1.7
				c-1.8-1-4.1-2.9-6-3.4c-1.5-0.3,0.4,0.1-0.6,0.6c0.5-0.2,1.1-0.6,1.6-0.8c4.5-1.5,8.9-4.3,13.1-6.3c3.6-1.7,7.7-4.7,11.5-5.6
				c1.1-0.2-0.6-0.5,0.9,0.2c1.8,0.8,3.6,1.9,5.3,2.8c4.6,2.4,9.2,4.8,13.8,7.2c1.5,0.8,3,1.8,4.6,2.4c1.4,0.5-0.7-0.1,0.5-0.7
				c-0.7,0.4-1.5,0.8-2.2,1.2c-2.3,1.3-4.7,3.1-7.2,4c-1.4,0.5,0.5,0.4-0.7,0.1c-0.8-0.2-1.7-1-2.4-1.3c-4.1-2.3-8.3-4.7-12.4-7
				C331.3,33.9,330.7,35,331.4,35.4z"/>
		</g>
	</g>
	<g>
		<polygon fill="#FFFFFF" points="315.3,61.8 315.3,43.3 315.3,43.3 305,37.6 306.1,68 330.9,80.9 331.4,69.6 		"/>
		<g>
			<path d="M316,61.8c0-6.2,0-12.3,0-18.5c0-0.2-0.1-0.4-0.3-0.5c-3.4-1.9-6.8-3.8-10.2-5.8c-0.4-0.2-1,0.1-0.9,0.5
				c0.4,10.1,0.7,20.3,1.1,30.4c0,0.2,0.1,0.4,0.3,0.5c8.3,4.3,16.6,8.6,24.8,12.9c0.4,0.2,0.9-0.1,0.9-0.5
				c0.2-3.7,0.3-7.5,0.5-11.2c0-0.2-0.1-0.4-0.3-0.5c-5.4-2.6-10.7-5.2-16.1-7.8c-0.7-0.4-1.4,0.7-0.6,1.1c3.7,1.8,7.4,3.6,11.1,5.4
				c1.2,0.6,3.9,1.3,4.7,2.3c0.1,0.1-0.3-0.5-0.1,0.5c0.2,1.3-0.1,2.9-0.2,4.2c-0.1,1.9,0.1,4.1-0.2,6c0.1-0.8,1.3,0,0.3-0.8
				c-0.6-0.4-1.4-0.7-2-1c-4.6-2.4-9.1-4.7-13.7-7.1c-1.9-1-3.9-2-5.8-3c-0.6-0.3-2.8-1.9-2.3-0.9c-0.4-0.7-0.1-2.5-0.1-3.3
				c-0.1-2.3-0.2-4.6-0.2-7c-0.2-5.2-0.4-10.5-0.5-15.7c0-1.3,0.1-2.7-0.1-4c-0.1-0.7-1.1,0-0.6,0.4c1,0.6,2.1,1.2,3.1,1.7
				c1.7,1,5.2,2.1,6.5,3.6c0.2,0.3-0.2-0.6,0,0.7c0.2,0.9,0,2.1,0,3.1c0,4.8,0,9.6,0,14.4C314.7,62.6,316,62.6,316,61.8z"/>
		</g>
	</g>
	<g>
		<polygon fill="#FFFFFF" points="347,43.5 347,43.5 347,61.6 331.4,69.6 331.4,69.6 330.9,80.9 356.3,67.6 357.3,37.8 		"/>
		<g>
			<path d="M346.4,43.5c0,3,0,6,0,9c0,2.1,0.9,7,0,9c0.5-1-1.4,0.4-2,0.7c-1.7,0.9-3.4,1.8-5.1,2.6c-1.9,1-6.7,4.2-7.9,4.2
				c-0.3,0-0.6,0.3-0.6,0.6c-0.2,3.7-0.3,7.5-0.5,11.2c0,0.5,0.5,0.7,0.9,0.5c8.5-4.4,16.9-8.9,25.4-13.3c0.2-0.1,0.3-0.3,0.3-0.5
				c0.3-9.9,0.7-19.8,1-29.8c0-0.5-0.5-0.8-0.9-0.5c-3.4,1.9-6.8,3.8-10.2,5.7c-0.7,0.4-0.1,1.5,0.6,1.1c2.6-1.4,7.3-2.9,9.2-5.1
				c1.3-1.5,0.1,0.4,0.1-1.1c0,0.2,0,0.6,0,0.8c-0.4,1.2-0.1,3.1-0.1,4.4c-0.2,4.5-0.3,9.1-0.5,13.6c-0.1,3.2,0.4,7.2-0.3,10.3
				c-0.3,1.2,0.7-0.4-0.3,0.4c-1.1,0.9-2.7,1.4-3.9,2c-4,2.1-8.1,4.2-12.1,6.4c-2.8,1.5-5.8,2.8-8.5,4.5c-0.5,0.4,0.7,1,0.7,0.2
				c0-0.8,0.1-1.6,0.1-2.3c0.1-2.1,0.6-4.8,0.3-6.9c-0.1-0.6,0.4-2.2-0.6-0.9c0.1-0.1,0.4-0.1,0.6-0.2c1.2-1,3.2-1.6,4.6-2.4
				c3.6-1.9,7.2-3.7,10.8-5.6c0.2-0.1,0.3-0.3,0.3-0.5c0-6,0-12.1,0-18.1C347.7,42.7,346.4,42.7,346.4,43.5z"/>
		</g>
	</g>
	<g>
		<polygon fill="#FFFFFF" points="315.3,43.3 315.3,43.3 315.3,61.8 331.4,69.6 331.2,52.2 		"/>
		<g>
			<path d="M314.7,43.3c0,6.2,0,12.3,0,18.5c0,0.2,0.1,0.4,0.3,0.5c5.4,2.6,10.7,5.2,16.1,7.8c0.4,0.2,0.9,0,0.9-0.5
				c0-3.4-0.1-6.8-0.1-10.1c0-1.7,0.7-6.1-0.2-7.6c-1.1-1.7-5.6-3.2-7.3-4.1c-2.9-1.6-5.9-3.3-8.8-4.9c-0.7-0.4-1.3,0.7-0.6,1.1
				c2.6,1.5,5.3,3,7.9,4.5c1.9,1.1,6.6,2.6,7.9,4.4c-0.6-0.9-0.2,1.4-0.2,2c0,1.9,0.1,3.8,0.1,5.7c0,2.1,0.1,4.2,0.1,6.3
				c0,0.6-0.3,3.2,0.5,2.6c0.7-0.6-1.4-1.2-2.2-1.5c-1.9-0.9-3.9-1.9-5.8-2.8c-1.6-0.8-3.3-1.6-4.9-2.4c-0.6-0.3-2.8-1.8-2.4-0.8
				c-1-2,0-7,0-9.2c0-3.1,0-6.2,0-9.2C315.9,42.5,314.7,42.5,314.7,43.3z"/>
		</g>
	</g>
	<g>
		<polygon fill="#FFFFFF" points="315.3,43.3 331.2,52.2 347,43.5 331.7,34.8 		"/>
		<g>
			<path d="M315,43.9c2.9,1.6,5.9,3.3,8.8,4.9c1.7,1,5.3,4.1,7.4,4.1c2.1,0,5.6-3,7.4-4c2.9-1.6,5.9-3.2,8.8-4.8
				c0.4-0.2,0.4-0.9,0-1.1c-3-1.7-6-3.4-8.9-5c-1.6-0.9-4.8-3.6-6.8-3.7c-1.9-0.1-5.9,3-7.6,3.9c-3,1.6-6.1,3.1-9.1,4.7
				c-0.7,0.4-0.1,1.4,0.6,1.1c2.7-1.4,5.5-2.8,8.2-4.3c2-1,5.8-4.1,8.1-4.2c-1,0.1,1.4,1.1,2,1.4c1.7,1,3.4,1.9,5.1,2.9
				s3.4,1.9,5.1,2.9c0.6,0.3,1.2,0.8,1.8,1c1.4,0.5-0.5,0.3,0.7-0.6c-2.3,1.7-5.4,3-7.9,4.3c-1.8,1-3.6,2-5.5,3
				c-0.6,0.3-2.9,1.2-1.9,1.3c-2.4-0.3-5.8-3.2-7.9-4.4c-2.6-1.5-5.3-3-7.9-4.5C314.9,42.4,314.3,43.5,315,43.9z"/>
		</g>
	</g>
	<g>
		<polygon points="331.4,69.6 331.4,69.6 347,61.6 347,43.5 347,43.5 331.2,52.2 		"/>
	</g>
</g>
<linearGradient id="SVGID_1_" gradientUnits="userSpaceOnUse" x1="558.0554" y1="274.0189" x2="558.0554" y2="290.9023">
	<stop  offset="0" style="stop-color:#FFFFFF"/>
	<stop  offset="0.6468" style="stop-color:#E8D5D3"/>
	<stop  offset="0.9159" style="stop-color:#EFC7CD"/>
</linearGradient>
<polygon fill="url(#SVGID_1_)" points="558.5,283.6 571.5,290.9 571.5,290.9 580.2,286.1 558.8,274 535.9,285.9 544.6,290.8 "/>
<linearGradient id="SVGID_2_" gradientUnits="userSpaceOnUse" x1="562.138" y1="313.8259" x2="530.3528" y2="295.4748">
	<stop  offset="0" style="stop-color:#FFFFFF"/>
	<stop  offset="0.6468" style="stop-color:#E8D5D3"/>
	<stop  offset="0.9159" style="stop-color:#EFC7CD"/>
</linearGradient>
<polygon fill="url(#SVGID_2_)" points="544.6,306.5 544.6,290.7 535.9,285.9 535.9,311.7 557,322.6 557.4,313.1 "/>
<linearGradient id="SVGID_3_" gradientUnits="userSpaceOnUse" x1="585.6107" y1="295.4329" x2="552.4062" y2="314.6035">
	<stop  offset="0" style="stop-color:#FFFFFF"/>
	<stop  offset="0.6468" style="stop-color:#E8D5D3"/>
	<stop  offset="0.9159" style="stop-color:#EFC7CD"/>
</linearGradient>
<polygon fill="url(#SVGID_3_)" points="571.5,290.8 571.5,306.2 557.4,313.1 557,322.6 580.2,311.4 580.2,286.1 "/>
<linearGradient id="SVGID_4_" gradientUnits="userSpaceOnUse" x1="574.7545" y1="296.3423" x2="554.5129" y2="308.0288">
	<stop  offset="0.1373" style="stop-color:#EFC7CD"/>
	<stop  offset="0.5555" style="stop-color:#CEA1A5"/>
</linearGradient>
<polygon fill="url(#SVGID_4_)" points="557.4,313.1 571.5,306.2 571.5,290.8 558,298 "/>
<linearGradient id="SVGID_5_" gradientUnits="userSpaceOnUse" x1="560.6089" y1="307.6206" x2="541.2488" y2="296.4431">
	<stop  offset="0.1373" style="stop-color:#EFC7CD"/>
	<stop  offset="0.5555" style="stop-color:#CEA1A5"/>
</linearGradient>
<polygon fill="url(#SVGID_5_)" points="544.6,290.7 544.6,306.5 557.4,313.1 558,298 "/>
<linearGradient id="SVGID_6_" gradientUnits="userSpaceOnUse" x1="558.0554" y1="283.5576" x2="558.0554" y2="298.0051">
	<stop  offset="0.1373" style="stop-color:#EFC7CD"/>
	<stop  offset="0.5555" style="stop-color:#CEA1A5"/>
</linearGradient>
<polygon fill="url(#SVGID_6_)" points="558.5,283.6 544.6,290.7 558,298 571.5,290.8 "/>
<linearGradient id="SVGID_7_" gradientUnits="userSpaceOnUse" x1="557.5374" y1="300.4919" x2="567.0748" y2="300.4919">
	<stop  offset="0.1373" style="stop-color:#EFC7CD"/>
	<stop  offset="0.2584" style="stop-color:#DEB6D4"/>
	<stop  offset="0.4208" style="stop-color:#CFA7DA"/>
	<stop  offset="0.6075" style="stop-color:#C69DDD"/>
	<stop  offset="0.8714" style="stop-color:#C39BDE"/>
</linearGradient>
<polygon fill="url(#SVGID_7_)" points="557.5,308 567.1,303.4 567.1,293 558,298 "/>
<linearGradient id="SVGID_8_" gradientUnits="userSpaceOnUse" x1="557.952" y1="300.5061" x2="548.8292" y2="300.5061">
	<stop  offset="0.1373" style="stop-color:#EFC7CD"/>
	<stop  offset="0.2584" style="stop-color:#DEB6D4"/>
	<stop  offset="0.4208" style="stop-color:#CFA7DA"/>
	<stop  offset="0.6075" style="stop-color:#C69DDD"/>
	<stop  offset="0.8714" style="stop-color:#C39BDE"/>
</linearGradient>
<polygon fill="url(#SVGID_8_)" points="548.8,293 548.9,303.5 557.5,308 558,298 "/>
<linearGradient id="SVGID_9_" gradientUnits="userSpaceOnUse" x1="557.952" y1="298.0051" x2="557.952" y2="288.0012">
	<stop  offset="0.1373" style="stop-color:#EFC7CD"/>
	<stop  offset="0.2584" style="stop-color:#DEB6D4"/>
	<stop  offset="0.4208" style="stop-color:#CFA7DA"/>
	<stop  offset="0.6075" style="stop-color:#C69DDD"/>
	<stop  offset="0.8714" style="stop-color:#C39BDE"/>
</linearGradient>
<polygon fill="url(#SVGID_9_)" points="558.3,288 548.8,293 558,298 567.1,293.1 "/>
<polygon opacity="0.5" fill="#001689" points="558,298 557,322.6 578.5,332.6 602.5,320.7 580.2,311.4 580.2,286.1 "/>
<polygon opacity="0.28" fill="#CC003D" points="558,298 535.9,285.9 558.8,274 580.2,286.1 "/>
<polygon opacity="0.5" fill="#A0A1A2" points="557,322.6 580.2,311.4 602.5,320.7 578.5,332.6 "/>
<linearGradient id="SVGID_10_" gradientUnits="userSpaceOnUse" x1="535.885" y1="142.1358" x2="535.885" y2="154.0411">
	<stop  offset="0" style="stop-color:#FFFFFF"/>
	<stop  offset="0.6468" style="stop-color:#E8D5D3"/>
	<stop  offset="0.9159" style="stop-color:#EFC7CD"/>
</linearGradient>
<polygon fill="url(#SVGID_10_)" points="536.2,148.9 545.4,154 545.4,154 551.5,150.7 536.4,142.1 520.3,150.5 526.4,153.9 "/>
<linearGradient id="SVGID_11_" gradientUnits="userSpaceOnUse" x1="538.7638" y1="170.2055" x2="516.3506" y2="157.2653">
	<stop  offset="0" style="stop-color:#FFFFFF"/>
	<stop  offset="0.6468" style="stop-color:#E8D5D3"/>
	<stop  offset="0.9159" style="stop-color:#EFC7CD"/>
</linearGradient>
<polygon fill="url(#SVGID_11_)" points="526.4,165 526.4,153.9 520.3,150.5 520.3,168.7 535.2,176.4 535.5,169.7 "/>
<linearGradient id="SVGID_12_" gradientUnits="userSpaceOnUse" x1="555.3153" y1="157.2355" x2="531.9014" y2="170.7535">
	<stop  offset="0" style="stop-color:#FFFFFF"/>
	<stop  offset="0.6468" style="stop-color:#E8D5D3"/>
	<stop  offset="0.9159" style="stop-color:#EFC7CD"/>
</linearGradient>
<polygon fill="url(#SVGID_12_)" points="545.4,153.9 545.4,164.9 535.5,169.7 535.2,176.4 551.5,168.5 551.5,150.7 "/>
<linearGradient id="SVGID_13_" gradientUnits="userSpaceOnUse" x1="537.6855" y1="165.8299" x2="524.0339" y2="157.9481">
	<stop  offset="0.1373" style="stop-color:#EFC7CD"/>
	<stop  offset="0.5555" style="stop-color:#CEA1A5"/>
</linearGradient>
<polygon fill="url(#SVGID_13_)" points="526.4,153.9 526.4,165 535.5,169.7 535.8,159 "/>
<linearGradient id="SVGID_14_" gradientUnits="userSpaceOnUse" x1="535.8121" y1="160.8112" x2="529.3792" y2="160.8112">
	<stop  offset="0.1373" style="stop-color:#EFC7CD"/>
	<stop  offset="0.2584" style="stop-color:#DEB6D4"/>
	<stop  offset="0.4208" style="stop-color:#CFA7DA"/>
	<stop  offset="0.6075" style="stop-color:#C69DDD"/>
	<stop  offset="0.8714" style="stop-color:#C39BDE"/>
</linearGradient>
<polygon fill="url(#SVGID_14_)" points="529.4,155.5 529.4,162.9 535.5,166.1 535.8,159 "/>
<linearGradient id="SVGID_15_" gradientUnits="userSpaceOnUse" x1="535.8968" y1="159.0495" x2="535.8968" y2="151.9953">
	<stop  offset="0.1373" style="stop-color:#EFC7CD"/>
	<stop  offset="0.2584" style="stop-color:#DEB6D4"/>
	<stop  offset="0.4208" style="stop-color:#CFA7DA"/>
	<stop  offset="0.6075" style="stop-color:#C69DDD"/>
	<stop  offset="0.8714" style="stop-color:#C39BDE"/>
</linearGradient>
<polyline fill="url(#SVGID_15_)" points="542.4,155.5 536,152 529.4,155.5 535.8,159 "/>
<polygon opacity="0.5" fill="#001689" points="535.8,159 535.2,176.4 551.5,168.5 551.5,150.7 "/>
<polygon opacity="0.28" fill="#CC003D" points="535.8,159 520.3,150.5 536.4,142.1 551.5,150.7 "/>
<text transform="matrix(1 0 0 1 307.3729 293.8898)" fill="#FFFFFF" font-family="'GothamRounded-Book'" font-size="5">UC BERKELEY UNDERGRADUATE GRAPHICS GROUP</text>
<polygon fill="none" stroke="#FFFFFF" stroke-width="0.2992" stroke-miterlimit="10" points="521.3,151.7 536.3,144 550.1,152 
	550.1,167.5 535.2,174.6 521.3,167.5 "/>
<polyline fill="none" stroke="#FFFFFF" stroke-width="0.2992" stroke-miterlimit="10" points="521.3,151.7 535.7,160 550.1,152 "/>
<g>
	<text transform="matrix(1 0 0 1 336.206 302.1205)" fill="#FFFFFF" font-family="'GothamRounded-Medium'" font-size="5">3D MODELING AND ANIMATION</text>
</g>
<rect x="287" y="336.4" fill="#E5BAB3" stroke="#FFFFFF" stroke-width="0.25" stroke-miterlimit="10" width="178.8" height="178.8"/>
<g>
	<g>
		<path d="M375.7,420c-8.7-4.9-17.4-9.8-26.1-14.7c-0.6-0.3-1.1,0.5-0.5,0.9c8.7,4.9,17.4,9.8,26.1,14.7
			C375.7,421.1,376.2,420.3,375.7,420L375.7,420z"/>
	</g>
</g>
<g>
	<polygon fill="#FFFFFF" points="359.5,411.5 375.9,404 391.3,411.6 390.3,429.7 374.7,437.8 360.6,428.5 	"/>
	<g>
		<path d="M359.9,412c4.1-1.9,8.3-3.8,12.4-5.7c1-0.5,2.1-0.9,3.1-1.4c1-0.5,0.5-0.3,0.5-0.3c2.2,1.1,4.4,2.2,6.5,3.3
			c2.4,1.2,4.7,2.4,7.1,3.5c1.8,0.9,1.2,0,1.1,2.3c-0.3,5.2-0.6,10.5-0.9,15.7c0,0.2,0.6-0.4-0.2,0c-0.9,0.5-1.8,1-2.8,1.4
			c-2.8,1.4-5.5,2.9-8.3,4.3c-1,0.5-2.1,1.1-3.1,1.6c-1.1,0.6-0.5,0.3-0.5,0.3c-2-1.3-4-2.6-6-4c-2.2-1.4-4.3-2.9-6.5-4.3
			c-1.7-1.1-1-0.2-1.2-2.7c-0.3-4.9-0.6-9.8-0.9-14.7c0-0.8-1.3-0.8-1.2,0c0.2,3.2,0.4,6.3,0.6,9.5c0.1,1.9-0.5,6.1,0.5,7.8
			c1,1.7,4.8,3.3,6.5,4.3c2.6,1.7,5.2,3.5,7.9,5.2c0.2,0.1,0.4,0.1,0.6,0c2.7-1.4,5.5-2.8,8.2-4.3c1.7-0.9,6.6-2.3,7.6-4
			c1.1-1.8,0.4-6.3,0.5-8.4c0.2-3.3,0.4-6.7,0.6-10c0-0.2-0.1-0.4-0.3-0.5c-2.9-1.4-5.7-2.8-8.6-4.3c-1.4-0.7-5.7-3.9-7.3-3.4
			c-5.6,1.5-11.2,5.1-16.6,7.6C358.5,411.3,359.1,412.4,359.9,412z"/>
	</g>
</g>
<polyline fill="none" stroke="#000000" stroke-width="0.25" stroke-miterlimit="10" points="373,405.3 387.9,413.5 387.9,431.1 "/>
<polyline fill="none" stroke="#000000" stroke-width="0.25" stroke-miterlimit="10" points="358.1,401.6 383.2,416.4 383.2,433.8 
	"/>
<polyline fill="none" stroke="#000000" stroke-width="0.25" stroke-miterlimit="10" points="352.3,404.2 378.2,418.8 378.2,436.1 
	"/>
<polyline fill="none" stroke="#000000" stroke-width="0.25" stroke-miterlimit="10" points="372.7,436.8 372.5,418.7 389.3,410.7 
	"/>
<polyline fill="none" stroke="#000000" stroke-width="0.25" stroke-miterlimit="10" points="367.3,432.8 367.3,415.8 384.4,408.2 
	"/>
<polyline fill="none" stroke="#000000" stroke-width="0.25" stroke-miterlimit="10" points="362.4,430.2 362.7,413.1 379.5,405.7 
	"/>
<polyline fill="none" stroke="#000000" stroke-width="0.25" stroke-miterlimit="10" points="349.3,411.3 375.3,426.2 391.3,417.7 
	"/>
<polyline fill="none" stroke="#000000" stroke-width="0.25" stroke-miterlimit="10" points="349.3,417.8 375,432.8 390.5,424.3 "/>
<g>
	<g>
		<path d="M538.6,437.2c5.1-2.6,10.2-5.3,15.3-7.9c3-1.6,6-3.1,9-4.7c0.8-0.4,1.6-0.8,2.4-1.2c0.3-0.1-0.5-0.3,0.6,0.3
			c6.1,3.4,12.2,6.9,18.3,10.3c2,1.1,3.9,2.2,5.9,3.3c-0.2-0.1-0.2-0.6-0.2,0.6c0,1.4,0,2.8,0,4.2c0,7.3,0,14.7,0,22
			c0,0.8,0,1.5,0,2.3c0-0.3,0.4-0.4-0.6,0.1c-2.8,1.4-5.6,2.7-8.4,4.1c-5.9,2.9-11.8,5.7-17.7,8.6c-0.5,0.2,0.7,0.4-0.3-0.2
			c-0.9-0.5-1.9-1-2.8-1.5c-3.4-1.8-6.9-3.6-10.3-5.3c-3.5-1.8-7-3.6-10.5-5.4c-0.9-0.4-0.3,0.6-0.3-0.8c0-1.6,0-3.3,0-4.9
			c0-8.2,0-16.3-0.1-24.5c0-0.8-1.3-0.8-1.2,0c0,10.1,0,20.3,0.1,30.4c0,0.2,0.1,0.4,0.3,0.5c4.6,2.4,9.2,4.7,13.7,7.1
			c2.8,1.4,5.5,2.9,8.3,4.3c0.7,0.3,2.4,1.8,3.3,1.5c4.4-1.2,8.9-4.3,12.9-6.3c4.8-2.4,9.7-4.7,14.5-7.1c0.2-0.1,0.3-0.3,0.3-0.5
			c0-9.9,0-19.8,0-29.8c0-0.2-0.1-0.4-0.3-0.5c-4.5-2.5-9-5.1-13.5-7.6c-3-1.7-6-3.4-9-5.1c-0.6-0.4-2.4-1.8-3.2-1.6
			c-4.3,1.2-8.8,4.6-12.8,6.6c-4.8,2.5-9.6,5-14.4,7.5C537.2,436.5,537.9,437.6,538.6,437.2z"/>
	</g>
</g>
<g>
	<polygon fill="#FFFFFF" points="548.5,442.5 564.9,434 580.3,442.6 580.3,460.7 563.7,468.8 548.5,461 	"/>
	<g>
		<path d="M548.8,443c4.4-2.3,8.8-4.5,13.2-6.8c0.9-0.5,1.8-0.9,2.7-1.4c0.8-0.4-0.4-0.4,0.4,0c2.2,1.3,4.5,2.5,6.7,3.8
			c2.4,1.4,4.8,2.7,7.2,4.1c1,0.6,0.6,0.3,0.6,0.2c0,0.9,0,1.7,0,2.6c0,5.1,0,10.1,0,15.2c0-0.7-0.2-0.2-1.1,0.2
			c-1.1,0.6-2.3,1.1-3.4,1.7c-2.8,1.4-5.6,2.7-8.5,4.1c-0.9,0.4-1.8,0.9-2.8,1.3c-0.9,0.4,0.4,0.4-0.5,0c-2.3-1.2-4.7-2.4-7-3.6
			c-2.3-1.2-4.7-2.4-7-3.6c-0.8-0.4-0.2,0.6-0.2-0.3c0-1,0-2.1,0-3.1c0-4.9,0-9.9,0-14.8c0-0.8-1.3-0.8-1.2,0c0,6.2,0,12.3,0,18.5
			c0,0.2,0.1,0.4,0.3,0.5c2.8,1.5,5.6,2.9,8.4,4.4c1.3,0.7,5.6,4,7.2,3.5c5.7-1.6,11.4-5.6,16.7-8.1c0.2-0.1,0.3-0.3,0.3-0.5
			c0-6,0-12.1,0-18.1c0-0.2-0.1-0.4-0.3-0.5c-2.7-1.5-5.4-3-8.1-4.6c-1.8-1-5.5-4.2-7.6-4.2c-2.2,0-5.8,2.9-7.6,3.9
			c-3,1.6-6.1,3.1-9.1,4.7C547.5,442.3,548.1,443.4,548.8,443z"/>
	</g>
</g>
<g>
	<g>
		<path d="M537.9,437.2c4.5,2.5,9,5,13.5,7.6c3.1,1.7,6.2,3.5,9.3,5.2c0.9,0.5,2.5,1.9,3.6,1.9c0.9,0,2.3-1.2,3-1.6c3-1.7,6-3.3,9-5
			c4.8-2.6,9.6-5.3,14.4-7.9c0.7-0.4,0.1-1.5-0.6-1.1c-8.7,4.8-17.4,9.6-26.1,14.4c0.5-0.3,0.6,0-0.3-0.5c-1-0.6-2-1.1-3-1.7
			c-2.9-1.6-5.8-3.3-8.7-4.9c-4.5-2.5-9-5-13.5-7.6C537.9,435.8,537.2,436.9,537.9,437.2L537.9,437.2z"/>
	</g>
</g>
<g>
	<g>
		<path d="M563.8,451.4c-0.4,9.5-0.8,19.1-1.2,28.6c0,0.8,1.2,0.8,1.2,0c0.4-9.5,0.8-19.1,1.2-28.6
			C565,450.6,563.8,450.6,563.8,451.4L563.8,451.4z"/>
	</g>
</g>
<polyline fill="none" stroke="#000000" stroke-width="0.25" stroke-miterlimit="10" points="551.6,429.8 576.8,444.5 576.8,473.4 
	"/>
<polyline fill="none" stroke="#000000" stroke-width="0.25" stroke-miterlimit="10" points="546.2,432.6 571.3,447.6 571.3,476.1 
	"/>
<polyline fill="none" stroke="#000000" stroke-width="0.25" stroke-miterlimit="10" points="541.2,435.2 567.2,449.8 566.1,478.6 
	"/>
<polyline fill="none" stroke="#000000" stroke-width="0.25" stroke-miterlimit="10" points="560.4,478.6 561.4,449.7 587.3,435.2 
	"/>
<polyline fill="none" stroke="#000000" stroke-width="0.25" stroke-miterlimit="10" points="555.6,476.1 556.9,447.2 582.8,432.6 
	"/>
<polyline fill="none" stroke="#000000" stroke-width="0.25" stroke-miterlimit="10" points="550.3,473.4 551.6,444 577.6,429.7 "/>
<polyline fill="none" stroke="#000000" stroke-width="0.25" stroke-miterlimit="10" points="543.4,469.8 544,440 570.7,425.8 "/>
<polyline fill="none" stroke="#000000" stroke-width="0.25" stroke-miterlimit="10" points="560.4,425.8 584.6,440.2 584.6,469.6 
	"/>
<polyline fill="none" stroke="#000000" stroke-width="0.25" stroke-miterlimit="10" points="538.3,442.3 564.2,457.1 590.5,442.3 
	"/>
<polyline fill="none" stroke="#000000" stroke-width="0.25" stroke-miterlimit="10" points="538.3,449.7 564,464.1 590.5,449.1 "/>
<polyline fill="none" stroke="#000000" stroke-width="0.25" stroke-miterlimit="10" points="538.3,457.1 563.6,471.3 590.5,457.1 
	"/>
<polyline fill="none" stroke="#000000" stroke-width="0.25" stroke-miterlimit="10" points="538.3,462.8 563.3,476.8 590.5,462.8 
	"/>
<circle fill="none" stroke="#000000" stroke-width="0.25" stroke-miterlimit="10" cx="372.5" cy="421" r="44.5"/>
<path id="SVGID_x5F_16_x5F_" fill="none" d="M408.9,419.1c1.1,20.3-14.5,37.6-34.7,38.7c-20.3,1.1-37.6-14.5-38.7-34.7
	c-1.1-20.3,14.5-37.6,34.7-38.7S407.8,398.8,408.9,419.1z"/>
<text><textPath  xlink:href="#SVGID_x5F_16_x5F_" startOffset="70.1307%">
<tspan  font-family="'GothamRounded-Book'" font-size="4.1294">UC BERKELEY UNDERGRADUATE GRAPHICS GROUP</tspan></textPath>
</text>
<path id="SVGID_x5F_17_x5F_" fill="none" d="M409.7,444.3c1.1,20.3-14.5,39.6-34.7,40.7s-37.6-16.5-38.7-36.7
	c-1.1-20.3,5,10.9,36.7,11.1C406.9,459.5,408.6,424,409.7,444.3z"/>
<text><textPath  xlink:href="#SVGID_x5F_17_x5F_" startOffset="70.1307%">
<tspan  font-family="'GothamRounded-Medium'" font-size="4.1294">        3D MODELING AND ANIMATION</tspan></textPath>
</text>
<line fill="none" stroke="#FFFFFF" stroke-width="0.2992" stroke-miterlimit="10" x1="535.7" y1="160" x2="535.2" y2="174.6"/>
<g>
	<linearGradient id="SVGID_18_" gradientUnits="userSpaceOnUse" x1="26.0498" y1="-1.172924e-06" x2="26.0498" y2="18.4949">
		<stop  offset="0" style="stop-color:#FFFFFF"/>
		<stop  offset="0.6468" style="stop-color:#E8D5D3"/>
		<stop  offset="0.9159" style="stop-color:#EFC7CD"/>
	</linearGradient>
	<polygon fill="url(#SVGID_18_)" points="26.6,9.9 41.9,18.5 41.9,18.5 52.1,12.9 26.9,0 0,12.6 10.2,18.2 	"/>
	<linearGradient id="SVGID_19_" gradientUnits="userSpaceOnUse" x1="31.702" y1="45.553" x2="-6.3398" y2="23.5896">
		<stop  offset="0" style="stop-color:#FFFFFF"/>
		<stop  offset="0.6468" style="stop-color:#E8D5D3"/>
		<stop  offset="0.9159" style="stop-color:#EFC7CD"/>
	</linearGradient>
	<polygon fill="url(#SVGID_19_)" points="10.2,37.3 10.2,18.2 0,12.6 0,42.2 25.9,55.6 25.9,44.5 	"/>
	<linearGradient id="SVGID_20_" gradientUnits="userSpaceOnUse" x1="58.1844" y1="23.3987" x2="20.0689" y2="45.4047">
		<stop  offset="0" style="stop-color:#FFFFFF"/>
		<stop  offset="0.6468" style="stop-color:#E8D5D3"/>
		<stop  offset="0.9159" style="stop-color:#EFC7CD"/>
	</linearGradient>
	<polygon fill="url(#SVGID_20_)" points="41.8,18.3 40.8,36.4 25.9,44.5 25.9,55.6 50.8,42.2 52.1,12.9 	"/>
	<linearGradient id="SVGID_21_" gradientUnits="userSpaceOnUse" x1="29.3431" y1="38.5528" x2="6.1962" y2="25.1889">
		<stop  offset="0.1373" style="stop-color:#EFC7CD"/>
		<stop  offset="0.5555" style="stop-color:#CEA1A5"/>
	</linearGradient>
	<polygon fill="url(#SVGID_21_)" points="10.2,18.2 10.2,37.3 25.9,44.5 25.9,26.8 	"/>
	<linearGradient id="SVGID_22_" gradientUnits="userSpaceOnUse" x1="25.9283" y1="29.8882" x2="15.2092" y2="29.8882">
		<stop  offset="0.1373" style="stop-color:#EFC7CD"/>
		<stop  offset="0.2584" style="stop-color:#DEB6D4"/>
		<stop  offset="0.4208" style="stop-color:#CFA7DA"/>
		<stop  offset="0.6075" style="stop-color:#C69DDD"/>
		<stop  offset="0.8714" style="stop-color:#C39BDE"/>
	</linearGradient>
	<polygon fill="url(#SVGID_22_)" points="15.2,21 15.2,33.6 25.9,38.8 25.9,26.8 	"/>
	<polygon opacity="0.38" fill="#001689" points="25.9,26.8 25.9,55.6 60.2,55.8 72.9,46.4 57.3,37.8 50.9,37.3 52.1,12.9 	"/>
	<polygon opacity="0.42" fill="#CC003D" points="25.9,26.8 0,12.6 26.9,0 52.1,12.9 	"/>
	<polygon opacity="0.35" fill="#A0A1A2" points="25.9,55.6 50.8,42.2 50.9,37.3 57.3,37.8 72.9,46.4 60.2,55.8 	"/>
</g>
<g>
	<linearGradient id="SVGID_23_" gradientUnits="userSpaceOnUse" x1="374.8059" y1="204.3689" x2="374.8059" y2="217.728">
		<stop  offset="0" style="stop-color:#FFFFFF"/>
		<stop  offset="0.6468" style="stop-color:#E8D5D3"/>
		<stop  offset="0.9159" style="stop-color:#EFC7CD"/>
	</linearGradient>
	<polygon fill="url(#SVGID_23_)" points="375.2,211.5 386.2,217.7 386.2,217.7 393.6,213.7 375.4,204.4 356,213.5 363.4,217.5 	"/>
	<linearGradient id="SVGID_24_" gradientUnits="userSpaceOnUse" x1="378.8887" y1="237.2725" x2="351.4105" y2="221.408">
		<stop  offset="0" style="stop-color:#FFFFFF"/>
		<stop  offset="0.6468" style="stop-color:#E8D5D3"/>
		<stop  offset="0.9159" style="stop-color:#EFC7CD"/>
	</linearGradient>
	<polygon fill="url(#SVGID_24_)" points="363.4,230.3 363.4,217.5 356,213.5 356,234.8 374.7,244.5 374.7,236.5 	"/>
	<linearGradient id="SVGID_25_" gradientUnits="userSpaceOnUse" x1="398.0172" y1="221.2701" x2="370.4858" y2="237.1653">
		<stop  offset="0" style="stop-color:#FFFFFF"/>
		<stop  offset="0.6468" style="stop-color:#E8D5D3"/>
		<stop  offset="0.9159" style="stop-color:#EFC7CD"/>
	</linearGradient>
	<polygon fill="url(#SVGID_25_)" points="386.2,217.6 385.5,230.6 374.7,236.5 374.7,244.5 392.7,234.8 393.6,213.7 	"/>
	<linearGradient id="SVGID_26_" gradientUnits="userSpaceOnUse" x1="377.4013" y1="231.8411" x2="360.682" y2="222.1882">
		<stop  offset="0.1373" style="stop-color:#EFC7CD"/>
		<stop  offset="0.5555" style="stop-color:#CEA1A5"/>
	</linearGradient>
	<polygon fill="url(#SVGID_26_)" points="363.4,217.5 363.4,230.3 374.7,236.5 374.7,223.8 	"/>
	<linearGradient id="SVGID_27_" gradientUnits="userSpaceOnUse" x1="374.7182" y1="225.9576" x2="366.9757" y2="225.9576">
		<stop  offset="0.1373" style="stop-color:#EFC7CD"/>
		<stop  offset="0.2584" style="stop-color:#DEB6D4"/>
		<stop  offset="0.4208" style="stop-color:#CFA7DA"/>
		<stop  offset="0.6075" style="stop-color:#C69DDD"/>
		<stop  offset="0.8714" style="stop-color:#C39BDE"/>
	</linearGradient>
	<polygon fill="url(#SVGID_27_)" points="367,219.5 367,228.2 374.7,232.4 374.7,223.8 	"/>
	<polygon opacity="0.38" fill="#001689" points="374.7,223.8 374.7,244.5 399.5,244.7 408.7,237.9 397.4,231.7 392.8,231.3 
		393.6,213.7 	"/>
	<polygon opacity="0.42" fill="#CC003D" points="374.7,223.8 356,213.5 375.4,204.4 393.6,213.7 	"/>
	<polygon opacity="0.35" fill="#A0A1A2" points="374.7,244.5 392.7,234.8 392.8,231.3 397.4,231.7 408.7,237.9 399.5,244.7 	"/>
</g>
</svg>
