<?xml version="1.0" encoding="utf-8"?>
<!-- Generator: Adobe Illustrator 18.1.1, SVG Export Plug-In . SVG Version: 6.00 Build 0)  -->
<svg version="1.1" xmlns="http://www.w3.org/2000/svg" xmlns:xlink="http://www.w3.org/1999/xlink" x="0px" y="0px"
	 viewBox="0 0 1000 262.3" enable-background="new 0 0 1000 262.3" xml:space="preserve">
<g id="Layer_1">
	<linearGradient id="SVGID_1_" gradientUnits="userSpaceOnUse" x1="500" y1="16.047" x2="500" y2="276.9865">
		<stop  offset="0.1717" style="stop-color:#EACBB1;stop-opacity:0.5"/>
		<stop  offset="0.2028" style="stop-color:#EBC8AF;stop-opacity:0.5"/>
		<stop  offset="0.401" style="stop-color:#F0B59F;stop-opacity:0.5"/>
		<stop  offset="0.6003" style="stop-color:#F3A795;stop-opacity:0.5"/>
		<stop  offset="0.7997" style="stop-color:#F69F8F;stop-opacity:0.5"/>
		<stop  offset="1" style="stop-color:#F79D8D;stop-opacity:0.5"/>
	</linearGradient>
	<path fill="url(#SVGID_1_)" d="M0,39.1c0,0,48.3-8.9,128.2,7.3c58.3,11.8,58.3,11.8,106.4,11.8c75.6,0,90.3-13.8,137.2-18.6
		c62.3-6.4,86.9-3.6,131.6-11.2s92.7-35,233.7-27s177,36.9,214.5,45.5c37.5,8.6,48.4,13.4,48.4,13.4v200.6H0V39.1z"/>
	<linearGradient id="SVGID_2_" gradientUnits="userSpaceOnUse" x1="500" y1="68.806" x2="500" y2="262.2886">
		<stop  offset="0" style="stop-color:#E8C09B"/>
		<stop  offset="1" style="stop-color:#DC5566"/>
	</linearGradient>
	<path fill="url(#SVGID_2_)" d="M0,138.5c0,0,134.9-55.2,231.2-33.2c35.2,8.1,57.1,4.7,91.8-5.2c69.4-19.8,88.8-8.6,116-18.2
		c34-12,122-22.1,185.5,0c58.1,20.2,131.8-6.6,194.5,25.2c62,31.4,82.1,12.2,138,23.2c33,6.5,43,0,43,0v132H0V138.5z"/>
</g>
<g id="notes" display="none">
</g>
</svg>
