<?xml version="1.0" encoding="utf-8"?>
<!-- Generator: Adobe Illustrator 18.1.1, SVG Export Plug-In . SVG Version: 6.00 Build 0)  -->
<svg version="1.1" xmlns="http://www.w3.org/2000/svg" xmlns:xlink="http://www.w3.org/1999/xlink" x="0px" y="0px"
	 viewBox="0 0 11.6 24.7" enable-background="new 0 0 11.6 24.7" xml:space="preserve">
<g id="bg__x2B__footer">
</g>
<g id="Layer_1">
	<linearGradient id="SVGID_1_" gradientUnits="userSpaceOnUse" x1="3.2178" y1="3.719178e-07" x2="3.2178" y2="24.6699">
		<stop  offset="0" style="stop-color:#F1F2F2"/>
		<stop  offset="0.37" style="stop-color:#E7EFF3;stop-opacity:0.767"/>
		<stop  offset="0.9526" style="stop-color:#D7EFF8;stop-opacity:0.4"/>
	</linearGradient>
	<path fill="url(#SVGID_1_)" d="M6.4,24.7c0,0-7-2.9-5.2-9.5s5.2-9.4,2.6-13C3,1,0,0,0,0s5.9,0.6,6.4,6.7S2.5,16.9,3.8,19.6
		S6.4,24.7,6.4,24.7z"/>
	<linearGradient id="SVGID_2_" gradientUnits="userSpaceOnUse" x1="9.5636" y1="6.5349" x2="9.5636" y2="22.5635">
		<stop  offset="0" style="stop-color:#F1F2F2"/>
		<stop  offset="0.37" style="stop-color:#E7EFF3;stop-opacity:0.767"/>
		<stop  offset="0.9526" style="stop-color:#D7EFF8;stop-opacity:0.4"/>
	</linearGradient>
	<path fill="url(#SVGID_2_)" d="M8.7,22.6c0,0-1.9-4.5,0.1-7.8c1-1.5,1.8-1.7,1.3-4.4C9.6,7.7,8.2,6.5,8.2,6.5s2.1,0.8,2.7,2.4
		c1,2.7-0.1,4.9-1.1,6.7s-1.1,2.6-1.2,3.7L8.7,22.6z"/>
</g>
<g id="notes">
</g>
</svg>
