<?xml version="1.0" encoding="utf-8"?>
<!-- Generator: Adobe Illustrator 18.1.1, SVG Export Plug-In . SVG Version: 6.00 Build 0)  -->
<svg version="1.1" id="Layer_1" xmlns="http://www.w3.org/2000/svg" xmlns:xlink="http://www.w3.org/1999/xlink" x="0px" y="0px"
	 viewBox="0 0 294.3 239.7" enable-background="new 0 0 294.3 239.7" xml:space="preserve">
<g>
	<path fill="none" stroke="#000000" stroke-miterlimit="10" d="M17.2,61.6L13.1,68l-1.7,10.6l5.8,8.5c0,0,1.4,12.3,1.1,16.3
		c1.5,1.6,3.2,5.2,3.2,5.2s-1.6,6.2-6.6,9.3c-1,0.6-1.8,1.5-2.2,2.5c-1.6,3.8-1.3,4.8-1.3,4.8l-0.6,0.3c-1.5,0.7-2.5,2.2-2.5,3.8
		l0,4.3c0,2.1,1.7,3.8,3.8,3.8h1.7c0,0-1,5,8.6,4.6l2.4,2.7h5.9c1.8,0,3.4-0.8,4.7-2c1.1-1.1,2.6-2.4,4.5-3.3
		c1.4-0.6,3.1-1.4,4.6-2.1c2.5-1.2,5.2-2.1,7.9-2.8l0.7-0.2c2.3-0.6,4.6-0.9,6.9-0.9l1.5,0c0,0,2.3,0.8,5,1.6c3.6,1,7.1,2.4,10.4,4
		c6.3,3.1,14.1,6.7,14.1,6.7l6.2,19.8c0,0-1,27.9-5.2,35.9c-4.1,8-13.9,25.8-13.9,25.8s-1,8,3.6,10.4l16,0.5l13.4-12.9v-2.5l2.6-4.6
		v-9.3c0,0,9.8-20.4,11.3-30.8s0-19.9,0-19.9l19.1,0.9l8.2-5.3l14.4-3.8L155,165.6c0,0-8.6,5.6-10.8,36.4c6.1,7.5,8.7,8.9,8.7,8.9
		l10.3-1.5l10.8-21.4c0,0-0.5-8.4,0-13.4c0.5-5,7.2-13.4,7.2-13.4s3.6,12.9,7.2,16.9v9.4l-5.7,4.5l0.5,10.9h2.6l11.3,0.5
		c0,0,3.1,8,9.3,9.4c8.2,0,10.8-2,10.8-2s6.2-17.4,2.6-26.3c9.8-6.5,17.5-16.9,17.5-16.9s2.1-20.9,4.6-28.3
		c2.6-7.5,11.9-22.4,11.3-46.2c5.2,1.5,13.9-1.5,13.9-1.5l19.1-8.9l6.2-13.4L290,39.4c0,0-11.3-8-17-8.4
		c-10.3,8-16.5,11.4-16.5,11.4l-8.2,1.5c0,0-10.3-5.5-13.9-5.5c-3.6,0-14.4,6.5-14.4,6.5s-12.9-8.4-16.5-9.9c-8.8,0-16-1.5-27.8,0.5
		c-13.9,4.5-31.4,10.4-31.4,10.4s-19.1,4.5-40.8,3c-2.1-12.4-6.6-14.5-6.6-14.5l-1-10.4c0,0-20.6-22.7-26.8-22.3L53.6,25.5
		c0,0-8.8-4.5-21.6-6L3.7,9.6C3.7,9.6-5.6,14.8,17.2,61.6z"/>
	<path fill="none" stroke="#000000" stroke-miterlimit="10" d="M197.3,203.4c-1-8.4,7.2-24.8,7.2-24.8l8.8-8l0,0l3.6-12.9
		c-6.2-11.4-9.8-41.5-9.8-41.5h-4.1l-1.6-1.5h-3l0.3,8.7l3.6,2.9c-0.5,5.9-5,10.3-5,10.3l2.2,17.1l1.3,17.4l3.9,7.5"/>
	<path fill="none" stroke="#000000" stroke-miterlimit="10" d="M220,44.9c0,0,31.2,15.7,33.5,48.2"/>
	<path fill="none" stroke="#000000" stroke-miterlimit="10" d="M207.1,116.3c0,0,0.1-0.4,0.1-1c0.4-5.2-2.8-10.1-7.7-12
		c-4.4-1.7-8.6-2.7-15.1-1.5c-1.2,0.2-2.4,0.7-3.4,1.4c-3.7,3-2.8,7.9,1.9,11.5c6.2,4.9,15.7,8.7,15.7,8.7"/>
	<path fill="none" stroke="#000000" stroke-miterlimit="10" d="M91.1,145.8c0,0,14.9,9.4,34,12.4"/>
	<path fill="none" stroke="#000000" stroke-miterlimit="10" d="M53.6,25.5c0,0-4.3,5-9.4,14.5c-14.9,10.9-27,21.7-27,21.7"/>
	<path fill="none" stroke="#000000" stroke-miterlimit="10" d="M40.6,42.6c-4.3-3.1-36.5-32.1-37-33l18.5,33"/>
	<path fill="none" stroke="#000000" stroke-miterlimit="10" d="M101.9,72.5c0,0,0.5,9.3-0.5,15s8.4,20.2,8.4,20.2l-24.2,19l-24,6.8"
		/>
	<polyline fill="none" stroke="#000000" stroke-miterlimit="10" points="76.5,66.5 91.5,87.5 87.9,112 58.5,133.5 	"/>
	<path fill="none" stroke="#000000" stroke-miterlimit="10" d="M13.8,137.6l5.4-2.3l0.8-4.2c0.2-1.2-0.2-2.5-1.1-3.4l-1-0.9
		c-1-0.9-2.2-1.4-3.6-1.4h-2.9"/>
	<path fill="none" stroke="#000000" stroke-miterlimit="10" d="M197.2,136.6c0,0-8.9,13-15.9,24.6"/>
	<polyline fill="none" stroke="#000000" stroke-miterlimit="10" points="90.1,205.4 105.5,207.4 113.8,212.9 	"/>
	<polyline fill="none" stroke="#000000" stroke-miterlimit="10" points="150.4,172.3 165.8,172.3 174.1,174.6 	"/>
	<polyline fill="none" stroke="#000000" stroke-miterlimit="10" points="188.5,187.5 197.2,187.5 200.6,187.5 	"/>
	<polyline fill="none" stroke="#000000" stroke-miterlimit="10" points="202.5,182.8 214.3,182.8 220,184.6 	"/>
	<path fill="none" stroke="#000000" stroke-miterlimit="10" d="M203.8,106.1L216.9,69l19.8-3.2l12.1,9.3c7,0.1,14.9,6.6,21.6,10.8
		c7.2,2,16-3.2,16-3.2l-2.6-34.8l-18-8l-9.3,2.5"/>
	<polyline fill="none" stroke="#000000" stroke-miterlimit="10" points="50.3,42.6 54.5,36 78.7,36 89.8,44.9 	"/>
	<path fill="none" stroke="#000000" stroke-miterlimit="10" d="M44.2,103.5c-0.8-0.5,10.3-6.3,10.3-6.3c1.3-0.9,4.5-0.7,5.9,0
		l-0.1,0.5c-0.2,0.6-0.6,1-1.1,1.2C55.9,100,44.9,103.9,44.2,103.5z"/>
	<path fill="none" stroke="#000000" stroke-miterlimit="10" d="M18.2,97.1c0,0,3.2,3.5,3.2,3.9c0,0.4-0.6,0.2-0.6,0.2l-2.5-0.8"/>
	<polyline fill="none" stroke="#000000" stroke-miterlimit="10" points="16.4,125.3 22,114.9 27.7,105 30.3,94.6 30.3,82.2 
		30.3,65.8 44.2,39.9 70.6,50 76.5,66.5 	"/>
	<line fill="none" stroke="#000000" stroke-miterlimit="10" x1="182.9" y1="114.7" x2="198.3" y2="114.7"/>
	<polyline fill="none" stroke="#000000" stroke-miterlimit="10" points="182.9,114.7 168.4,103.5 157.8,125.1 171.2,146.8 
		166.9,149.9 	"/>
	<polyline fill="none" stroke="#000000" stroke-miterlimit="10" points="96.8,118 125.1,140.3 152.4,153.7 	"/>
	<polyline fill="none" stroke="#000000" stroke-miterlimit="10" points="167.6,105 194.6,128.4 181.3,145.5 168.4,172.3 
		164.4,187.5 163.3,209.4 	"/>
	<path fill="none" stroke="#000000" stroke-miterlimit="10" d="M214.2,212.1l2.7-27.6l14.8-25.5c0,0,5.5-27.6,7.9-39.1
		c2.4-11.5-2.8-54.2-2.8-54.2l-16.7-14l-22.8-13.5l-12.1-3.8"/>
	<polyline fill="none" stroke="#000000" stroke-miterlimit="10" points="228,50.1 283.9,47.9 290,39.4 	"/>
	<polyline fill="none" stroke="#000000" stroke-miterlimit="10" points="113.1,155.4 105.5,207.4 91.1,238.2 	"/>
	<polyline fill="none" stroke="#000000" stroke-miterlimit="10" points="189.2,148.9 194.6,172.3 197.2,187.5 191.4,194 
		191.4,203.1 	"/>
	<polyline fill="none" stroke="#000000" stroke-miterlimit="10" points="168.4,103.5 167.6,75 147.2,44.9 	"/>
	<polyline fill="none" stroke="#000000" stroke-miterlimit="10" points="157.8,125.1 140.6,101.2 127.7,97.1 101.9,83.8 	"/>
	<polyline fill="none" stroke="#000000" stroke-miterlimit="10" points="140.6,101.2 167.6,75 216.9,69 	"/>
	<polyline fill="none" stroke="#000000" stroke-miterlimit="10" points="140.6,101.2 125.1,140.3 113.1,148.9 96.8,148.9 	"/>
	<polyline fill="none" stroke="#000000" stroke-miterlimit="10" points="109.8,107.7 87.9,112 76,87.5 61.4,74.2 46.4,69 30.3,65.8 
		11.4,78.6 	"/>
	<path fill="none" stroke="#000000" stroke-miterlimit="10" d="M54.5,36L69.1,1.7c0,0,41,37.4,8,64.8c26.3,6.5,24.8,6,24.8,6
		s5.4-7.2,1.6-23.6"/>
	<polyline fill="none" stroke="#000000" stroke-miterlimit="10" points="61.4,74.2 70.6,50 78.7,36 69.1,1.7 	"/>
	<polyline fill="none" stroke="#000000" stroke-miterlimit="10" points="16.4,75.2 22.6,57 22.1,42.6 35.4,38.3 	"/>
	<polyline fill="none" stroke="#000000" stroke-miterlimit="10" points="18.9,127.7 30.7,126.7 47.7,114.7 76,87.5 76.5,66.5 	"/>
	<polyline fill="none" stroke="#000000" stroke-miterlimit="10" points="50.3,131.3 50.3,123.4 47.7,113.7 26.2,107.7 21.6,108.7 	
		"/>
	<path fill="none" stroke="#000000" stroke-miterlimit="10" d="M85.6,126.7l-20.5,1c0,0-4.6,1.2-10.6,2.2c-6,1-23.2,11.3-23.2,11.3
		l-8.9,1"/>
	<line fill="none" stroke="#000000" stroke-miterlimit="10" x1="91.5" y1="87.5" x2="101.4" y2="89.6"/>
	<polyline fill="none" stroke="#000000" stroke-miterlimit="10" points="111.2,222.8 101.9,215.3 85.3,214.2 	"/>
	<polyline fill="none" stroke="#000000" stroke-miterlimit="10" points="173.9,180.4 166.6,179.2 147.9,179.2 	"/>
	<polyline fill="none" stroke="#000000" stroke-miterlimit="10" points="200,190.2 195.7,190.2 185.1,190.2 	"/>
	<polyline fill="none" stroke="#000000" stroke-miterlimit="10" points="221.1,190.3 216.9,188.4 200.6,188.4 	"/>
</g>
</svg>
