<?xml version="1.0" encoding="utf-8"?>
<!-- Generator: Adobe Illustrator 18.1.1, SVG Export Plug-In . SVG Version: 6.00 Build 0)  -->
<svg version="1.1" xmlns="http://www.w3.org/2000/svg" xmlns:xlink="http://www.w3.org/1999/xlink" x="0px" y="0px"
	 viewBox="0 0 397.8 324" enable-background="new 0 0 397.8 324" xml:space="preserve">
<g id="Layer_1">
	<g>
		<path fill="none" stroke="#000000" stroke-width="2" stroke-miterlimit="10" d="M32.9,87.9L27.6,96l-2.1,13.5l7.4,10.9
			c0,0,1.8,15.7,1.4,20.7c1.9,2.1,4.1,6.6,4.1,6.6s-2,7.9-8.4,11.8c-1.3,0.8-2.3,1.9-2.8,3.2c-2,4.9-1.6,6.2-1.6,6.2l-0.8,0.4
			c-1.9,0.9-3.1,2.8-3.1,4.8v5.5c0,2.7,2.2,4.9,4.9,4.9h2.1c0,0-1.3,6.3,10.9,5.9l3.1,3.4h7.5c2.3,0,4.4-1,5.9-2.6
			c1.4-1.4,3.3-3.1,5.7-4.2c1.8-0.8,3.9-1.8,5.9-2.7c3.2-1.5,6.6-2.7,10.1-3.6l0.9-0.2c2.9-0.7,5.8-1.1,8.8-1.1l1.9,0
			c0,0,2.9,1,6.3,2c4.6,1.3,9,3,13.2,5.1c8,3.9,18,8.5,18,8.5l7.9,25.1c0,0-1.3,35.5-6.6,45.6c-5.2,10.1-17.7,32.8-17.7,32.8
			s-1.3,10.1,4.6,13.3l20.3,0.6l17-16.4v-3.2l3.3-5.9v-11.8c0,0,12.4-25.9,14.4-39.2c2-13.3,0-25.3,0-25.3l24.3,1.1l10.4-6.8
			l18.3-4.8L208,220c0,0-11,7.1-13.7,46.3c7.8,9.5,11.1,11.4,11.1,11.4l13.1-1.9l13.8-27.2c0,0-0.7-10.7,0-17.1
			c0.7-6.3,9.2-17.1,9.2-17.1s4.6,16.4,9.2,21.5v12l-7.2,5.7l0.7,13.9h3.3l14.4,0.6c0,0,3.9,10.1,11.8,12c10.5,0,13.8-2.5,13.8-2.5
			s7.9-22.1,3.3-33.5c12.4-8.2,22.3-21.5,22.3-21.5s2.6-26.5,5.9-36c3.3-9.5,15.1-28.4,14.4-58.8c6.6,1.9,17.7-1.9,17.7-1.9
			l24.2-11.4l7.9-17.1l-3.3-37.9c0,0-14.4-10.1-21.6-10.7c-13.1,10.1-21,14.5-21,14.5l-10.5,1.9c0,0-13.1-6.9-17.7-6.9
			s-18.3,8.2-18.3,8.2s-16.4-10.7-21-12.6c-11.1,0-20.3-1.9-35.4,0.6c-17.7,5.7-39.9,13.3-39.9,13.3s-24.3,5.7-51.8,3.8
			c-2.6-15.8-8.3-18.4-8.3-18.4l-1.3-13.3c0,0-26.2-28.8-34.1-28.3L79.2,42c0,0-11.1-5.7-27.5-7.6l-36-12.6
			C15.6,21.8,3.9,28.4,32.9,87.9z"/>
		<path fill="none" stroke="#000000" stroke-width="2" stroke-miterlimit="10" d="M261.8,268.2c-1.3-10.7,9.2-31.6,9.2-31.6
			l11.1-10.1l0,0l4.6-16.4c-7.9-14.5-12.4-52.7-12.4-52.7H269l-2.1-1.9h-3.8l0.3,11.1l4.6,3.7c-0.7,7.5-6.3,13.1-6.3,13.1l2.7,21.8
			l1.6,22.1l4.9,9.5"/>
		<path fill="none" stroke="#000000" stroke-width="2" stroke-miterlimit="10" d="M290.6,66.7c0,0,39.6,19.9,42.6,61.3"/>
		<path fill="none" stroke="#000000" stroke-width="2" stroke-miterlimit="10" d="M274.2,157.4c0,0,0.1-0.5,0.2-1.3
			c0.5-6.7-3.6-12.8-9.8-15.2c-5.6-2.1-10.9-3.4-19.2-1.9c-1.6,0.3-3.1,0.9-4.3,1.8c-4.8,3.8-3.5,10,2.4,14.7
			c7.9,6.2,20,11.1,20,11.1"/>
		<path fill="none" stroke="#000000" stroke-width="2" stroke-miterlimit="10" d="M126.8,194.9c0,0,18.9,12,43.2,15.8"/>
		<path fill="none" stroke="#000000" stroke-width="2" stroke-miterlimit="10" d="M79.2,42c0,0-5.4,6.4-12,18.4
			c-19,13.9-34.3,27.6-34.3,27.6"/>
		<path fill="none" stroke="#000000" stroke-width="2" stroke-miterlimit="10" d="M62.6,63.7c-5.5-3.9-46.3-40.7-47-42l23.5,42"/>
		<path fill="none" stroke="#000000" stroke-width="2" stroke-miterlimit="10" d="M140.6,101.7c0,0,0.7,11.8-0.6,19.1
			c-1.3,7.3,10.7,25.7,10.7,25.7l-30.8,24.1l-30.6,8.7"/>
		<polyline fill="none" stroke="#000000" stroke-width="2" stroke-miterlimit="10" points="108.2,94.1 127.2,120.9 122.8,151.9 
			85.3,179.3 		"/>
		<path fill="none" stroke="#000000" stroke-width="2" stroke-miterlimit="10" d="M28.5,184.5l6.8-2.9l1-5.3
			c0.3-1.6-0.2-3.2-1.4-4.3l-1.2-1.2c-1.2-1.2-2.9-1.8-4.6-1.8h-3.7"/>
		<path fill="none" stroke="#000000" stroke-width="2" stroke-miterlimit="10" d="M261.7,183.2c0,0-11.4,16.6-20.2,31.3"/>
		<polyline fill="none" stroke="#000000" stroke-width="2" stroke-miterlimit="10" points="125.5,270.7 145.2,273.3 155.6,280.2 		
			"/>
		<polyline fill="none" stroke="#000000" stroke-width="2" stroke-miterlimit="10" points="202.1,228.7 221.8,228.7 232.3,231.6 		
			"/>
		<polyline fill="none" stroke="#000000" stroke-width="2" stroke-miterlimit="10" points="250.6,248 261.7,248 266,248 		"/>
		<polyline fill="none" stroke="#000000" stroke-width="2" stroke-miterlimit="10" points="268.5,242 283.4,242 290.6,244.2 		"/>
		<path fill="none" stroke="#000000" stroke-width="2" stroke-miterlimit="10" d="M270.1,144.5l16.6-47.2l25.2-4.1l15.4,11.8
			c8.9,0.1,19,8.4,27.5,13.8c9.2,2.5,20.3-4.1,20.3-4.1l-3.3-44.2l-22.9-10.1l-11.8,3.2"/>
		<polyline fill="none" stroke="#000000" stroke-width="2" stroke-miterlimit="10" points="74.9,63.7 80.3,55.3 111.1,55.3 
			125.1,66.7 		"/>
		<path fill="none" stroke="#000000" stroke-width="2" stroke-miterlimit="10" d="M67.2,141.1c-1-0.6,13.1-8.1,13.1-8.1
			c1.7-1.1,5.7-0.9,7.5-0.1l-0.2,0.7c-0.2,0.7-0.7,1.3-1.4,1.5C82.1,136.7,68,141.6,67.2,141.1z"/>
		<path fill="none" stroke="#000000" stroke-width="2" stroke-miterlimit="10" d="M34.1,133.1c0,0,4,4.4,4,5s-0.7,0.2-0.7,0.2
			l-3.1-1"/>
		<polyline fill="none" stroke="#000000" stroke-width="2" stroke-miterlimit="10" points="31.8,168.9 39,155.6 46.2,143.1 
			49.5,129.8 49.5,114.1 49.5,93.2 67.2,60.4 100.7,73.2 108.2,94.1 		"/>
		<line fill="none" stroke="#000000" stroke-width="2" stroke-miterlimit="10" x1="243.4" y1="155.4" x2="263.1" y2="155.4"/>
		<polyline fill="none" stroke="#000000" stroke-width="2" stroke-miterlimit="10" points="243.4,155.4 225.1,141.1 211.6,168.6 
			228.6,196.2 223.1,200.2 		"/>
		<polyline fill="none" stroke="#000000" stroke-width="2" stroke-miterlimit="10" points="134,159.6 170.1,188 204.8,205 		"/>
		<polyline fill="none" stroke="#000000" stroke-width="2" stroke-miterlimit="10" points="224.1,143.1 258.3,172.8 241.5,194.6 
			225.1,228.7 219.9,248 218.5,275.8 		"/>
		<path fill="none" stroke="#000000" stroke-width="2" stroke-miterlimit="10" d="M283.3,279.2l3.4-35l18.8-32.4c0,0,7-35,10-49.7
			s-3.6-68.9-3.6-68.9l-21.3-17.8l-28.9-17.2l-15.4-4.8"/>
		<polyline fill="none" stroke="#000000" stroke-width="2" stroke-miterlimit="10" points="300.8,73.2 371.8,70.5 379.7,59.7 		"/>
		<polyline fill="none" stroke="#000000" stroke-width="2" stroke-miterlimit="10" points="154.8,207.2 145.2,273.3 126.8,312.4 		
			"/>
		<polyline fill="none" stroke="#000000" stroke-width="2" stroke-miterlimit="10" points="251.6,198.9 258.3,228.7 261.7,248 
			254.3,256.3 254.3,267.7 		"/>
		<polyline fill="none" stroke="#000000" stroke-width="2" stroke-miterlimit="10" points="225.1,141.1 224.1,104.9 198.1,66.7 		
			"/>
		<polyline fill="none" stroke="#000000" stroke-width="2" stroke-miterlimit="10" points="211.6,168.6 189.7,138.2 173.4,133.1 
			140.5,116.1 		"/>
		<polyline fill="none" stroke="#000000" stroke-width="2" stroke-miterlimit="10" points="189.7,138.2 224.1,104.9 286.7,97.3 		
			"/>
		<polyline fill="none" stroke="#000000" stroke-width="2" stroke-miterlimit="10" points="189.7,138.2 170.1,188 154.8,198.9 
			134,198.9 		"/>
		<polyline fill="none" stroke="#000000" stroke-width="2" stroke-miterlimit="10" points="150.6,146.5 122.8,151.9 107.6,120.9 
			89,103.9 70,97.3 49.5,93.2 25.5,109.5 		"/>
		<path fill="none" stroke="#000000" stroke-width="2" stroke-miterlimit="10" d="M80.3,55.3l18.5-43.5c0,0,52.1,47.6,10.2,82.3
			c33.4,8.2,31.5,7.6,31.5,7.6s6.9-9.1,2-30"/>
		<polyline fill="none" stroke="#000000" stroke-width="2" stroke-miterlimit="10" points="89,103.9 100.7,73.2 111.1,55.3 
			98.8,11.8 		"/>
		<polyline fill="none" stroke="#000000" stroke-width="2" stroke-miterlimit="10" points="31.8,105.2 39.7,82.1 39.1,63.7 56,58.2 
					"/>
		<polyline fill="none" stroke="#000000" stroke-width="2" stroke-miterlimit="10" points="35,171.9 50.1,170.6 71.6,155.4 
			107.6,120.9 108.2,94.1 		"/>
		<polyline fill="none" stroke="#000000" stroke-width="2" stroke-miterlimit="10" points="74.9,176.4 74.9,166.5 71.6,154.1 
			44.3,146.5 38.4,147.7 		"/>
		<path fill="none" stroke="#000000" stroke-width="2" stroke-miterlimit="10" d="M119.8,170.6l-26.1,1.3c0,0-5.8,1.5-13.5,2.8
			s-29.5,14.4-29.5,14.4l-11.4,1.3"/>
		<line fill="none" stroke="#000000" stroke-width="2" stroke-miterlimit="10" x1="127.2" y1="120.9" x2="139.9" y2="123.5"/>
		<polyline fill="none" stroke="#000000" stroke-width="2" stroke-miterlimit="10" points="152.4,292.8 140.5,283.2 119.5,281.9 		
			"/>
		<polyline fill="none" stroke="#000000" stroke-width="2" stroke-miterlimit="10" points="232,238.9 222.8,237.4 199,237.4 		"/>
		<polyline fill="none" stroke="#000000" stroke-width="2" stroke-miterlimit="10" points="265.2,251.4 259.8,251.4 246.3,251.4 		
			"/>
		<polyline fill="none" stroke="#000000" stroke-width="2" stroke-miterlimit="10" points="292,251.5 286.7,249 266,249 		"/>
	</g>
</g>
<g id="notes" display="none">
</g>
</svg>
