<?xml version="1.0" encoding="utf-8"?>
<!-- Generator: Adobe Illustrator 18.1.1, SVG Export Plug-In . SVG Version: 6.00 Build 0)  -->
<svg version="1.1" id="Layer_1" xmlns="http://www.w3.org/2000/svg" xmlns:xlink="http://www.w3.org/1999/xlink" x="0px" y="0px"
	 viewBox="0 0 26 25.2" enable-background="new 0 0 26 25.2" xml:space="preserve">
<g>
	<path fill="#808285" d="M21.8,25.3H4.2C1.9,25.3,0,23.4,0,21V5.5c0-2.3,1.9-4.2,4.2-4.2h17.6c2.3,0,4.2,1.9,4.2,4.2V21
		C26,23.4,24.1,25.3,21.8,25.3z"/>
	<line fill="none" stroke="#D1D3D4" stroke-miterlimit="10" x1="6" y1="0" x2="6" y2="3.8"/>
	<line fill="none" stroke="#D1D3D4" stroke-miterlimit="10" x1="20.4" y1="0" x2="20.4" y2="3.8"/>
	<line fill="none" stroke="#F1F2F2" stroke-width="0.25" stroke-miterlimit="10" x1="4.5" y1="12.6" x2="18.5" y2="12.6"/>
	<line fill="none" stroke="#F1F2F2" stroke-width="0.25" stroke-miterlimit="10" x1="4.5" y1="10.4" x2="21.7" y2="10.4"/>
	<rect x="3.8" y="5.7" fill="#F1F2F2" width="18.4" height="2.2"/>
	<line fill="none" stroke="#F1F2F2" stroke-width="0.25" stroke-miterlimit="10" x1="4.4" y1="15" x2="15.5" y2="15"/>
	<line fill="none" stroke="#F1F2F2" stroke-width="0.25" stroke-miterlimit="10" x1="4.5" y1="17.5" x2="11.3" y2="17.5"/>
	<line fill="none" stroke="#F1F2F2" stroke-width="0.25" stroke-miterlimit="10" x1="6" y1="7.4" x2="6" y2="20.2"/>
	<line fill="none" stroke="#F1F2F2" stroke-width="0.25" stroke-miterlimit="10" x1="10" y1="7.4" x2="10" y2="18.3"/>
	<line fill="none" stroke="#F1F2F2" stroke-width="0.25" stroke-miterlimit="10" x1="13.6" y1="7.4" x2="13.6" y2="16.1"/>
	<line fill="none" stroke="#F1F2F2" stroke-width="0.25" stroke-miterlimit="10" x1="17.7" y1="7.4" x2="17.7" y2="13.8"/>
	<line fill="none" stroke="#F1F2F2" stroke-width="0.25" stroke-miterlimit="10" x1="20.8" y1="7.8" x2="20.8" y2="11.2"/>
</g>
</svg>
