<?xml version="1.0" encoding="utf-8"?>
<!-- Generator: Adobe Illustrator 18.1.1, SVG Export Plug-In . SVG Version: 6.00 Build 0)  -->
<svg version="1.1" id="Layer_1" xmlns="http://www.w3.org/2000/svg" xmlns:xlink="http://www.w3.org/1999/xlink" x="0px" y="0px"
	 viewBox="0 0 34.9 30" enable-background="new 0 0 34.9 30" xml:space="preserve">
<g>
	<path fill="#ABADB0" d="M31.2,22.3H3.7c-2,0-3.7-1.6-3.7-3.7V4c0-2,1.6-3.7,3.7-3.7h27.5c2,0,3.7,1.6,3.7,3.7v14.6
		C34.9,20.7,33.2,22.3,31.2,22.3z"/>
	<path fill="#F1F2F2" d="M29.3,18.8H5.6c-1.1,0-2.1-0.9-2.1-2.1V6c0-1.1,0.9-2.1,2.1-2.1h23.7c1.1,0,2.1,0.9,2.1,2.1v10.8
		C31.4,17.9,30.4,18.8,29.3,18.8z"/>
	<path fill="#939598" d="M32.5,29.6H2.4c-0.4,0-0.7-0.3-0.7-0.7v0c0-0.4,0.3-0.7,0.7-0.7h30.1c0.4,0,0.7,0.3,0.7,0.7v0
		C33.2,29.2,32.9,29.6,32.5,29.6z"/>
	<polygon fill="#A7A9AC" points="22.3,24 12.6,24 12.1,22.3 22.8,22.3 	"/>
	<polygon fill="#ABADB0" points="21.6,28.2 13.2,28.2 13.9,24 20.8,24 	"/>
</g>
</svg>
