<?xml version="1.0" encoding="utf-8"?>
<!-- Generator: Adobe Illustrator 18.1.1, SVG Export Plug-In . SVG Version: 6.00 Build 0)  -->
<svg version="1.1" xmlns="http://www.w3.org/2000/svg" xmlns:xlink="http://www.w3.org/1999/xlink" x="0px" y="0px"
	 viewBox="0 0 29 26" enable-background="new 0 0 29 26" xml:space="preserve">
<g id="Layer_1">
	<g>
		<path fill="none" stroke="#808285" stroke-width="0.75" stroke-miterlimit="10" d="M4.3,14.5c-0.4,0.3-1.8,2.8-1.2,4
			C3.8,19.6,4.2,21,4.8,21c0.5,0,1.3-3.2,2-4.2s3.4-2.7,5.3-3c5-0.7,8.6-0.1,9.9-0.2s1.4,0.7,2.6,0.6s2.2-0.2,1.9-1.9
			s-8.4-8.3-9.4-8.1s-0.8,0.4-1.2,1C15.1,6.1,8.4,10.8,4.3,14.5z"/>
		<path fill="#F1F2F2" stroke="#808285" stroke-width="0.75" stroke-miterlimit="10" d="M15.4,6.2c0,0-9.9,7.1-11,8.3
			c-0.9,1-1.7,3-1,4.3s1,1.4,1.1,2.3c0.1,0.9,2.1,1.5,1.8,0S5,18.2,5.7,17c0.2-0.3,1.4,0.4,2.2-1.2c0.6-1.4,1.1-1.7,1.9-1.4
			c0.4,0.2,1.3,0.9,2.5,0.1c1-0.7,1.4-1.3,2.6-2s2.2,0.6,3,0.4c0.8-0.1,0.5-0.5,1.7-1.2c0.8-0.5,1.9-0.2,2.6,0.1
			c0.2,0.1,0.3-0.1,0.2-0.3c-0.7-1-2.3-3.3-2.9-3.9c-0.8-0.7-2.1-1.8-2.7-1.8S15.4,6.2,15.4,6.2z"/>
		<ellipse fill="none" stroke="#808285" stroke-width="0.5" stroke-miterlimit="10" cx="16.4" cy="7.8" rx="1" ry="0.7"/>
		<ellipse fill="none" stroke="#808285" stroke-width="0.5" stroke-miterlimit="10" cx="12.6" cy="10.9" rx="1.3" ry="0.9"/>
		<ellipse fill="none" stroke="#808285" stroke-width="0.5" stroke-miterlimit="10" cx="17.1" cy="10.9" rx="0.7" ry="0.5"/>
		
			<ellipse transform="matrix(0.9092 -0.4164 0.4164 0.9092 -4.3788 4.6849)" fill="none" stroke="#808285" stroke-width="0.5" stroke-miterlimit="10" cx="8.6" cy="12.4" rx="0.7" ry="0.5"/>
	</g>
</g>
<g id="notes" display="none">
</g>
</svg>
