<?xml version="1.0" encoding="utf-8"?>
<!-- Generator: Adobe Illustrator 18.1.1, SVG Export Plug-In . SVG Version: 6.00 Build 0)  -->
<svg version="1.1" xmlns="http://www.w3.org/2000/svg" xmlns:xlink="http://www.w3.org/1999/xlink" x="0px" y="0px"
	 viewBox="0 0 500 403.9" enable-background="new 0 0 500 403.9" xml:space="preserve">
<g id="Layer_1">
	<g>
		<path fill="none" stroke="#000000" stroke-width="2" stroke-miterlimit="10" d="M33.1,104.5L26,115.3l-2.9,18l9.9,14.5
			c0,0,2.4,20.9,1.8,27.7c2.6,2.8,5.5,8.8,5.5,8.8s-2.7,10.5-11.2,15.7c-1.7,1-3,2.5-3.8,4.3c-2.6,6.5-2.2,8.2-2.2,8.2l-1.1,0.5
			c-2.5,1.2-4.2,3.7-4.2,6.5v7.3c0,3.6,2.9,6.5,6.5,6.5h2.8c0,0-1.7,8.4,14.6,7.9l4.1,4.5H56c3,0,5.8-1.3,7.9-3.4
			c1.8-1.9,4.4-4.1,7.6-5.5c2.4-1.1,5.3-2.4,7.8-3.6c4.3-2.1,8.8-3.6,13.4-4.8L94,228c3.8-0.9,7.8-1.5,11.7-1.5l2.5-0.1
			c0,0,3.9,1.4,8.5,2.7c6.1,1.7,12,4,17.7,6.8c10.7,5.2,24,11.3,24,11.3l10.5,33.5c0,0-1.7,47.4-8.7,60.9s-23.6,43.8-23.6,43.8
			s-1.7,13.5,6.1,17.7l27.1,0.8l22.7-21.9v-4.2l4.4-7.8v-15.8c0,0,16.6-34.5,19.2-52.2c2.6-17.7,0-33.7,0-33.7l32.4,1.5l13.9-9.1
			l24.5-6.5l-20.1,26.5c0,0-14.6,9.5-18.2,61.7c10.4,12.6,14.7,15.2,14.7,15.2l17.5-2.5l18.4-36.2c0,0-0.9-14.3,0-22.8
			s12.2-22.8,12.2-22.8s6.1,21.9,12.2,28.7v16l-9.6,7.6l0.9,18.5h4.4l19.2,0.8c0,0,5.2,13.5,15.7,16c14,0,18.4-3.4,18.4-3.4
			s10.5-29.5,4.4-44.7c16.6-11,29.7-28.7,29.7-28.7s3.5-35.4,7.9-48c4.4-12.6,20.1-37.9,19.2-78.4c8.7,2.5,23.6-2.5,23.6-2.5
			l32.3-15.2l10.5-22.8l-4.4-50.6c0,0-19.2-13.5-28.8-14.3c-17.5,13.5-28,19.4-28,19.4l-14,2.5c0,0-17.5-9.3-23.6-9.3
			s-24.5,11-24.5,11s-21.8-14.3-28-16.9c-14.9,0-27.1-2.5-47.2,0.8c-23.6,7.6-53.2,17.7-53.2,17.7s-32.4,7.6-69.1,5.1
			c-3.5-21.1-11.1-24.5-11.1-24.5l-1.7-17.7c0,0-35-38.5-45.4-37.8L94.8,43.2c0,0-14.9-7.6-36.7-10.1L10,16.2
			C10,16.2-5.7,25,33.1,104.5z"/>
		<path fill="none" stroke="#000000" stroke-width="2" stroke-miterlimit="10" d="M338.3,344.9c-1.7-14.3,12.2-42.1,12.2-42.1
			l14.9-13.5l0,0l6.1-21.9c-10.5-19.4-16.6-70.3-16.6-70.3h-7l-2.7-2.6h-5.1l0.4,14.7l6.1,4.9c-0.9,10-8.5,17.4-8.5,17.4l3.6,29.1
			l2.2,29.5l6.6,12.6"/>
		<path fill="none" stroke="#000000" stroke-width="2" stroke-miterlimit="10" d="M376.8,76.1c0,0,52.9,26.5,56.8,81.7"/>
		<path fill="none" stroke="#000000" stroke-width="2" stroke-miterlimit="10" d="M354.9,197.1c0,0,0.1-0.6,0.2-1.7
			c0.6-8.9-4.8-17.1-13.1-20.3c-7.4-2.9-14.5-4.6-25.6-2.6c-2.1,0.4-4.1,1.1-5.8,2.5c-6.3,5-4.7,13.4,3.2,19.6
			c10.6,8.2,26.7,14.7,26.7,14.7"/>
		<path fill="none" stroke="#000000" stroke-width="2" stroke-miterlimit="10" d="M158.3,247.2c0,0,25.2,16,57.7,21.1"/>
		<path fill="none" stroke="#000000" stroke-width="2" stroke-miterlimit="10" d="M94.8,43.2c0,0-7.2,8.5-16,24.5
			c-25.3,18.5-45.7,36.8-45.7,36.8"/>
		<path fill="none" stroke="#000000" stroke-width="2" stroke-miterlimit="10" d="M72.7,72.2C65.4,67,10.9,17.9,10,16.2l31.4,56"/>
		<path fill="none" stroke="#000000" stroke-width="2" stroke-miterlimit="10" d="M176.7,122.9c0,0,0.9,15.7-0.9,25.5
			s14.3,34.2,14.3,34.2L149,214.8l-40.8,11.6"/>
		<polyline fill="none" stroke="#000000" stroke-width="2" stroke-miterlimit="10" points="133.5,112.7 158.9,148.4 152.9,189.8 
			103,226.4 		"/>
		<path fill="none" stroke="#000000" stroke-width="2" stroke-miterlimit="10" d="M27.2,233.3l9.1-3.9l1.3-7.1
			c0.4-2.1-0.3-4.3-1.9-5.8l-1.6-1.6c-1.6-1.6-3.8-2.4-6.1-2.4h-4.9"/>
		<path fill="none" stroke="#000000" stroke-width="2" stroke-miterlimit="10" d="M338.2,231.6c0,0-15.1,22.1-26.9,41.7"/>
		<polyline fill="none" stroke="#000000" stroke-width="2" stroke-miterlimit="10" points="156.5,348.3 182.8,351.7 196.8,361 		"/>
		<polyline fill="none" stroke="#000000" stroke-width="2" stroke-miterlimit="10" points="258.8,292.2 285,292.2 299,296.1 		"/>
		<polyline fill="none" stroke="#000000" stroke-width="2" stroke-miterlimit="10" points="323.5,318 338.2,318 344,318 		"/>
		<polyline fill="none" stroke="#000000" stroke-width="2" stroke-miterlimit="10" points="347.3,310 367.2,310 376.8,312.9 		"/>
		<path fill="none" stroke="#000000" stroke-width="2" stroke-miterlimit="10" d="M349.4,180l22.1-63l33.6-5.5l20.6,15.8
			c11.8,0.2,25.3,11.2,36.7,18.4c12.2,3.4,27.1-5.5,27.1-5.5l-4.4-59l-30.6-13.5l-15.7,4.2"/>
		<polyline fill="none" stroke="#000000" stroke-width="2" stroke-miterlimit="10" points="89.1,72.2 96.3,61 137.4,61 156.1,76.1 
					"/>
		<path fill="none" stroke="#000000" stroke-width="2" stroke-miterlimit="10" d="M78.8,175.4c-1.3-0.8,17.5-10.7,17.5-10.7
			c2.2-1.5,7.6-1.2,10-0.1l-0.3,0.9c-0.3,1-1,1.7-1.9,2C98.7,169.5,79.9,176.1,78.8,175.4z"/>
		<path fill="none" stroke="#000000" stroke-width="2" stroke-miterlimit="10" d="M34.6,164.7c0,0,5.4,5.9,5.4,6.6
			c0,0.7-1,0.3-1,0.3l-4.2-1.3"/>
		<polyline fill="none" stroke="#000000" stroke-width="2" stroke-miterlimit="10" points="31.6,212.5 41.1,194.8 50.8,178.1 
			55.2,160.4 55.2,139.3 55.2,111.5 78.8,67.7 123.5,84.8 133.5,112.7 		"/>
		<line fill="none" stroke="#000000" stroke-width="2" stroke-miterlimit="10" x1="313.9" y1="194.5" x2="340.1" y2="194.5"/>
		<polyline fill="none" stroke="#000000" stroke-width="2" stroke-miterlimit="10" points="313.9,194.5 289.4,175.4 271.4,212 
			294.1,248.9 286.8,254.2 		"/>
		<polyline fill="none" stroke="#000000" stroke-width="2" stroke-miterlimit="10" points="167.9,200 216,237.9 262.3,260.7 		"/>
		<polyline fill="none" stroke="#000000" stroke-width="2" stroke-miterlimit="10" points="288.1,178.1 333.7,217.7 311.2,246.7 
			289.4,292.2 282.5,318 280.7,355.1 		"/>
		<path fill="none" stroke="#000000" stroke-width="2" stroke-miterlimit="10" d="M367,359.7l4.5-46.7l25-43.2
			c0,0,9.3-46.8,13.4-66.3c4.1-19.6-4.8-91.9-4.8-91.9l-28.4-23.7l-38.6-23l-20.5-6.4"/>
		<polyline fill="none" stroke="#000000" stroke-width="2" stroke-miterlimit="10" points="390.4,84.9 485.1,81.2 495.6,66.9 		"/>
		<polyline fill="none" stroke="#000000" stroke-width="2" stroke-miterlimit="10" points="195.6,263.6 182.8,351.7 158.3,403.9 		
			"/>
		<polyline fill="none" stroke="#000000" stroke-width="2" stroke-miterlimit="10" points="324.7,252.5 333.7,292.2 338.2,318 
			328.4,329 328.4,344.3 		"/>
		<polyline fill="none" stroke="#000000" stroke-width="2" stroke-miterlimit="10" points="289.4,175.4 288.1,127.2 253.4,76.1 		
			"/>
		<polyline fill="none" stroke="#000000" stroke-width="2" stroke-miterlimit="10" points="271.4,212 242.2,171.6 220.4,164.7 
			176.6,142 		"/>
		<polyline fill="none" stroke="#000000" stroke-width="2" stroke-miterlimit="10" points="242.2,171.6 288.1,127.2 371.5,117 		"/>
		<polyline fill="none" stroke="#000000" stroke-width="2" stroke-miterlimit="10" points="242.2,171.6 216,237.9 195.6,252.5 
			167.9,252.5 		"/>
		<polyline fill="none" stroke="#000000" stroke-width="2" stroke-miterlimit="10" points="190.1,182.6 152.9,189.8 132.7,148.4 
			107.9,125.8 82.6,117 55.2,111.5 23.2,133.3 		"/>
		<path fill="none" stroke="#000000" stroke-width="2" stroke-miterlimit="10" d="M96.3,61L121,2.9c0,0,69.5,63.5,13.6,109.8
			c44.6,11,42,10.2,42,10.2s9.2-12.2,2.6-40"/>
		<polyline fill="none" stroke="#000000" stroke-width="2" stroke-miterlimit="10" points="107.9,125.8 123.5,84.8 137.4,61 
			121,2.9 		"/>
		<polyline fill="none" stroke="#000000" stroke-width="2" stroke-miterlimit="10" points="31.6,127.5 42.1,96.7 41.4,72.2 
			63.9,64.9 		"/>
		<polyline fill="none" stroke="#000000" stroke-width="2" stroke-miterlimit="10" points="35.8,216.5 55.9,214.8 84.7,194.5 
			132.7,148.4 133.5,112.7 		"/>
		<polyline fill="none" stroke="#000000" stroke-width="2" stroke-miterlimit="10" points="89.1,222.5 89.1,209.3 84.7,192.7 
			48.2,182.6 40.4,184.3 		"/>
		<path fill="none" stroke="#000000" stroke-width="2" stroke-miterlimit="10" d="M149,214.8l-34.8,1.7c0,0-7.7,2-17.9,3.7
			S57,239.5,57,239.5l-15.1,1.7"/>
		<line fill="none" stroke="#000000" stroke-width="2" stroke-miterlimit="10" x1="158.9" y1="148.4" x2="175.8" y2="151.9"/>
		<polyline fill="none" stroke="#000000" stroke-width="2" stroke-miterlimit="10" points="192.4,377.8 176.6,365 148.5,363.3 		"/>
		<polyline fill="none" stroke="#000000" stroke-width="2" stroke-miterlimit="10" points="298.6,305.9 286.3,303.8 254.6,303.8 		
			"/>
		<polyline fill="none" stroke="#000000" stroke-width="2" stroke-miterlimit="10" points="343,322.6 335.7,322.6 317.7,322.6 		"/>
		<polyline fill="none" stroke="#000000" stroke-width="2" stroke-miterlimit="10" points="378.7,322.7 371.5,319.4 344,319.4 		"/>
	</g>
</g>
<g id="notes" display="none">
</g>
</svg>
