<?xml version="1.0" encoding="utf-8"?>
<!-- Generator: Adobe Illustrator 18.1.1, SVG Export Plug-In . SVG Version: 6.00 Build 0)  -->
<svg version="1.1" xmlns="http://www.w3.org/2000/svg" xmlns:xlink="http://www.w3.org/1999/xlink" x="0px" y="0px"
	 viewBox="0 0 38.2 30.4" enable-background="new 0 0 38.2 30.4" xml:space="preserve">
<g id="Layer_1">
	<g>
		<path fill="none" stroke="#808285" stroke-miterlimit="10" d="M26.9,21.1h-15c-2,0-3.7-1.6-3.7-3.7V7.9c0-2,1.6-3.7,3.7-3.7h15
			c2,0,3.7,1.6,3.7,3.7v9.6C30.6,19.5,28.9,21.1,26.9,21.1z"/>
		<path fill="none" stroke="#808285" stroke-miterlimit="10" d="M25.9,18.1H12.8c-1.1,0-2.1-0.9-2.1-2.1V9.3c0-1.1,0.9-2.1,2.1-2.1
			h13.1c1.1,0,2.1,0.9,2.1,2.1v6.8C28,17.2,27.1,18.1,25.9,18.1z"/>
		<path fill="none" stroke="#808285" stroke-miterlimit="10" d="M30.4,26.4H8.3c-0.3,0-0.6-0.3-0.6-0.6v0c0-0.3,0.3-0.6,0.6-0.6
			h22.1c0.3,0,0.6,0.3,0.6,0.6v0C31,26.1,30.8,26.4,30.4,26.4z"/>
		<polygon fill="none" stroke="#808285" stroke-miterlimit="10" points="23,22.5 15.8,22.5 15.4,21.1 23.3,21.1 		"/>
		<polygon fill="none" stroke="#808285" stroke-miterlimit="10" points="22.5,25.2 16.3,25.2 16.8,22.5 21.9,22.5 		"/>
	</g>
</g>
<g id="notes" display="none">
</g>
</svg>
