<?xml version="1.0" encoding="utf-8"?>
<!-- Generator: Adobe Illustrator 18.1.1, SVG Export Plug-In . SVG Version: 6.00 Build 0)  -->
<svg version="1.1" xmlns="http://www.w3.org/2000/svg" xmlns:xlink="http://www.w3.org/1999/xlink" x="0px" y="0px"
	 viewBox="0 0 38.2 30.4" enable-background="new 0 0 38.2 30.4" xml:space="preserve">
<g id="Layer_1">
	<path fill="none" stroke="#808285" stroke-miterlimit="10" d="M25.2,25.2H13c-2.3,0-4.2-1.9-4.2-4.2V10.4c0-2.3,1.9-4.2,4.2-4.2
		h12.1c2.3,0,4.2,1.9,4.2,4.2V21C29.4,23.3,27.5,25.2,25.2,25.2z"/>
	<line fill="none" stroke="#808285" stroke-miterlimit="10" x1="13.6" y1="5.2" x2="13.6" y2="8.2"/>
	<line fill="none" stroke="#808285" stroke-miterlimit="10" x1="24.9" y1="5.2" x2="24.9" y2="8.2"/>
	<line fill="none" stroke="#808285" stroke-width="0.5" stroke-miterlimit="10" x1="12.4" y1="15.2" x2="23.5" y2="15.2"/>
	<line fill="none" stroke="#808285" stroke-width="0.5" stroke-miterlimit="10" x1="12.4" y1="13.4" x2="26" y2="13.4"/>
	<rect x="11.8" y="9.7" fill="#808285" width="14.5" height="1.7"/>
	<line fill="none" stroke="#808285" stroke-width="0.5" stroke-miterlimit="10" x1="12.3" y1="17.1" x2="21.1" y2="17.1"/>
	<line fill="none" stroke="#F1F2F2" stroke-width="0.5" stroke-miterlimit="10" x1="12.4" y1="19" x2="17.8" y2="19"/>
	<line fill="none" stroke="#808285" stroke-width="0.5" stroke-miterlimit="10" x1="13.6" y1="11.1" x2="13.6" y2="21.2"/>
	<line fill="none" stroke="#808285" stroke-width="0.5" stroke-miterlimit="10" x1="16.7" y1="11.1" x2="16.7" y2="19.7"/>
	<line fill="none" stroke="#808285" stroke-width="0.5" stroke-miterlimit="10" x1="19.6" y1="11.1" x2="19.6" y2="18"/>
	<line fill="none" stroke="#808285" stroke-width="0.5" stroke-miterlimit="10" x1="22.8" y1="11.1" x2="22.8" y2="16.1"/>
	<line fill="none" stroke="#808285" stroke-width="0.5" stroke-miterlimit="10" x1="25.3" y1="11.4" x2="25.3" y2="14.1"/>
	<path fill="none" stroke="#808285" stroke-miterlimit="10" d="M23.4,23.5h-8.5c-2.3,0-4.2-1.9-4.2-4.2v-7.2c0-2.3,1.9-4.2,4.2-4.2
		h8.5c2.3,0,4.2,1.9,4.2,4.2v7.2C27.6,21.6,25.7,23.5,23.4,23.5z"/>
</g>
<g id="notes" display="none">
</g>
</svg>
