<?xml version="1.0" encoding="utf-8"?>
<!-- Generator: Adobe Illustrator 18.1.1, SVG Export Plug-In . SVG Version: 6.00 Build 0)  -->
<svg version="1.1" xmlns="http://www.w3.org/2000/svg" xmlns:xlink="http://www.w3.org/1999/xlink" x="0px" y="0px"
	 viewBox="0 0 12.7 23.3" enable-background="new 0 0 12.7 23.3" xml:space="preserve">
<g id="Layer_1">
	<circle fill="none" stroke="#F1F1F2" stroke-width="0.75" stroke-miterlimit="10" cx="4" cy="10" r="2.4"/>
	<line fill="none" stroke="#F1F1F2" stroke-width="0.75" stroke-miterlimit="10" x1="3.2" y1="7.8" x2="4.5" y2="12.3"/>
	<line fill="none" stroke="#F1F1F2" stroke-width="0.75" stroke-miterlimit="10" x1="1.8" y1="11" x2="6.2" y2="9.4"/>
	<path fill="none" stroke="#F1F1F2" stroke-width="0.5" stroke-miterlimit="10" d="M3.1,13.5l2.2-0.6c0.6-0.2,1.2,0.1,1.4,0.7l3,7.5
		L3.1,13.5z"/>
	<line fill="none" stroke="#F1F1F2" stroke-width="0.5" stroke-miterlimit="10" x1="5.2" y1="12.8" x2="9.4" y2="20.8"/>
	<path fill="none" stroke="#F1F1F2" stroke-width="0.5" stroke-miterlimit="10" d="M3.8,6.2l4.5-4.4L5.6,6c-0.2,0.3-0.6,0.5-1,0.4
		L3.8,6.2z"/>
	<g>
		<path fill="#F1F1F2" d="M9.4,2.8c0,0,0.1,0.9,0.3,2.3c0.1,1.4,0.2,3.2,0.3,5c0,1.8,0,3.6-0.1,5c-0.1,1.4-0.2,2.3-0.2,2.3
			S9.5,16.3,9.4,15c-0.1-1.4-0.2-3.2-0.3-5c0-1.8,0-3.6,0.1-5C9.3,3.7,9.4,2.8,9.4,2.8z"/>
	</g>
</g>
<g id="notes" display="none">
</g>
</svg>
