<?xml version="1.0" encoding="utf-8"?>
<!-- Generator: Adobe Illustrator 18.1.1, SVG Export Plug-In . SVG Version: 6.00 Build 0)  -->
<svg version="1.1" xmlns="http://www.w3.org/2000/svg" xmlns:xlink="http://www.w3.org/1999/xlink" x="0px" y="0px"
	 viewBox="0 0 30 24" enable-background="new 0 0 30 24" xml:space="preserve">
<g id="Layer_1">
	<path fill="none" stroke="#F1F1F2" stroke-miterlimit="10" d="M3.9,18.2l-1.5,3.3c-0.1,0.1,0,0.3,0.2,0.3l3.8-0.5l19.2-14l1-0.7
		l1-0.8c0.1-0.3,0.1-0.6-0.1-0.8l-1.6-2c-0.2-0.2-0.4-0.2-0.7-0.1L24,3.8l-1.5,1.1L3.9,18.2z"/>
	<polyline fill="none" stroke="#F1F1F2" stroke-miterlimit="10" points="3.9,18.2 5.3,18.2 5.3,19.3 6.7,19.3 6.4,21.3 	"/>
	<line fill="none" stroke="#F1F1F2" stroke-miterlimit="10" x1="23" y1="4.6" x2="25.6" y2="7.3"/>
	<line fill="none" stroke="#F1F1F2" stroke-width="0.5" stroke-miterlimit="10" x1="22.5" y1="4.9" x2="25.1" y2="7.7"/>
	<line fill="none" stroke="#F1F1F2" stroke-width="0.75" stroke-miterlimit="10" x1="3.4" y1="20" x2="4.3" y2="21.5"/>
	<g>
		<path fill="#F1F1F2" d="M6.7,17.7c0,0,0.9-0.7,2.3-1.8c0.7-0.5,1.5-1.2,2.4-1.8c0.9-0.6,1.8-1.3,2.8-2c1-0.7,1.9-1.3,2.8-2
			c0.9-0.6,1.8-1.2,2.5-1.7c1.5-1,2.5-1.6,2.5-1.6s-0.9,0.7-2.3,1.8c-0.7,0.5-1.5,1.2-2.4,1.8c-0.9,0.6-1.8,1.3-2.8,2
			c-1,0.7-1.9,1.3-2.8,2c-0.9,0.6-1.8,1.2-2.5,1.7C7.7,17.1,6.7,17.7,6.7,17.7z"/>
	</g>
	<g>
		<path fill="#F1F1F2" d="M7.7,18.2c0,0,0.9-0.7,2.3-1.8c0.7-0.5,1.5-1.2,2.4-1.8c0.9-0.6,1.8-1.3,2.8-2c1-0.7,1.9-1.3,2.8-2
			c0.9-0.6,1.8-1.2,2.5-1.7C22,7.9,23,7.3,23,7.3s-0.9,0.7-2.3,1.8c-0.7,0.5-1.5,1.2-2.4,1.8c-0.9,0.6-1.8,1.3-2.8,2
			c-1,0.7-1.9,1.3-2.8,2c-0.9,0.6-1.8,1.2-2.5,1.7C8.7,17.6,7.7,18.2,7.7,18.2z"/>
	</g>
</g>
<g id="notes" display="none">
</g>
</svg>
