<?xml version="1.0" encoding="utf-8"?>
<!-- Generator: Adobe Illustrator 18.1.1, SVG Export Plug-In . SVG Version: 6.00 Build 0)  -->
<svg version="1.1" xmlns="http://www.w3.org/2000/svg" xmlns:xlink="http://www.w3.org/1999/xlink" x="0px" y="0px"
	 viewBox="0 0 24.6 20.8" enable-background="new 0 0 24.6 20.8" xml:space="preserve">
<g id="bg__x2B__footer">
</g>
<g id="Layer_1">
	<path fill="none" stroke="#FFFFFF" stroke-miterlimit="10" d="M0.9,20c0,0,0-4.9,1.7-7.7c0.7-1.1,2.7-1.9,4.1-1.9
		c1.2,0,3.1,0.6,3.8,1.5c2.1,2.7,2,8.1,2,8.1H0.9z"/>
	<polyline fill="#FFFFFF" points="5.8,8.6 5.8,10.3 7.6,10.4 7.6,8.5 	"/>
	<g opacity="0.28">
		<path fill="#FFFFFF" d="M2.1,5c0,0,0.4,0.4,1.2,0.6c0.4,0.1,0.8,0.1,1.3,0.1c0.2,0,0.5,0,0.8-0.1c0.3,0,0.5-0.1,0.8-0.1
			c1.1-0.2,2.1-0.5,2.9-0.7c0.8-0.2,1.3-0.3,1.3-0.3S10,4.8,9.2,5.1C8.4,5.4,7.4,5.8,6.3,6C6,6.1,5.7,6.1,5.5,6.2
			c-0.3,0-0.6,0-0.8,0c-0.5,0-1-0.1-1.4-0.3C2.8,5.7,2.5,5.5,2.4,5.3C2.2,5.2,2.1,5,2.1,5z"/>
	</g>
	<g opacity="0.28">
		<path fill="#FFFFFF" d="M7.4,1.5c0,0-0.2,0.5-0.4,1.2C6.8,3,6.7,3.4,6.6,3.9C6.4,4.3,6.3,4.8,6.3,5.3c0,0.5,0.1,0.9,0.2,1.4
			c0.1,0.4,0.2,0.9,0.4,1.2c0.3,0.7,0.5,1.2,0.5,1.2S7,8.7,6.6,8C6.4,7.7,6.2,7.3,6.1,6.8C6,6.6,5.9,6.3,5.9,6.1
			c0-0.3-0.1-0.6-0.1-0.8c0-0.6,0.2-1.1,0.3-1.5c0.2-0.5,0.4-0.9,0.5-1.2C7,1.9,7.4,1.5,7.4,1.5z"/>
	</g>
	<path fill="none" stroke="#FFFFFF" stroke-width="0.5" stroke-miterlimit="10" d="M15.5,7.4c-0.5,0.8-2.7,2.1-1.9,2.1
		s1.8-0.4,3.2-1.9c0.5-0.5,5.5-0.9,5.5-0.9c1.1,0,2-0.9,1.9-2l-0.2-2.6c-0.1-0.9-0.9-1.6-2-1.6h-6.2c-3.2,0-3.5,1.2-3.3,2.9
		c0,0-0.1,2.8,1.1,3.1C14.6,7,15.9,6.7,15.5,7.4z"/>
	<ellipse fill="#FFFFFF" cx="15.7" cy="4" rx="0.6" ry="0.6"/>
	<ellipse fill="#FFFFFF" cx="18.6" cy="4" rx="0.6" ry="0.6"/>
	<ellipse fill="#FFFFFF" cx="21.4" cy="4" rx="0.6" ry="0.6"/>
	<path opacity="0.28" fill="none" stroke="#FFFFFF" stroke-width="0.75" stroke-miterlimit="10" d="M0.8,18.1c0,0,2.3,0.4,5.5,0.4
		s6.2-0.4,6.2-0.4"/>
	<path fill="none" stroke="#FFFFFF" stroke-width="0.75" stroke-miterlimit="10" d="M7.4,8.5H5.2c-1.7,0-3-1.4-3-3V3.8
		c0-1.7,1.4-3,3-3h2.3c1.7,0,3,1.4,3,3v1.7C10.5,7.1,9.1,8.5,7.4,8.5z"/>
</g>
<g id="notes">
</g>
</svg>
