<?xml version="1.0" encoding="utf-8"?>
<!-- Generator: Adobe Illustrator 18.1.1, SVG Export Plug-In . SVG Version: 6.00 Build 0)  -->
<svg version="1.1" xmlns="http://www.w3.org/2000/svg" xmlns:xlink="http://www.w3.org/1999/xlink" x="0px" y="0px"
	 viewBox="0 0 1083.7 782" enable-background="new 0 0 1083.7 782" xml:space="preserve">
<g id="Layer_1">
	<g>
		<path fill="none" stroke="#A99595" stroke-width="6.1563" stroke-miterlimit="10" d="M977,460.9c0,0-84.8-66.3-156.1-42.7
			c-69.6,23.1-67.9-32.7-97.7-38.5c-48.5-9.4-81.3,11.7-81.3,11.7"/>
		<path fill="#A99595" d="M19.7,680.1c0,0,56.2,45.3,167-4.8c45.6-20.6-56.7-44.9-85.6-27.4"/>
		<path fill="#A99595" d="M784.6,451.3c0,0,40.2,15.2,61.2,26.9c70.8,39.5,133.2,95,133.9,98.4c2.1,9.5-47.9,25.6-53,31.1
			c-5.1,5.4-351.1,144.1-431.5,151.8"/>
		<path fill="#A99595" d="M983,450.9c25.5-8.1,68.6-6.8,95.2,14.4c12.3,9.8,9.1,45.9-65,29.5"/>
		<path fill="#A99595" d="M630.2,280.8c61.4-16.5,174.6,14.4,293.1,72.8c55,27.1-562.2,152-657,162.4"/>
		<path fill="none" stroke="#FEEDE6" stroke-width="12.3126" stroke-miterlimit="10" d="M99.4,587.6c0,0,19.2,5.1,18.5,20.2
			c-0.8,15.1-23.6,34-23.6,34"/>
		<path fill="none" stroke="#EAE5E3" stroke-width="4.6172" stroke-miterlimit="10" d="M965.4,460.9c0,0-84.8-66.3-156.1-42.7
			c-69.6,23.1-67.9-32.7-97.7-38.5c-48.5-9.4-81.3,11.7-81.3,11.7"/>
		<path fill="#CFB0AF" d="M629.4,436l-370.9,81.7V57.4L629.4,8.2c0,0,9.7,104.9,12.3,191.4S629.4,436,629.4,436z"/>
		<polygon fill="#8C8796" points="600.2,347.3 303.2,404.8 303.2,124.7 600.2,81.6 		"/>
		<polygon fill="#CFB0AF" points="258.5,72.8 120,226.6 114.9,384.2 258.5,517.7 		"/>
		<polygon opacity="0.29" fill="#5B5461" points="600.2,81.6 582.8,96.9 303.2,135.9 303.2,124.7 		"/>
		<path fill="#7E7991" d="M576.6,96.9c0,0,11.8,51.2,12.3,122.1c0.4,60.6-8.9,131-8.9,131l20.2-2.7c0,0,6.2-93.4,6.2-139.5
			s-6.2-126.2-6.2-126.2L576.6,96.9z"/>
		<path opacity="0.68" fill="#E1DFE2" d="M569.3,264c-1.5-19.8-24.1-20-26.9-0.4c-1.7,12.3-5.2,23.5-11.2,32.4
			c-2.3,3.4-4.8,6.7-7.5,9.7c-11.8,13.4,4,33.4,20,25.6c13.4-6.5,17.1-15.3,20.3-27C568.2,288.7,570.2,276.9,569.3,264z"/>
		<path opacity="0.68" fill="#E1DFE2" d="M544.6,125.5c0,0,14.1,44.6,7.2,73.1c-6.9,28.5,6.9,36.9,8.5,32.3s6.9-23.9,0-53.1"/>
		<path opacity="0.37" fill="none" stroke="#8C8B8C" stroke-width="1.5391" stroke-miterlimit="10" d="M965.4,461
			c0,0-84.8-66.3-156.1-42.7c-69.6,23.1-67.9-32.7-97.7-38.5c-48.5-9.4-81.3,11.7-81.3,11.7"/>
		<polyline fill="#D8BEBC" points="258.5,517.7 213.5,496.6 221.6,81.6 258.5,57.4 		"/>
		<g>
			<path fill="#F3E9E8" d="M301.9,569.2l469.2-120.2c4.6-1.2,9.5-0.4,13.5,2.2l45.9,30c0.8,0.5,1.6,1.1,2.3,1.8l97.7,91
				c9.3,8.6,6.2,24-5.7,28.4l-452,165.2c-6.3,2.3-13.4,0.7-18-4.1L289.1,629.3C280.1,619.9,289.3,572.5,301.9,569.2z"/>
			<line fill="none" stroke="#EADAD8" stroke-width="6.1563" stroke-miterlimit="10" x1="377.6" y1="592.5" x2="406.3" y2="584.3"/>
			<line fill="none" stroke="#EADAD8" stroke-width="6.1563" stroke-miterlimit="10" x1="437.4" y1="576.6" x2="465.9" y2="567.5"/>
			<line fill="none" stroke="#EADAD8" stroke-width="6.1563" stroke-miterlimit="10" x1="488.4" y1="558.3" x2="517.5" y2="551.5"/>
			<line fill="none" stroke="#EADAD8" stroke-width="6.1563" stroke-miterlimit="10" x1="556.9" y1="535.5" x2="586.1" y2="529.5"/>
			<line fill="none" stroke="#EADAD8" stroke-width="6.1563" stroke-miterlimit="10" x1="612.5" y1="520.9" x2="641.8" y2="514.9"/>
			<line fill="none" stroke="#EADAD8" stroke-width="6.1563" stroke-miterlimit="10" x1="673" y1="504.3" x2="702.3" y2="498.2"/>
			<line fill="none" stroke="#EADAD8" stroke-width="6.1563" stroke-miterlimit="10" x1="728.4" y1="491.8" x2="757.7" y2="485.8"/>
			<line fill="none" stroke="#EADAD8" stroke-width="6.1563" stroke-miterlimit="10" x1="407.6" y1="608.6" x2="436.3" y2="600.4"/>
			<line fill="none" stroke="#EADAD8" stroke-width="6.1563" stroke-miterlimit="10" x1="467.5" y1="592.7" x2="495.9" y2="583.6"/>
			<line fill="none" stroke="#EADAD8" stroke-width="6.1563" stroke-miterlimit="10" x1="518.4" y1="574.4" x2="547.5" y2="567.6"/>
			<line fill="none" stroke="#EADAD8" stroke-width="6.1563" stroke-miterlimit="10" x1="574.6" y1="557.8" x2="603.8" y2="551.7"/>
			<line fill="none" stroke="#EADAD8" stroke-width="6.1563" stroke-miterlimit="10" x1="630.2" y1="543.2" x2="659.5" y2="537.1"/>
			<line fill="none" stroke="#EADAD8" stroke-width="6.1563" stroke-miterlimit="10" x1="696.9" y1="526.5" x2="726.2" y2="520.5"/>
			<line fill="none" stroke="#EADAD8" stroke-width="6.1563" stroke-miterlimit="10" x1="758.5" y1="507.9" x2="787.7" y2="501.9"/>
			<line fill="none" stroke="#EADAD8" stroke-width="6.1563" stroke-miterlimit="10" x1="436.9" y1="636.8" x2="478.6" y2="621.8"/>
			<line fill="none" stroke="#EADAD8" stroke-width="6.1563" stroke-miterlimit="10" x1="775.4" y1="534.6" x2="817.1" y2="519.6"/>
			<line fill="none" stroke="#EADAD8" stroke-width="6.1563" stroke-miterlimit="10" x1="506.3" y1="612.7" x2="534.7" y2="603.7"/>
			<line fill="none" stroke="#EADAD8" stroke-width="6.1563" stroke-miterlimit="10" x1="557.3" y1="594.4" x2="586.3" y2="587.6"/>
			<line fill="none" stroke="#EADAD8" stroke-width="6.1563" stroke-miterlimit="10" x1="613.4" y1="577.8" x2="642.6" y2="571.7"/>
			<line fill="none" stroke="#EADAD8" stroke-width="6.1563" stroke-miterlimit="10" x1="669" y1="563.2" x2="698.3" y2="557.1"/>
			<line fill="none" stroke="#EADAD8" stroke-width="6.1563" stroke-miterlimit="10" x1="735.7" y1="546.5" x2="765" y2="540.5"/>
			<line fill="none" stroke="#EADAD8" stroke-width="6.1563" stroke-miterlimit="10" x1="450.3" y1="668.4" x2="512.5" y2="642.3"/>
			<line fill="none" stroke="#EADAD8" stroke-width="6.1563" stroke-miterlimit="10" x1="475.2" y1="688.1" x2="547.5" y2="655.4"/>
			<line fill="none" stroke="#EADAD8" stroke-width="6.1563" stroke-miterlimit="10" x1="490.9" y1="714.3" x2="518.2" y2="702.3"/>
			<line fill="none" stroke="#EADAD8" stroke-width="6.1563" stroke-miterlimit="10" x1="548.1" y1="690.5" x2="575.1" y2="677.8"/>
			<line fill="none" stroke="#EADAD8" stroke-width="6.1563" stroke-miterlimit="10" x1="600.2" y1="668.4" x2="787.7" y2="608.6"/>
			<line fill="none" stroke="#EADAD8" stroke-width="6.1563" stroke-miterlimit="10" x1="807.9" y1="602.6" x2="835.2" y2="590.6"/>
			<line fill="none" stroke="#EADAD8" stroke-width="6.1563" stroke-miterlimit="10" x1="865.1" y1="578.8" x2="892.1" y2="566"/>
			<line fill="none" stroke="#EADAD8" stroke-width="6.1563" stroke-miterlimit="10" x1="857.2" y1="571.7" x2="865.1" y2="567.6"/>
			<line fill="none" stroke="#EADAD8" stroke-width="6.1563" stroke-miterlimit="10" x1="878.6" y1="563.2" x2="884.9" y2="558.3"/>
			<line fill="none" stroke="#EADAD8" stroke-width="6.1563" stroke-miterlimit="10" x1="865.1" y1="560.2" x2="871.8" y2="557.8"/>
			<line fill="none" stroke="#EADAD8" stroke-width="6.1563" stroke-miterlimit="10" x1="835.2" y1="554.9" x2="871.8" y2="543.5"/>
			<line fill="none" stroke="#EADAD8" stroke-width="6.1563" stroke-miterlimit="10" x1="821.6" y1="540.5" x2="842.6" y2="534.6"/>
			<line fill="none" stroke="#EADAD8" stroke-width="6.1563" stroke-miterlimit="10" x1="547.5" y1="629.3" x2="561.6" y2="621.8"/>
			<line fill="none" stroke="#EADAD8" stroke-width="6.1563" stroke-miterlimit="10" x1="600.2" y1="612.7" x2="627.1" y2="608.2"/>
			<line fill="none" stroke="#EADAD8" stroke-width="6.1563" stroke-miterlimit="10" x1="669" y1="594.4" x2="683.7" y2="590.6"/>
			<line fill="none" stroke="#EADAD8" stroke-width="6.1563" stroke-miterlimit="10" x1="726.2" y1="576.6" x2="750.3" y2="569.7"/>
			<line fill="none" stroke="#EADAD8" stroke-width="6.1563" stroke-miterlimit="10" x1="773.1" y1="558.3" x2="796.3" y2="554.8"/>
			<line fill="none" stroke="#EADAD8" stroke-width="6.1563" stroke-miterlimit="10" x1="586.1" y1="647.9" x2="606.4" y2="638.5"/>
			<line fill="none" stroke="#EADAD8" stroke-width="6.1563" stroke-miterlimit="10" x1="627.1" y1="629.3" x2="653.6" y2="625.5"/>
			<line fill="none" stroke="#EADAD8" stroke-width="6.1563" stroke-miterlimit="10" x1="676.3" y1="612.7" x2="706.9" y2="602.6"/>
			<line fill="none" stroke="#EADAD8" stroke-width="6.1563" stroke-miterlimit="10" x1="735.7" y1="591" x2="757.7" y2="583.6"/>
			<line fill="none" stroke="#EADAD8" stroke-width="6.1563" stroke-miterlimit="10" x1="787.7" y1="578.8" x2="817.1" y2="566"/>
			<path fill="#FCF9F8" d="M293.2,578.8l172.7,169.7l6.8,19.2c0,0-10.9,4.4-17.8,0c-14.2-9-165.8-138.4-165.8-138.4
				s-11.4-22.7-3.6-36.6S293.2,578.8,293.2,578.8z"/>
			<line fill="none" stroke="#F9F4F3" stroke-width="6.1563" stroke-miterlimit="10" x1="369.9" y1="585" x2="398.6" y2="576.8"/>
			<line fill="none" stroke="#F9F4F3" stroke-width="6.1563" stroke-miterlimit="10" x1="429.8" y1="569.1" x2="458.2" y2="560"/>
			<line fill="none" stroke="#F9F4F3" stroke-width="6.1563" stroke-miterlimit="10" x1="480.8" y1="550.8" x2="509.8" y2="544"/>
			<line fill="none" stroke="#F9F4F3" stroke-width="6.1563" stroke-miterlimit="10" x1="549.2" y1="528" x2="578.4" y2="521.9"/>
			<line fill="none" stroke="#F9F4F3" stroke-width="6.1563" stroke-miterlimit="10" x1="604.8" y1="513.4" x2="634.1" y2="507.3"/>
			<line fill="none" stroke="#F9F4F3" stroke-width="6.1563" stroke-miterlimit="10" x1="665.4" y1="496.7" x2="694.6" y2="490.7"/>
			<line fill="none" stroke="#F9F4F3" stroke-width="6.1563" stroke-miterlimit="10" x1="720.8" y1="484.3" x2="750" y2="478.2"/>
			<line fill="none" stroke="#F9F4F3" stroke-width="6.1563" stroke-miterlimit="10" x1="399.9" y1="601.1" x2="428.6" y2="592.9"/>
			<line fill="none" stroke="#F9F4F3" stroke-width="6.1563" stroke-miterlimit="10" x1="459.8" y1="585.2" x2="488.2" y2="576.1"/>
			<line fill="none" stroke="#F9F4F3" stroke-width="6.1563" stroke-miterlimit="10" x1="510.8" y1="566.9" x2="539.9" y2="560.1"/>
			<line fill="none" stroke="#F9F4F3" stroke-width="6.1563" stroke-miterlimit="10" x1="566.9" y1="550.3" x2="596.1" y2="544.2"/>
			<line fill="none" stroke="#F9F4F3" stroke-width="6.1563" stroke-miterlimit="10" x1="622.5" y1="535.7" x2="651.8" y2="529.6"/>
			<line fill="none" stroke="#F9F4F3" stroke-width="6.1563" stroke-miterlimit="10" x1="689.2" y1="519" x2="718.5" y2="512.9"/>
			<line fill="none" stroke="#F9F4F3" stroke-width="6.1563" stroke-miterlimit="10" x1="750.8" y1="500.4" x2="780" y2="494.3"/>
			<line fill="none" stroke="#F9F4F3" stroke-width="6.1563" stroke-miterlimit="10" x1="429.2" y1="629.3" x2="470.9" y2="614.2"/>
			<line fill="none" stroke="#F9F4F3" stroke-width="6.1563" stroke-miterlimit="10" x1="767.7" y1="527.1" x2="809.5" y2="512"/>
			<line fill="none" stroke="#F9F4F3" stroke-width="6.1563" stroke-miterlimit="10" x1="498.6" y1="605.2" x2="527.1" y2="596.1"/>
			<line fill="none" stroke="#F9F4F3" stroke-width="6.1563" stroke-miterlimit="10" x1="549.6" y1="586.9" x2="578.7" y2="580.1"/>
			<line fill="none" stroke="#F9F4F3" stroke-width="6.1563" stroke-miterlimit="10" x1="605.7" y1="570.3" x2="634.9" y2="564.2"/>
			<line fill="none" stroke="#F9F4F3" stroke-width="6.1563" stroke-miterlimit="10" x1="661.3" y1="555.7" x2="690.6" y2="549.6"/>
			<line fill="none" stroke="#F9F4F3" stroke-width="6.1563" stroke-miterlimit="10" x1="728" y1="539" x2="757.3" y2="532.9"/>
			<line fill="none" stroke="#F9F4F3" stroke-width="6.1563" stroke-miterlimit="10" x1="442.6" y1="660.9" x2="504.8" y2="634.7"/>
			<line fill="none" stroke="#F9F4F3" stroke-width="6.1563" stroke-miterlimit="10" x1="467.5" y1="680.6" x2="539.9" y2="647.8"/>
			<line fill="none" stroke="#F9F4F3" stroke-width="6.1563" stroke-miterlimit="10" x1="483.2" y1="706.8" x2="510.6" y2="694.8"/>
			<line fill="none" stroke="#F9F4F3" stroke-width="6.1563" stroke-miterlimit="10" x1="540.4" y1="683" x2="567.4" y2="670.2"/>
			<line fill="none" stroke="#F9F4F3" stroke-width="6.1563" stroke-miterlimit="10" x1="592.5" y1="660.9" x2="780" y2="601.1"/>
			<line fill="none" stroke="#F9F4F3" stroke-width="6.1563" stroke-miterlimit="10" x1="800.2" y1="595" x2="827.6" y2="583.1"/>
			<line fill="none" stroke="#F9F4F3" stroke-width="6.1563" stroke-miterlimit="10" x1="857.4" y1="571.3" x2="884.4" y2="558.5"/>
			<line fill="none" stroke="#F9F4F3" stroke-width="6.1563" stroke-miterlimit="10" x1="849.5" y1="564.2" x2="857.4" y2="560.1"/>
			<line fill="none" stroke="#F9F4F3" stroke-width="6.1563" stroke-miterlimit="10" x1="870.9" y1="555.7" x2="877.2" y2="550.8"/>
			<line fill="none" stroke="#F9F4F3" stroke-width="6.1563" stroke-miterlimit="10" x1="857.4" y1="552.6" x2="864.2" y2="550.3"/>
			<line fill="none" stroke="#F9F4F3" stroke-width="6.1563" stroke-miterlimit="10" x1="827.6" y1="547.4" x2="864.2" y2="536"/>
			<line fill="none" stroke="#F9F4F3" stroke-width="6.1563" stroke-miterlimit="10" x1="813.9" y1="532.9" x2="834.9" y2="527.1"/>
			<line fill="none" stroke="#F9F4F3" stroke-width="6.1563" stroke-miterlimit="10" x1="539.9" y1="621.8" x2="553.9" y2="614.2"/>
			<line fill="none" stroke="#F9F4F3" stroke-width="6.1563" stroke-miterlimit="10" x1="592.5" y1="605.2" x2="619.5" y2="600.7"/>
			<line fill="none" stroke="#F9F4F3" stroke-width="6.1563" stroke-miterlimit="10" x1="661.3" y1="586.9" x2="676" y2="583.1"/>
			<line fill="none" stroke="#F9F4F3" stroke-width="6.1563" stroke-miterlimit="10" x1="718.5" y1="569.1" x2="742.6" y2="562.1"/>
			<line fill="none" stroke="#F9F4F3" stroke-width="6.1563" stroke-miterlimit="10" x1="765.4" y1="550.8" x2="788.6" y2="547.2"/>
			<line fill="none" stroke="#F9F4F3" stroke-width="6.1563" stroke-miterlimit="10" x1="578.4" y1="640.4" x2="598.7" y2="631"/>
			<line fill="none" stroke="#F9F4F3" stroke-width="6.1563" stroke-miterlimit="10" x1="619.5" y1="621.8" x2="645.9" y2="618"/>
			<line fill="none" stroke="#F9F4F3" stroke-width="6.1563" stroke-miterlimit="10" x1="668.7" y1="605.2" x2="699.2" y2="595"/>
			<line fill="none" stroke="#F9F4F3" stroke-width="6.1563" stroke-miterlimit="10" x1="728" y1="583.5" x2="750" y2="576.1"/>
			<line fill="none" stroke="#F9F4F3" stroke-width="6.1563" stroke-miterlimit="10" x1="780" y1="571.3" x2="809.5" y2="558.5"/>
		</g>
		<path fill="#F9F4F3" d="M958.8,468.4c-2-16.3,15.3-22.2,47.7-19.8c30.1,2.2,56.9,16.9,56.9,37.2c0,20.3-36.2,13.3-61.6,6.1
			C975.6,484.4,960.3,480.5,958.8,468.4z"/>
		<path opacity="0.41" fill="#FCDCD8" d="M971.4,476.7c-6.3-2-9.4-8.5-3-8.4c1.5,0,12.8,3.5,14.5,3.5c11.6-4.8,47.3-4.2,57.8-1
			s13.5,2.7,15.3,13.8c1.8,11.1-8.1,10.3-17.9,8C1024.9,489.5,988.7,482.2,971.4,476.7z"/>
		<line fill="none" stroke="#BEBBBB" stroke-width="3.0781" stroke-miterlimit="10" x1="988.5" y1="467.8" x2="988.5" y2="447.5"/>
		<path fill="#F3E9E8" d="M7.6,576.1v92.3c0,0,8.2,21.9,43.1,26.4c34.9,4.5,49.3-26.8,49.3-26.8l6.2-102c0,0-4-20.1-49.3-19.5
			C0.9,547.4,7.6,576.1,7.6,576.1z"/>
		<path fill="#996666" d="M25,580.1c0,0,9.2-12.9,31.8-12.5c22.6,0.4,34.9,6.8,34.9,6.8s-17.4,13.3-34.9,13.2S25,580.1,25,580.1z"/>
		<path fill="none" stroke="#F9F4F3" stroke-width="3.0781" stroke-miterlimit="10" d="M16.7,562.1c0,0,21.3-10.3,38.2-10.5
			c19.6-0.2,38.1,6.6,38.1,6.6s-13.6-8-39.7-8.6C38.1,549.3,16.7,562.1,16.7,562.1z"/>
		<ellipse fill="#7E7991" cx="304.6" cy="465.5" rx="10.8" ry="12.7"/>
		<ellipse fill="#7E7991" cx="349.2" cy="457.2" rx="7.7" ry="8.7"/>
		<path opacity="0.42" fill="#D8BEBC" d="M406.3,44l23.5,62.3l-15.5,14.1c0,0,42,36.3,45,134.6c3.1,98.3-47.7,128.7-47.7,128.7
			l8.8-1.7l124.2,51.5l84.9,2.4l-370.9,81.7l-45-21.1v-20.7L115,384.2l5-157.6l100.7-103.9l0.9-35l36.9-30.3L406.3,44z"/>
		<path opacity="0.8" fill="#E0C5C3" d="M620.3,19.6c0,0,17.8,121.9,13.8,216.6s-13.8,183-13.8,183"/>
		<g>
			<path fill="#FEF4F2" d="M581.5,702.3c0,0,4.9-2.7,13.5-7.1c4.3-2.2,9.6-4.7,15.7-7.6c6.1-2.8,13-6,20.5-9.3
				c7.6-3.3,15.8-6.8,24.5-10.3c8.7-3.5,18-7.2,27.6-10.8c4.8-1.9,9.7-3.7,14.6-5.5c5-1.8,10-3.7,15.1-5.5
				c10.2-3.6,20.5-7.1,30.9-10.6c10.4-3.4,20.8-6.8,31.1-9.9c2.6-0.8,5.1-1.6,7.7-2.3c2.6-0.8,5.1-1.5,7.6-2.2
				c5.1-1.5,10.1-3,15-4.3c9.9-2.8,19.5-5.4,28.6-7.7c4.6-1.1,9-2.3,13.3-3.3c4.3-1,8.5-2,12.5-3c8-1.8,15.4-3.4,22-4.8
				c6.6-1.3,12.3-2.4,17.1-3.2c9.5-1.7,15.1-2.4,15.1-2.4s-4.9,2.7-13.5,7.1c-4.3,2.2-9.6,4.7-15.7,7.6c-6.1,2.9-13,6-20.5,9.3
				c-3.8,1.7-7.7,3.3-11.8,5.1c-4.1,1.7-8.3,3.5-12.7,5.3c-8.7,3.5-18,7.2-27.6,10.8c-4.8,1.9-9.7,3.6-14.7,5.5
				c-2.5,0.9-5,1.8-7.5,2.8c-2.5,0.9-5,1.8-7.6,2.7c-10.2,3.6-20.5,7.1-30.9,10.6c-10.4,3.4-20.8,6.7-31.1,9.9
				c-5.1,1.6-10.3,3.1-15.3,4.6c-5.1,1.5-10.1,3-15,4.3c-9.9,2.8-19.5,5.4-28.6,7.7c-9.1,2.3-17.8,4.4-25.8,6.3
				c-8,1.8-15.4,3.4-22,4.8c-6.6,1.3-12.3,2.4-17.1,3.3C587,701.6,581.5,702.3,581.5,702.3z"/>
		</g>
		<path opacity="0.42" fill="#FCDCD8" d="M333.8,577.6c0,0,381.5-110.4,386.9-104.1c6.2,7.2-281,70.3-269.1,82.1
			c15.1,14.9,105.4,9.4,127,24.4c17.8,12.3,5.9,69.5,26.2,76.9c26,9.5-68.2,50.9-41.2,43.8c111.5-29.4,177.6-51.2,173.9-39.9
			c-3.7,11.3-270.1,108.7-270.1,108.7s-3.8,3.8-17.4-0.9C436,752.8,282.8,625.5,282.8,625.5s-5.8-12.4,0-25.4
			c5.8-13,11.1-28.1,11.1-28.1L333.8,577.6z"/>
		<polyline opacity="0.32" fill="#FCDCD8" points="356.9,602.9 794.7,484.3 361.3,608.6 		"/>
		<polyline opacity="0.32" fill="#FCDCD8" points="330.7,568.5 768.5,449.9 335,574.2 		"/>
		<polyline opacity="0.32" fill="#FCDCD8" points="379.8,623.4 817.6,504.7 384.1,629 		"/>
		<polyline opacity="0.32" fill="#FCDCD8" points="415.2,649 853,530.3 419.5,654.7 		"/>
		<polyline opacity="0.32" fill="#FCDCD8" points="446.5,677.7 884.3,559.1 450.8,683.4 		"/>
		<path opacity="0.32" fill="#FCDCD8" d="M11.8,576.1c0,0,3.2,9.7,23.8,13.7c10.5,2,41.2,33.5,41.2,58c0,23.6-30.4,40.3-30.4,40.3
			s-18.1,7.9-34.6-19.7C11.8,635.7,11.8,576.1,11.8,576.1z"/>
		<path opacity="0.94" fill="#D8BEBC" d="M104.3,595.8c0,0,9,3.2,7.9,12.5c-1.2,9.3-9.6,17.3-9.6,17.3l-0.4,8.1c0,0,12.4-15,12.8-22
			C115,596.3,104.3,595.8,104.3,595.8z"/>
		<g>
			<path fill="#F9F4F3" d="M93.1,590.6c0,0,0.5,1,1,2.6c0.5,1.7,1.1,4.1,1.3,6.9c0.1,1.4,0.2,3,0.1,4.6c-0.1,1.6-0.6,3.4-1,5.2
				c-0.5,1.8-0.7,3.7-0.7,5.5c0,1.9,0.3,3.8,0.8,5.7c0.4,1.9,0.9,3.8,1.1,5.7c0.2,1.9,0.4,3.7,0.5,5.5c0.3,3.6,0,6.9-0.4,9.8
				c-0.2,1.4-0.4,2.8-0.7,3.9c-0.3,1.2-0.5,2.2-0.8,3c-0.5,1.7-0.9,2.6-0.9,2.6l-0.6,0c0,0-0.4-1-0.9-2.6c-0.3-0.8-0.5-1.9-0.8-3
				c-0.3-1.2-0.5-2.5-0.7-3.9c-0.4-2.9-0.8-6.2-0.5-9.8c0.1-1.8,0.3-3.7,0.5-5.5c0.2-1.9,0.6-3.8,1-5.7c0.4-1.9,0.7-3.8,0.7-5.7
				c0-1.9-0.3-3.7-0.7-5.5c-0.5-1.8-1-3.5-1.1-5.2c-0.2-1.6,0-3.2,0.1-4.6c0.2-2.9,0.8-5.3,1.3-7c0.5-1.7,1-2.6,1-2.6L93.1,590.6z"
				/>
		</g>
		<path fill="none" stroke="#EADAD8" stroke-width="1.5391" stroke-miterlimit="10" d="M11.8,668.4c0,0,18.4,21.9,40.6,22.1
			s33.3-9.8,40.6-18.8"/>
	</g>
</g>
<g id="steam">
	<linearGradient id="SVGID_1_" gradientUnits="userSpaceOnUse" x1="19.8094" y1="412.5967" x2="19.8094" y2="564.4715">
		<stop  offset="0" style="stop-color:#F1F2F2"/>
		<stop  offset="0.37" style="stop-color:#E7EFF3;stop-opacity:0.767"/>
		<stop  offset="0.9526" style="stop-color:#D7EFF8;stop-opacity:0.4"/>
	</linearGradient>
	<path fill="url(#SVGID_1_)" d="M39.4,564.5c0,0-43.1-18.1-31.8-58.8s31.8-58,16-80C18.4,418.5,0,412.6,0,412.6s36.3,4,39.4,41
		s-24,63-15.8,79.6S39.4,564.5,39.4,564.5z"/>
	<linearGradient id="SVGID_2_" gradientUnits="userSpaceOnUse" x1="58.876" y1="452.8278" x2="58.876" y2="551.5042">
		<stop  offset="0" style="stop-color:#F1F2F2"/>
		<stop  offset="0.37" style="stop-color:#E7EFF3;stop-opacity:0.767"/>
		<stop  offset="0.9526" style="stop-color:#D7EFF8;stop-opacity:0.4"/>
	</linearGradient>
	<path fill="url(#SVGID_2_)" d="M53.7,551.5c0,0-12-27.8,0.5-47.8c5.9-9.5,10.9-10.7,7.9-27.2c-3-16.4-11.8-23.7-11.8-23.7
		s12.8,5.2,16.4,14.7c6.3,16.7-0.6,30.2-6.7,41c-6.1,10.8-6.7,15.7-7.3,22.9L53.7,551.5z"/>
</g>
</svg>
