<?xml version="1.0" encoding="utf-8"?>
<!-- Generator: Adobe Illustrator 18.1.1, SVG Export Plug-In . SVG Version: 6.00 Build 0)  -->
<svg version="1.1" xmlns="http://www.w3.org/2000/svg" xmlns:xlink="http://www.w3.org/1999/xlink" x="0px" y="0px"
	 viewBox="0 0 20.3 20.7" enable-background="new 0 0 20.3 20.7" xml:space="preserve">
<g id="Layer_1">
	<g>
		<path fill="none" stroke="#A7A9AC" stroke-miterlimit="10" d="M3.9,16.8l0.3,2.1c0.4,0.7,1.4,0.9,2,0.4l6.9-3.4c0,0,4.2-1.4,4.5-6
			C17.8,5.3,14.7,2,9,3.3c-5.6-1.4-10.3,6.2-5.7,12C3.6,15.7,3.8,16.3,3.9,16.8z"/>
		<path fill="none" stroke="#A7A9AC" stroke-miterlimit="10" d="M14.4,3.6l4-2.4c0.4-0.3,1,0.1,0.9,0.6l-1.8,7.1"/>
		<path fill="none" stroke="#A7A9AC" stroke-miterlimit="10" d="M5.2,3.7L2.5,1.5c-0.4-0.3-1,0-0.9,0.5l0.6,4.9"/>
		<path fill="none" stroke="#A7A9AC" stroke-miterlimit="10" d="M3.3,5.1l1.2,6.5C5,13,6.8,13.4,7.8,12.4l8.5-7.5"/>
	</g>
</g>
<g id="notes" display="none">
</g>
</svg>
