<?xml version="1.0" encoding="utf-8"?>
<!-- Generator: Adobe Illustrator 18.1.1, SVG Export Plug-In . SVG Version: 6.00 Build 0)  -->
<svg version="1.1" xmlns="http://www.w3.org/2000/svg" xmlns:xlink="http://www.w3.org/1999/xlink" x="0px" y="0px"
	 viewBox="0 0 26 14.1" enable-background="new 0 0 26 14.1" xml:space="preserve">
<g id="Layer_1">
	<path fill="none" stroke="#A7A9AC" stroke-miterlimit="10" d="M11.3,9.3l3.4-5.1c3.5-0.4,7.4,0,7.4,0l-0.8,4.9L11.3,9.3z"/>
	<polyline fill="none" stroke="#A7A9AC" stroke-miterlimit="10" points="10.4,10.6 21.1,10.1 21.2,9.1 	"/>
	<path fill="none" stroke="#A7A9AC" stroke-miterlimit="10" d="M9.6,13c1.9,0.2,2.2-0.7,2.2-0.7l10.8-1.2l0.6-5.9h-1"/>
	<path fill="none" stroke="#A7A9AC" stroke-miterlimit="10" d="M10.2,9.1L13.8,4c-2.7-1.4-5.5-3-5.5-3L4.1,5.3L10.2,9.1z"/>
	<polyline fill="none" stroke="#A7A9AC" stroke-miterlimit="10" points="10.1,10.5 3.7,6.5 4.6,5.4 	"/>
	<path fill="none" stroke="#A7A9AC" stroke-miterlimit="10" d="M9.6,13c-1.3-0.1-1.3-1.4-1.3-1.4L1.3,7l4.9-5.4L7,2"/>
	<line fill="none" stroke="#A7A9AC" stroke-width="0.75" stroke-miterlimit="10" x1="15.4" y1="5.4" x2="20.3" y2="5.1"/>
	<line fill="none" stroke="#A7A9AC" stroke-width="0.5" stroke-miterlimit="10" x1="15.6" y1="6.5" x2="20.3" y2="6.4"/>
	<line fill="none" stroke="#A7A9AC" stroke-width="0.75" stroke-miterlimit="10" x1="8.7" y1="2.5" x2="11.5" y2="4.2"/>
	<line fill="none" stroke="#A7A9AC" stroke-width="0.5" stroke-miterlimit="10" x1="8.3" y1="3.8" x2="11" y2="5.4"/>
	<line fill="none" stroke="#A7A9AC" stroke-miterlimit="10" x1="7.5" y1="5.3" x2="9.6" y2="6.7"/>
</g>
<g id="notes" display="none">
</g>
</svg>
