<?xml version="1.0" encoding="utf-8"?>
<!-- Generator: Adobe Illustrator 18.1.1, SVG Export Plug-In . SVG Version: 6.00 Build 0)  -->
<svg version="1.1" id="Layer_1" xmlns="http://www.w3.org/2000/svg" xmlns:xlink="http://www.w3.org/1999/xlink" x="0px" y="0px"
	 viewBox="0 0 16.8 13.6" enable-background="new 0 0 16.8 13.6" xml:space="preserve">
<g>
	<path fill="none" stroke="#BCBEC0" stroke-width="0.5" stroke-miterlimit="10" d="M15.2,13.2H1.8c-0.6,0-1.1-0.5-1.1-1.1V1.5
		c0-0.6,0.5-1.1,1.1-1.1h13.4c0.6,0,1.1,0.5,1.1,1.1v10.6C16.3,12.7,15.8,13.2,15.2,13.2z"/>
	<line fill="none" stroke="#BCBEC0" stroke-width="0.5" stroke-miterlimit="10" x1="7.6" y1="5.2" x2="12.3" y2="5.2"/>
	<line fill="none" stroke="#BCBEC0" stroke-width="0.5" stroke-miterlimit="10" x1="7.6" y1="6.2" x2="12.3" y2="6.2"/>
	<path fill="none" stroke="#BCBEC0" stroke-width="0.25" stroke-miterlimit="10" d="M13.7,4.2H3.1C2.9,4.2,2.8,4,2.8,3.9V2.8
		c0-0.2,0.1-0.3,0.3-0.3h10.6c0.2,0,0.3,0.1,0.3,0.3v1.1C14,4,13.9,4.2,13.7,4.2z"/>
	<path fill="none" stroke="#BCBEC0" stroke-width="0.25" stroke-miterlimit="10" d="M5.6,6.7H3.7c-0.2,0-0.3-0.1-0.3-0.3v-1
		c0-0.2,0.1-0.3,0.3-0.3h1.9c0.2,0,0.3,0.1,0.3,0.3v1C5.9,6.6,5.7,6.7,5.6,6.7z"/>
	<line fill="none" stroke="#BCBEC0" stroke-width="0.5" stroke-miterlimit="10" x1="0.7" y1="1.3" x2="16.1" y2="1.3"/>
	<ellipse fill="#BCBEC0" cx="13.3" cy="0.8" rx="0.1" ry="0.1"/>
	<ellipse fill="#BCBEC0" cx="14" cy="0.8" rx="0.1" ry="0.1"/>
	<ellipse fill="#BCBEC0" cx="14.7" cy="0.8" rx="0.1" ry="0.1"/>
</g>
</svg>
