<?xml version="1.0" encoding="utf-8"?>
<!-- Generator: Adobe Illustrator 18.1.1, SVG Export Plug-In . SVG Version: 6.00 Build 0)  -->
<svg version="1.1" xmlns="http://www.w3.org/2000/svg" xmlns:xlink="http://www.w3.org/1999/xlink" x="0px" y="0px"
	 viewBox="0 0 1000 254.5" enable-background="new 0 0 1000 254.5" xml:space="preserve">
<g id="bg__x2B__footer">
	<g>
		<linearGradient id="SVGID_1_" gradientUnits="userSpaceOnUse" x1="500" y1="9" x2="500" y2="254.4608">
			<stop  offset="0" style="stop-color:#E8C09B"/>
			<stop  offset="1" style="stop-color:#DC5566"/>
		</linearGradient>
		<polygon fill="url(#SVGID_1_)" points="0,20.6 228.2,104.1 408.4,20.6 491.6,71.7 695,9 810.9,81 1000,9 1000,254.5 0,254.5 		"/>
		<polyline fill="none" stroke="#F1F2F2" stroke-miterlimit="10" points="257.4,215.7 400.3,115.7 481,89 695,9 491.6,71.7 
			365.5,99.4 408.4,20.6 		"/>
		<polygon fill="none" stroke="#F1F2F2" stroke-miterlimit="10" points="0,57.8 233.3,178.2 0,20.6 		"/>
		<polygon fill="none" stroke="#F1F2F2" stroke-miterlimit="10" points="233.3,178.2 365.5,99.4 476.4,75 491.6,71.7 438,38.8 
			408.4,20.6 		"/>
		<polygon fill="none" stroke="#F1F2F2" stroke-miterlimit="10" points="695,9 794.3,164.4 1000,29.1 1000,9 810.2,143.4 		"/>
		<polyline fill="none" stroke="#F1F2F2" stroke-miterlimit="10" points="291.8,143.4 233.3,178.2 0,57.8 0,128.5 		"/>
		<line fill="none" stroke="#F1F2F2" stroke-miterlimit="10" x1="365.5" y1="99.4" x2="400.3" y2="115.7"/>
		<polyline fill="none" stroke="#F1F2F2" stroke-miterlimit="10" points="543.6,55.7 524.1,96.8 598.3,115.7 699.3,15.8 695,9 
			603,57.8 485.7,115.7 400.3,115.7 		"/>
		<polyline fill="none" stroke="#F1F2F2" stroke-miterlimit="10" points="699.3,15.8 804,254.5 901.6,78.7 1000,9 1000,147 
			1000,254.5 804,254.5 		"/>
		<polyline fill="none" stroke="#F1F2F2" stroke-miterlimit="10" points="633.4,81 783.2,178.2 854,164.4 1000,97.9 		"/>
		<polyline fill="none" stroke="#F1F2F2" stroke-miterlimit="10" points="90.1,53.8 1,128.5 145.8,175.2 233.3,178.2 257.4,215.7 
			378.8,154.6 461.3,139.8 485.7,115.7 		"/>
		<polyline fill="none" stroke="#F1F2F2" stroke-miterlimit="10" points="128.7,68.2 145.8,175.2 257.4,215.7 262,254.5 355,254.5 
			461.3,139.8 598.3,115.7 669.1,104.1 804,254.5 		"/>
		<polyline fill="none" stroke="#F1F2F2" stroke-miterlimit="10" points="598.3,115.7 585,254.5 461.3,139.8 		"/>
		<line fill="none" stroke="#F1F2F2" stroke-miterlimit="10" x1="669.1" y1="104.1" x2="723" y2="254.5"/>
		<polyline fill="none" stroke="#F1F2F2" stroke-miterlimit="10" points="0,128.5 0,254.5 1000,254.5 1000,9 		"/>
		<polyline fill="none" stroke="#F1F2F2" stroke-miterlimit="10" points="0,20.6 227,104.1 233.3,178.2 227,104.1 408.4,20.6 
			439.8,83.1 		"/>
		<polyline fill="none" stroke="#F1F2F2" stroke-miterlimit="10" points="147,175.2 2.8,254.5 262,254.5 		"/>
		<polyline fill="none" stroke="#F1F2F2" stroke-miterlimit="10" points="1000,9 877,55.8 794.3,164.4 		"/>
		<line fill="none" stroke="#F1F2F2" stroke-miterlimit="10" x1="901.6" y1="78.7" x2="943.7" y2="29.4"/>
		<polyline fill="none" stroke="#F1F2F2" stroke-miterlimit="10" points="695,9 810.9,81 877,55.8 		"/>
		<line fill="none" stroke="#F1F2F2" stroke-miterlimit="10" x1="810.9" y1="81" x2="810.2" y2="143.4"/>
		<line fill="none" stroke="#F1F2F2" stroke-miterlimit="10" x1="975" y1="252" x2="940" y2="125.2"/>
	</g>
</g>
<g id="Layer_1">
</g>
<g id="notes">
</g>
</svg>
